<?xml version="1.0" encoding="utf-8" standalone="no"?>
<!DOCTYPE svg PUBLIC "-//W3C//DTD SVG 1.1//EN"
  "http://www.w3.org/Graphics/SVG/1.1/DTD/svg11.dtd">
<!-- Created with matplotlib (https://matplotlib.org/) -->
<svg height="265.04pt" version="1.1" viewBox="0 0 399.644375 265.04" width="399.644375pt" xmlns="http://www.w3.org/2000/svg" xmlns:xlink="http://www.w3.org/1999/xlink">
 <metadata>
  <rdf:RDF xmlns:cc="http://creativecommons.org/ns#" xmlns:dc="http://purl.org/dc/elements/1.1/" xmlns:rdf="http://www.w3.org/1999/02/22-rdf-syntax-ns#">
   <cc:Work>
    <dc:type rdf:resource="http://purl.org/dc/dcmitype/StillImage"/>
    <dc:date>2021-10-29T11:51:46.149561</dc:date>
    <dc:format>image/svg+xml</dc:format>
    <dc:creator>
     <cc:Agent>
      <dc:title>Matplotlib v3.3.4, https://matplotlib.org/</dc:title>
     </cc:Agent>
    </dc:creator>
   </cc:Work>
  </rdf:RDF>
 </metadata>
 <defs>
  <style type="text/css">*{stroke-linecap:butt;stroke-linejoin:round;}</style>
 </defs>
 <g id="figure_1">
  <g id="patch_1">
   <path d="M 0 265.04 
L 399.644375 265.04 
L 399.644375 0 
L 0 0 
z
" style="fill:none;"/>
  </g>
  <g id="axes_1">
   <g id="patch_2">
    <path d="M 57.644375 224.64 
L 392.444375 224.64 
L 392.444375 7.2 
L 57.644375 7.2 
z
" style="fill:#ffffff;"/>
   </g>
   <g id="matplotlib.axis_1">
    <g id="xtick_1">
     <g id="line2d_1">
      <defs>
       <path d="M 0 0 
L 0 3.5 
" id="m2de233ed6b" style="stroke:#000000;stroke-width:0.8;"/>
      </defs>
      <g>
       <use style="stroke:#000000;stroke-width:0.8;" x="72.862557" xlink:href="#m2de233ed6b" y="224.64"/>
      </g>
     </g>
     <g id="text_1">
      <!-- 0 -->
      <g transform="translate(69.652557 240.44875)scale(0.12 -0.12)">
       <defs>
        <path d="M 26.90625 -1.09375 
C 41.5 -1.09375 49.296875 10.09375 49.296875 32.203125 
L 49.296875 37.59375 
C 49.296875 60.796875 40.59375 70.296875 26.796875 70.296875 
C 12.796875 70.296875 4.203125 59.90625 4.203125 37 
L 4.203125 31.90625 
C 4.203125 7.796875 13.203125 -1.09375 26.90625 -1.09375 
z
M 27 6 
C 16.703125 6 13.203125 15.296875 13.203125 31.5 
L 13.203125 38.90625 
C 13.203125 54.59375 17 63.296875 26.703125 63.296875 
C 36.5 63.296875 40.5 54.90625 40.5 38.40625 
L 40.5 30.90625 
C 40.5 14.59375 37.09375 6 27 6 
z
" id="GuardianSansCond-Regular-48"/>
       </defs>
       <use xlink:href="#GuardianSansCond-Regular-48"/>
      </g>
     </g>
    </g>
    <g id="xtick_2">
     <g id="line2d_2">
      <g>
       <use style="stroke:#000000;stroke-width:0.8;" x="133.796218" xlink:href="#m2de233ed6b" y="224.64"/>
      </g>
     </g>
     <g id="text_2">
      <!-- 200 -->
      <g transform="translate(124.826218 240.44875)scale(0.12 -0.12)">
       <defs>
        <path d="M 2.703125 0 
L 38.59375 0 
L 38.59375 7.203125 
L 12.5 7.203125 
L 12.5 7.5 
L 24.59375 22.203125 
C 32.296875 31.796875 37.796875 39.5 37.796875 51 
C 37.796875 62.90625 31.703125 70.296875 19.09375 70.296875 
C 12.59375 70.296875 7.796875 68.90625 4.203125 66.90625 
L 4.203125 60.203125 
C 7.296875 61.703125 11.40625 63 16.5 63 
C 25.296875 63 28.90625 58.59375 28.90625 50.203125 
C 28.90625 41.09375 24.09375 34.203125 18 26.09375 
L 2.703125 6.203125 
z
" id="GuardianSansCond-Regular-50"/>
       </defs>
       <use xlink:href="#GuardianSansCond-Regular-50"/>
       <use x="42.499985" xlink:href="#GuardianSansCond-Regular-48"/>
       <use x="95.999969" xlink:href="#GuardianSansCond-Regular-48"/>
      </g>
     </g>
    </g>
    <g id="xtick_3">
     <g id="line2d_3">
      <g>
       <use style="stroke:#000000;stroke-width:0.8;" x="194.729879" xlink:href="#m2de233ed6b" y="224.64"/>
      </g>
     </g>
     <g id="text_3">
      <!-- 400 -->
      <g transform="translate(185.465504 240.44875)scale(0.12 -0.12)">
       <defs>
        <path d="M 28.203125 0 
L 36.40625 0 
L 36.40625 17.296875 
L 46.203125 17.296875 
L 46.203125 24.40625 
L 36.40625 24.40625 
L 36.40625 69.296875 
L 29.203125 69.296875 
L 1.09375 23.5 
L 1.09375 17.296875 
L 28.203125 17.296875 
z
M 9.5 24.40625 
L 9.5 24.703125 
L 27.796875 54.296875 
L 28.203125 54.296875 
L 28.203125 24.40625 
z
" id="GuardianSansCond-Regular-52"/>
       </defs>
       <use xlink:href="#GuardianSansCond-Regular-52"/>
       <use x="47.399994" xlink:href="#GuardianSansCond-Regular-48"/>
       <use x="100.899979" xlink:href="#GuardianSansCond-Regular-48"/>
      </g>
     </g>
    </g>
    <g id="xtick_4">
     <g id="line2d_4">
      <g>
       <use style="stroke:#000000;stroke-width:0.8;" x="255.66354" xlink:href="#m2de233ed6b" y="224.64"/>
      </g>
     </g>
     <g id="text_4">
      <!-- 600 -->
      <g transform="translate(246.309165 240.44875)scale(0.12 -0.12)">
       <defs>
        <path d="M 25.5 6 
C 16.90625 6 13.203125 14.296875 13.203125 28.703125 
L 13.203125 32.09375 
C 15.5 33.59375 19.59375 35.59375 24.90625 35.59375 
C 32.59375 35.59375 36.296875 31 36.296875 21.203125 
C 36.296875 11.59375 32.59375 6 25.5 6 
z
M 25.5 -1.09375 
C 38.09375 -1.09375 45.09375 8.5 45.09375 22 
C 45.09375 34.90625 38.90625 42.90625 27.40625 42.90625 
C 21.296875 42.90625 16.5 40.796875 13.203125 38.203125 
C 13.703125 60.203125 22.5 63.09375 31.703125 63.09375 
C 35.796875 63.09375 39.90625 62.09375 42 61.40625 
L 42 68 
C 39.796875 69.40625 35.5 70.296875 30.59375 70.296875 
C 16.296875 70.296875 4.296875 62.203125 4.296875 34.5 
L 4.296875 28.796875 
C 4.296875 10.796875 11.203125 -1.09375 25.5 -1.09375 
z
" id="GuardianSansCond-Regular-54"/>
       </defs>
       <use xlink:href="#GuardianSansCond-Regular-54"/>
       <use x="48.899994" xlink:href="#GuardianSansCond-Regular-48"/>
       <use x="102.399979" xlink:href="#GuardianSansCond-Regular-48"/>
      </g>
     </g>
    </g>
    <g id="xtick_5">
     <g id="line2d_5">
      <g>
       <use style="stroke:#000000;stroke-width:0.8;" x="316.597201" xlink:href="#m2de233ed6b" y="224.64"/>
      </g>
     </g>
     <g id="text_5">
      <!-- 800 -->
      <g transform="translate(307.212826 240.44875)scale(0.12 -0.12)">
       <defs>
        <path d="M 24.703125 -1 
C 38.203125 -1 45.796875 7.296875 45.796875 17.796875 
C 45.796875 27.5 40.5 32.40625 32.90625 36.40625 
C 38.90625 39.703125 44.09375 45.296875 44.09375 53.5 
C 44.09375 63.703125 37.40625 70.296875 25.09375 70.296875 
C 12.796875 70.296875 6 62.703125 6 53.09375 
C 6 44.5 10.59375 39.203125 16.703125 35.703125 
C 9.40625 32.09375 3.59375 26.296875 3.59375 16.90625 
C 3.59375 6 11.09375 -1 24.703125 -1 
z
M 24.796875 6.09375 
C 16.90625 6.09375 12 10.59375 12 17.59375 
C 12 24.703125 16.203125 29.59375 22.09375 32.5 
C 31.703125 28 37.296875 24.59375 37.296875 16.90625 
C 37.296875 9.59375 32.09375 6.09375 24.796875 6.09375 
z
M 27.40625 39.40625 
C 18.90625 43.40625 14.5 47.203125 14.5 53.59375 
C 14.5 59.703125 18.296875 63.296875 25.09375 63.296875 
C 32.296875 63.296875 35.703125 59.09375 35.703125 53.09375 
C 35.703125 47 32.796875 43.203125 27.40625 39.40625 
z
" id="GuardianSansCond-Regular-56"/>
       </defs>
       <use xlink:href="#GuardianSansCond-Regular-56"/>
       <use x="49.399994" xlink:href="#GuardianSansCond-Regular-48"/>
       <use x="102.899979" xlink:href="#GuardianSansCond-Regular-48"/>
      </g>
     </g>
    </g>
    <g id="xtick_6">
     <g id="line2d_6">
      <g>
       <use style="stroke:#000000;stroke-width:0.8;" x="377.530861" xlink:href="#m2de233ed6b" y="224.64"/>
      </g>
     </g>
     <g id="text_6">
      <!-- 1000 -->
      <g transform="translate(366.173049 240.44875)scale(0.12 -0.12)">
       <defs>
        <path d="M 13 0 
L 21.296875 0 
L 21.296875 69.90625 
L 18.296875 69.90625 
L 2.203125 63.796875 
L 2.203125 59 
L 13 60.09375 
z
" id="GuardianSansCond-Regular-49"/>
       </defs>
       <use xlink:href="#GuardianSansCond-Regular-49"/>
       <use x="28.799988" xlink:href="#GuardianSansCond-Regular-48"/>
       <use x="82.299973" xlink:href="#GuardianSansCond-Regular-48"/>
       <use x="135.799957" xlink:href="#GuardianSansCond-Regular-48"/>
      </g>
     </g>
    </g>
    <g id="text_7">
     <!-- Sorted token probabilities -->
     <g transform="translate(170.45375 255.54875)scale(0.12 -0.12)">
      <defs>
       <path d="M 18.5 -1.09375 
C 33.40625 -1.09375 39.203125 7.796875 39.203125 19.5 
C 39.203125 31.703125 33 35.296875 24.40625 39.09375 
L 19.40625 41.296875 
C 13.40625 43.90625 11.40625 46.40625 11.40625 52.5 
C 11.40625 59.5 15.40625 63.09375 22.796875 63.09375 
C 28.796875 63.09375 33.5 61.5 36.5 60 
L 36.5 67.203125 
C 33.703125 68.703125 29.90625 70.296875 22.90625 70.296875 
C 10.203125 70.296875 3.09375 63.40625 3.09375 51.90625 
C 3.09375 41.203125 8.5 36.703125 16 33.40625 
L 21 31.203125 
C 27.5 28.296875 30.59375 26.203125 30.59375 18.703125 
C 30.59375 10.296875 26.59375 6.203125 17.90625 6.203125 
C 12.40625 6.203125 6.90625 8 2.59375 10.09375 
L 2.59375 2.90625 
C 6.09375 0.796875 11.296875 -1.09375 18.5 -1.09375 
z
" id="GuardianSansCond-Regular-83"/>
       <path d="M 22.796875 -0.796875 
C 35.5 -0.796875 42.703125 8.90625 42.703125 24.09375 
L 42.703125 27.296875 
C 42.703125 43.296875 35.796875 52.09375 22.796875 52.09375 
C 10.296875 52.09375 2.90625 42.40625 2.90625 27.203125 
L 2.90625 23.90625 
C 2.90625 8.296875 9.59375 -0.796875 22.796875 -0.796875 
z
M 22.90625 5.90625 
C 15.5 5.90625 11.296875 11.90625 11.296875 23 
L 11.296875 28.40625 
C 11.296875 38.296875 14.796875 45.40625 22.703125 45.40625 
C 30 45.40625 34.296875 40 34.296875 28.203125 
L 34.296875 22.90625 
C 34.296875 12.90625 30.59375 5.90625 22.90625 5.90625 
z
" id="GuardianSansCond-Regular-111"/>
       <path d="M 5.40625 0 
L 13.59375 0 
L 13.59375 40.703125 
C 16.59375 43 20.40625 44.40625 24.796875 44.40625 
C 25.59375 44.40625 27 44.296875 27.90625 44.203125 
L 27.90625 51.59375 
C 27.296875 51.796875 26.203125 52 25.09375 52 
C 20.40625 52 16.09375 49.09375 13.59375 45.90625 
L 13.203125 45.90625 
L 13.203125 51.296875 
L 5.40625 51.296875 
z
" id="GuardianSansCond-Regular-114"/>
       <path d="M 19.09375 -0.59375 
C 22.90625 -0.59375 25.296875 0.40625 26.90625 1.40625 
L 26.90625 6.90625 
C 25.5 6.5 23.703125 6.09375 21.59375 6.09375 
C 17.296875 6.09375 15.703125 7.5 15.703125 12.203125 
L 15.703125 44.5 
L 26.296875 44.5 
L 26.296875 51.296875 
L 15.703125 51.296875 
L 15.703125 63.296875 
L 7.59375 63.296875 
L 7.59375 51.296875 
L 1.5 51.296875 
L 1.5 44.5 
L 7.59375 44.5 
L 7.59375 11.09375 
C 7.59375 2.5 12.09375 -0.59375 19.09375 -0.59375 
z
" id="GuardianSansCond-Regular-116"/>
       <path d="M 24.296875 -0.796875 
C 31 -0.796875 36.203125 1.59375 38.59375 3.796875 
L 38.59375 9.796875 
C 35 7.796875 30.703125 6.203125 25.203125 6.203125 
C 16.203125 6.203125 11.59375 10.90625 11.296875 22.90625 
L 39.90625 22.90625 
L 39.90625 28.09375 
C 39.90625 45.203125 34 52.09375 21.90625 52.09375 
C 10.296875 52.09375 2.90625 43.90625 2.90625 26.90625 
L 2.90625 24.203125 
C 2.90625 7.796875 9.90625 -0.796875 24.296875 -0.796875 
z
M 21.59375 45.40625 
C 28.59375 45.40625 31.40625 40.796875 31.40625 29.59375 
L 11.296875 29.59375 
C 11.5 41.09375 15.5 45.40625 21.59375 45.40625 
z
" id="GuardianSansCond-Regular-101"/>
       <path d="M 21.203125 -0.796875 
C 26.40625 -0.796875 30.703125 1.203125 33.203125 3.796875 
L 33.59375 3.796875 
L 34.296875 0 
L 41.203125 0 
L 41.203125 73.40625 
L 33.09375 73.40625 
L 33.09375 49.59375 
C 30.90625 51 27.09375 52.09375 22.90625 52.09375 
C 9.90625 52.09375 3.09375 42.796875 3.09375 26.09375 
L 3.09375 23.796875 
C 3.09375 5.296875 11.296875 -0.796875 21.203125 -0.796875 
z
M 23.5 5.90625 
C 15.5 5.90625 11.59375 11.703125 11.59375 24.09375 
L 11.59375 27 
C 11.59375 39.703125 15.296875 45.203125 24 45.203125 
C 27.796875 45.203125 31.296875 44.296875 33.09375 43.09375 
L 33.09375 9.296875 
C 31 7.703125 27.703125 5.90625 23.5 5.90625 
z
" id="GuardianSansCond-Regular-100"/>
       <path id="GuardianSansCond-Regular-32"/>
       <path d="M 13.59375 73.40625 
L 5.40625 73.40625 
L 5.40625 0 
L 13.59375 0 
z
M 15.203125 26.5 
L 31 0 
L 40.5 0 
L 24.203125 27.203125 
L 39.296875 51.296875 
L 30.296875 51.296875 
z
" id="GuardianSansCond-Regular-107"/>
       <path d="M 5.40625 0 
L 13.59375 0 
L 13.59375 42 
C 16.203125 43.40625 20.40625 45.09375 24.796875 45.09375 
C 30.703125 45.09375 32.703125 43.203125 32.703125 38.40625 
L 32.703125 0 
L 40.796875 0 
L 40.796875 39.5 
C 40.796875 48.203125 36.59375 52.09375 28.296875 52.09375 
C 22.5 52.09375 17.296875 49.90625 13.59375 47.203125 
L 13.203125 47.203125 
L 13.203125 51.296875 
L 5.40625 51.296875 
z
" id="GuardianSansCond-Regular-110"/>
       <path d="M 5.40625 -19.09375 
L 13.59375 -19.09375 
L 13.59375 2 
C 15.703125 0.59375 19.40625 -0.796875 24.09375 -0.796875 
C 37.09375 -0.796875 43.5 8.203125 43.5 25 
L 43.5 28.40625 
C 43.5 45.5 36.59375 52.09375 26.09375 52.09375 
C 20.59375 52.09375 16.09375 49.796875 13.59375 47.40625 
L 13.203125 47.40625 
L 13.203125 51.296875 
L 5.40625 51.296875 
z
M 22.90625 5.90625 
C 18.90625 5.90625 15.203125 7.203125 13.59375 8.40625 
L 13.59375 42 
C 15.5 43.5 19.203125 45.203125 23.796875 45.203125 
C 31.796875 45.203125 35.09375 40.203125 35.09375 28.09375 
L 35.09375 24.203125 
C 35.09375 11.59375 31.296875 5.90625 22.90625 5.90625 
z
" id="GuardianSansCond-Regular-112"/>
       <path d="M 21.59375 -1 
C 36.203125 -1 43.5 8.296875 43.5 25.296875 
L 43.5 28.796875 
C 43.5 46.796875 35.703125 52.09375 26.59375 52.09375 
C 20.90625 52.09375 16.796875 50.296875 14 48.5 
L 13.59375 48.5 
L 13.59375 73.40625 
L 5.40625 73.40625 
L 5.40625 1.59375 
C 8.703125 0.296875 15.703125 -1 21.59375 -1 
z
M 22 5.90625 
C 18.203125 5.90625 15.296875 6.5 13.59375 7.09375 
L 13.59375 42.703125 
C 15.5 43.59375 19 45.203125 23.296875 45.203125 
C 31.296875 45.203125 35.09375 41.40625 35.09375 28.40625 
L 35.09375 24.203125 
C 35.09375 9.796875 29.296875 5.90625 22 5.90625 
z
" id="GuardianSansCond-Regular-98"/>
       <path d="M 16.90625 -0.796875 
C 21.796875 -0.796875 25.59375 1.203125 27.796875 3.59375 
L 28.296875 3.59375 
L 29.09375 0 
L 35.796875 0 
L 35.796875 37.703125 
C 35.796875 47.296875 30.59375 52.09375 20.203125 52.09375 
C 14.296875 52.09375 9.90625 50.90625 6.40625 49.296875 
L 6.40625 43.296875 
C 9 44.203125 12.59375 45.09375 17.09375 45.09375 
C 25 45.09375 27.59375 42.796875 27.59375 35.59375 
L 27.59375 30.59375 
L 17 29 
C 7.5 27.59375 2.5 22.90625 2.5 13.796875 
C 2.5 3.90625 8.203125 -0.796875 16.90625 -0.796875 
z
M 19.09375 5.59375 
C 13.703125 5.59375 11 8.5 11 14.296875 
C 11 19.90625 13.703125 22.5 19.40625 23.203125 
L 27.59375 24.203125 
L 27.59375 8.203125 
C 25.90625 6.796875 22.796875 5.59375 19.09375 5.59375 
z
" id="GuardianSansCond-Regular-97"/>
       <path d="M 5.59375 0 
L 13.796875 0 
L 13.796875 51.296875 
L 5.59375 51.296875 
z
M 5.5 61.09375 
L 13.796875 61.09375 
L 13.796875 69.90625 
L 5.5 69.90625 
z
" id="GuardianSansCond-Regular-105"/>
       <path d="M 5.59375 0 
L 13.703125 0 
L 13.703125 73.40625 
L 5.59375 73.40625 
z
" id="GuardianSansCond-Regular-108"/>
       <path d="M 15.5 -0.796875 
C 25.90625 -0.796875 32.09375 4.796875 32.09375 14.796875 
C 32.09375 23.203125 28.40625 26.703125 20.40625 29.5 
L 16.40625 30.90625 
C 12 32.40625 10.296875 34.296875 10.296875 38.296875 
C 10.296875 43.296875 13.5 45.203125 19.09375 45.203125 
C 23.703125 45.203125 27.5 43.90625 29.90625 42.796875 
L 29.90625 49.5 
C 27.703125 50.796875 24.5 52.09375 18.703125 52.09375 
C 8.296875 52.09375 2.5 46.59375 2.5 37.59375 
C 2.5 29.703125 6.59375 25.90625 12.90625 23.703125 
L 16.90625 22.296875 
C 22 20.5 24 18.5 24 14 
C 24 9.09375 21.40625 6.09375 14.59375 6.09375 
C 9.09375 6.09375 5.59375 7.5 2.40625 8.796875 
L 2.40625 2.203125 
C 5.59375 0.296875 10 -0.796875 15.5 -0.796875 
z
" id="GuardianSansCond-Regular-115"/>
      </defs>
      <use xlink:href="#GuardianSansCond-Regular-83"/>
      <use x="42.199997" xlink:href="#GuardianSansCond-Regular-111"/>
      <use x="87.799988" xlink:href="#GuardianSansCond-Regular-114"/>
      <use x="116.599976" xlink:href="#GuardianSansCond-Regular-116"/>
      <use x="145.59996" xlink:href="#GuardianSansCond-Regular-101"/>
      <use x="188.299957" xlink:href="#GuardianSansCond-Regular-100"/>
      <use x="234.899948" xlink:href="#GuardianSansCond-Regular-32"/>
      <use x="250.699936" xlink:href="#GuardianSansCond-Regular-116"/>
      <use x="279.699921" xlink:href="#GuardianSansCond-Regular-111"/>
      <use x="325.299911" xlink:href="#GuardianSansCond-Regular-107"/>
      <use x="366.799896" xlink:href="#GuardianSansCond-Regular-101"/>
      <use x="409.499893" xlink:href="#GuardianSansCond-Regular-110"/>
      <use x="455.599884" xlink:href="#GuardianSansCond-Regular-32"/>
      <use x="471.399872" xlink:href="#GuardianSansCond-Regular-112"/>
      <use x="517.999863" xlink:href="#GuardianSansCond-Regular-114"/>
      <use x="546.79985" xlink:href="#GuardianSansCond-Regular-111"/>
      <use x="592.399841" xlink:href="#GuardianSansCond-Regular-98"/>
      <use x="638.999832" xlink:href="#GuardianSansCond-Regular-97"/>
      <use x="679.899826" xlink:href="#GuardianSansCond-Regular-98"/>
      <use x="726.499817" xlink:href="#GuardianSansCond-Regular-105"/>
      <use x="745.799805" xlink:href="#GuardianSansCond-Regular-108"/>
      <use x="765.099792" xlink:href="#GuardianSansCond-Regular-105"/>
      <use x="784.39978" xlink:href="#GuardianSansCond-Regular-116"/>
      <use x="813.399765" xlink:href="#GuardianSansCond-Regular-105"/>
      <use x="832.699753" xlink:href="#GuardianSansCond-Regular-101"/>
      <use x="875.39975" xlink:href="#GuardianSansCond-Regular-115"/>
     </g>
    </g>
   </g>
   <g id="matplotlib.axis_2">
    <g id="ytick_1">
     <g id="line2d_7">
      <defs>
       <path d="M 0 0 
L -3.5 0 
" id="m1d726ffb0e" style="stroke:#000000;stroke-width:0.8;"/>
      </defs>
      <g>
       <use style="stroke:#000000;stroke-width:0.8;" x="57.644375" xlink:href="#m1d726ffb0e" y="221.370594"/>
      </g>
     </g>
     <g id="text_8">
      <!-- 0.000 -->
      <g transform="translate(22.373125 225.774969)scale(0.12 -0.12)">
       <defs>
        <path d="M 6.203125 0 
L 15.40625 0 
L 15.40625 9.703125 
L 6.203125 9.703125 
z
" id="GuardianSansCond-Regular-46"/>
       </defs>
       <use xlink:href="#GuardianSansCond-Regular-48"/>
       <use x="53.499985" xlink:href="#GuardianSansCond-Regular-46"/>
       <use x="75.099976" xlink:href="#GuardianSansCond-Regular-48"/>
       <use x="128.59996" xlink:href="#GuardianSansCond-Regular-48"/>
       <use x="182.099945" xlink:href="#GuardianSansCond-Regular-48"/>
      </g>
     </g>
    </g>
    <g id="ytick_2">
     <g id="line2d_8">
      <g>
       <use style="stroke:#000000;stroke-width:0.8;" x="57.644375" xlink:href="#m1d726ffb0e" y="176.936466"/>
      </g>
     </g>
     <g id="text_9">
      <!-- 0.001 -->
      <g transform="translate(25.3375 181.340841)scale(0.12 -0.12)">
       <use xlink:href="#GuardianSansCond-Regular-48"/>
       <use x="53.499985" xlink:href="#GuardianSansCond-Regular-46"/>
       <use x="75.099976" xlink:href="#GuardianSansCond-Regular-48"/>
       <use x="128.59996" xlink:href="#GuardianSansCond-Regular-48"/>
       <use x="182.099945" xlink:href="#GuardianSansCond-Regular-49"/>
      </g>
     </g>
    </g>
    <g id="ytick_3">
     <g id="line2d_9">
      <g>
       <use style="stroke:#000000;stroke-width:0.8;" x="57.644375" xlink:href="#m1d726ffb0e" y="132.502338"/>
      </g>
     </g>
     <g id="text_10">
      <!-- 0.002 -->
      <g transform="translate(23.693125 136.906713)scale(0.12 -0.12)">
       <use xlink:href="#GuardianSansCond-Regular-48"/>
       <use x="53.499985" xlink:href="#GuardianSansCond-Regular-46"/>
       <use x="75.099976" xlink:href="#GuardianSansCond-Regular-48"/>
       <use x="128.59996" xlink:href="#GuardianSansCond-Regular-48"/>
       <use x="182.099945" xlink:href="#GuardianSansCond-Regular-50"/>
      </g>
     </g>
    </g>
    <g id="ytick_4">
     <g id="line2d_10">
      <g>
       <use style="stroke:#000000;stroke-width:0.8;" x="57.644375" xlink:href="#m1d726ffb0e" y="88.068211"/>
      </g>
     </g>
     <g id="text_11">
      <!-- 0.003 -->
      <g transform="translate(23.72875 92.472586)scale(0.12 -0.12)">
       <defs>
        <path d="M 17.09375 -1 
C 30 -1 38 6.5 38 19.5 
C 38 30.296875 33 35.203125 25.09375 36.90625 
L 25.09375 37.203125 
C 31.90625 39.296875 36.09375 43.796875 36.09375 53.203125 
C 36.09375 64 29.40625 70.296875 18.09375 70.296875 
C 12.296875 70.296875 7.59375 69.203125 4.296875 67.5 
L 4.296875 60.796875 
C 7.203125 62 10.59375 63.09375 15.59375 63.09375 
C 23.09375 63.09375 27.40625 60.40625 27.40625 51.59375 
C 27.40625 43.703125 23.09375 39.796875 15.90625 39.796875 
L 11.203125 39.796875 
L 11.203125 32.59375 
L 16.5 32.59375 
C 25 32.59375 29.203125 28.703125 29.203125 19.796875 
C 29.203125 10.09375 23.703125 6.296875 14.796875 6.296875 
C 10.09375 6.296875 5.59375 7.703125 2.296875 9.5 
L 2.296875 2.59375 
C 5.59375 0.5 10 -1 17.09375 -1 
z
" id="GuardianSansCond-Regular-51"/>
       </defs>
       <use xlink:href="#GuardianSansCond-Regular-48"/>
       <use x="53.499985" xlink:href="#GuardianSansCond-Regular-46"/>
       <use x="75.099976" xlink:href="#GuardianSansCond-Regular-48"/>
       <use x="128.59996" xlink:href="#GuardianSansCond-Regular-48"/>
       <use x="182.099945" xlink:href="#GuardianSansCond-Regular-51"/>
      </g>
     </g>
    </g>
    <g id="ytick_5">
     <g id="line2d_11">
      <g>
       <use style="stroke:#000000;stroke-width:0.8;" x="57.644375" xlink:href="#m1d726ffb0e" y="43.634083"/>
      </g>
     </g>
     <g id="text_12">
      <!-- 0.004 -->
      <g transform="translate(23.104375 48.038458)scale(0.12 -0.12)">
       <use xlink:href="#GuardianSansCond-Regular-48"/>
       <use x="53.499985" xlink:href="#GuardianSansCond-Regular-46"/>
       <use x="75.099976" xlink:href="#GuardianSansCond-Regular-48"/>
       <use x="128.59996" xlink:href="#GuardianSansCond-Regular-48"/>
       <use x="182.099945" xlink:href="#GuardianSansCond-Regular-52"/>
      </g>
     </g>
    </g>
    <g id="text_13">
     <!-- Probability -->
     <g transform="translate(16.00875 138.946875)rotate(-90)scale(0.12 -0.12)">
      <defs>
       <path d="M 6.5 0 
L 14.90625 0 
L 14.90625 27.59375 
L 24.296875 27.59375 
C 36.90625 27.59375 44.59375 35.09375 44.59375 48.703125 
C 44.59375 62.90625 37.703125 69.296875 24 69.296875 
L 6.5 69.296875 
z
M 14.90625 34.703125 
L 14.90625 62.09375 
L 23.09375 62.09375 
C 32.203125 62.09375 35.703125 58.59375 35.703125 48.40625 
C 35.703125 39 32.09375 34.703125 23 34.703125 
z
" id="GuardianSansCond-Regular-80"/>
       <path d="M 8.90625 -19.703125 
C 16.90625 -19.703125 20.40625 -15 23.203125 -5.703125 
L 40.5 51.296875 
L 32.296875 51.296875 
L 23.203125 18.703125 
C 22.203125 15.5 21.5 12.296875 21.5 12.296875 
L 21.296875 12.296875 
C 21.296875 12.296875 20.796875 14.5 19.5 18.796875 
L 9.703125 51.296875 
L 0.796875 51.296875 
L 17.5 0.203125 
L 15.90625 -4.59375 
C 14 -10.90625 11.703125 -12.90625 7.5 -12.90625 
C 6 -12.90625 4.09375 -12.703125 2.90625 -12.5 
L 2.90625 -18.296875 
C 4.40625 -19.09375 6.796875 -19.703125 8.90625 -19.703125 
z
" id="GuardianSansCond-Regular-121"/>
      </defs>
      <use xlink:href="#GuardianSansCond-Regular-80"/>
      <use x="46.999985" xlink:href="#GuardianSansCond-Regular-114"/>
      <use x="75.799973" xlink:href="#GuardianSansCond-Regular-111"/>
      <use x="121.399963" xlink:href="#GuardianSansCond-Regular-98"/>
      <use x="167.999954" xlink:href="#GuardianSansCond-Regular-97"/>
      <use x="208.899948" xlink:href="#GuardianSansCond-Regular-98"/>
      <use x="255.499939" xlink:href="#GuardianSansCond-Regular-105"/>
      <use x="274.799927" xlink:href="#GuardianSansCond-Regular-108"/>
      <use x="294.099915" xlink:href="#GuardianSansCond-Regular-105"/>
      <use x="313.399902" xlink:href="#GuardianSansCond-Regular-116"/>
      <use x="342.399887" xlink:href="#GuardianSansCond-Regular-121"/>
     </g>
    </g>
   </g>
   <g id="line2d_12">
    <path clip-path="url(#pc224603525)" d="M 72.862557 17.083636 
L 72.862557 19.438564 
L 73.776562 19.497318 
L 73.776562 19.821713 
L 74.08123 19.821713 
L 74.08123 22.404288 
L 74.385898 22.404288 
L 74.385898 26.978472 
L 74.690567 26.978472 
L 74.690567 27.689097 
L 74.995235 27.689097 
L 74.995235 27.880716 
L 75.299903 27.880716 
L 75.299903 28.030974 
L 75.604572 28.030974 
L 75.604572 28.326935 
L 75.90924 28.326935 
L 75.90924 31.539155 
L 76.213908 31.539155 
L 76.213908 31.73496 
L 76.518576 31.73496 
L 76.518576 32.965353 
L 76.823245 32.965353 
L 76.823245 33.377763 
L 77.432581 33.472212 
L 77.432581 35.195567 
L 77.73725 35.195567 
L 77.73725 35.375124 
L 78.041918 35.375124 
L 78.041918 36.978345 
L 78.651255 37.020735 
L 78.651255 37.165071 
L 78.955923 37.165071 
L 78.955923 37.580648 
L 79.260591 37.580648 
L 79.260591 38.455672 
L 79.56526 38.455672 
L 79.56526 40.094098 
L 79.869928 40.094098 
L 79.869928 42.521726 
L 80.174596 42.521726 
L 80.174596 42.7863 
L 80.479264 42.7863 
L 80.479264 43.098677 
L 80.783933 43.098677 
L 80.783933 43.844209 
L 81.088601 43.844209 
L 81.088601 44.662328 
L 81.393269 44.662328 
L 81.393269 45.0954 
L 81.697938 45.0954 
L 81.697938 47.428104 
L 82.002606 47.428104 
L 82.002606 47.568365 
L 82.307274 47.568365 
L 82.307274 49.018321 
L 82.916611 49.03151 
L 82.916611 49.868757 
L 83.221279 49.868757 
L 83.221279 51.194547 
L 83.830616 51.271717 
L 83.830616 51.555497 
L 84.135284 51.555497 
L 84.135284 52.491267 
L 84.744621 52.546482 
L 84.744621 52.68608 
L 85.049289 52.68608 
L 85.049289 53.225963 
L 85.353957 53.225963 
L 85.353957 54.29474 
L 85.658626 54.29474 
L 85.658626 54.750149 
L 86.267962 54.82014 
L 86.267962 55.105609 
L 86.572631 55.105609 
L 86.572631 57.251886 
L 86.877299 57.251886 
L 86.877299 58.572934 
L 87.181967 58.572934 
L 87.181967 58.92488 
L 87.486635 58.92488 
L 87.486635 59.335623 
L 87.791304 59.335623 
L 87.791304 59.877299 
L 88.095972 59.877299 
L 88.095972 60.992964 
L 88.40064 60.992964 
L 88.40064 62.195335 
L 88.705309 62.195335 
L 88.705309 62.929805 
L 89.009977 62.929805 
L 89.009977 63.145153 
L 89.314645 63.145153 
L 89.314645 64.08842 
L 89.619314 64.08842 
L 89.619314 64.419067 
L 89.923982 64.419067 
L 89.923982 65.032174 
L 90.22865 65.032174 
L 90.22865 65.711569 
L 90.533318 65.711569 
L 90.533318 65.845198 
L 91.142655 65.902063 
L 91.142655 66.388192 
L 91.751992 66.488778 
L 91.751992 67.30738 
L 92.05666 67.30738 
L 92.05666 67.519776 
L 92.361328 67.519776 
L 92.361328 67.647345 
L 92.665997 67.647345 
L 92.665997 67.784464 
L 92.970665 67.784464 
L 92.970665 68.619218 
L 93.275333 68.619218 
L 93.275333 69.207745 
L 93.580002 69.207745 
L 93.580002 71.401308 
L 93.88467 71.401308 
L 93.88467 71.637583 
L 94.189338 71.637583 
L 94.189338 73.550937 
L 94.494006 73.550937 
L 94.494006 74.318661 
L 94.798675 74.318661 
L 94.798675 74.544757 
L 95.103343 74.544757 
L 95.103343 77.234069 
L 95.408011 77.234069 
L 95.408011 77.574454 
L 95.71268 77.574454 
L 95.71268 78.788849 
L 96.322016 78.812107 
L 96.322016 81.617319 
L 96.626685 81.617319 
L 96.626685 82.079762 
L 96.931353 82.079762 
L 96.931353 83.583408 
L 97.236021 83.583408 
L 97.236021 83.982463 
L 97.540689 83.982463 
L 97.540689 84.158957 
L 97.845358 84.158957 
L 97.845358 86.149461 
L 98.150026 86.149461 
L 98.150026 88.572706 
L 98.454694 88.572706 
L 98.454694 89.203622 
L 98.759363 89.203622 
L 98.759363 89.468622 
L 99.368699 89.576348 
L 99.368699 90.576349 
L 99.978036 90.658925 
L 99.978036 92.342195 
L 100.282704 92.342195 
L 100.282704 95.438625 
L 100.587373 95.438625 
L 100.587373 96.001444 
L 100.892041 96.001444 
L 100.892041 96.902146 
L 101.196709 96.902146 
L 101.196709 97.40561 
L 101.501377 97.40561 
L 101.501377 98.539941 
L 101.806046 98.539941 
L 101.806046 98.871357 
L 102.110714 98.871357 
L 102.110714 99.107011 
L 102.415382 99.107011 
L 102.415382 99.859191 
L 102.720051 99.859191 
L 102.720051 101.712441 
L 103.024719 101.712441 
L 103.024719 102.6224 
L 103.329387 102.6224 
L 103.329387 103.752466 
L 103.634056 103.752466 
L 103.634056 104.960614 
L 103.938724 104.960614 
L 103.938724 105.391199 
L 104.243392 105.391199 
L 104.243392 107.209889 
L 104.548061 107.209889 
L 104.548061 107.362402 
L 104.852729 107.362402 
L 104.852729 107.995156 
L 105.157397 107.995156 
L 105.157397 108.575512 
L 105.766734 108.616821 
L 105.766734 109.339108 
L 106.37607 109.373624 
L 106.37607 110.120895 
L 106.680739 110.120895 
L 106.680739 110.638093 
L 106.985407 110.638093 
L 106.985407 111.424619 
L 107.290075 111.424619 
L 107.290075 111.709153 
L 107.594744 111.709153 
L 107.594744 112.778971 
L 107.899412 112.778971 
L 107.899412 114.860779 
L 108.508748 114.88809 
L 108.508748 117.28386 
L 108.813417 117.28386 
L 108.813417 117.481681 
L 109.118085 117.481681 
L 109.118085 118.324093 
L 109.422753 118.324093 
L 109.422753 118.495626 
L 109.727422 118.495626 
L 109.727422 118.789369 
L 110.641427 118.883641 
L 110.641427 119.844827 
L 110.946095 119.844827 
L 110.946095 120.006777 
L 111.250763 120.006777 
L 111.250763 120.349877 
L 111.8601 120.394935 
L 111.8601 120.490313 
L 112.164768 120.490313 
L 112.164768 120.860476 
L 112.774105 120.888301 
L 112.774105 122.024742 
L 113.078773 122.024742 
L 113.078773 122.290688 
L 113.383441 122.290688 
L 113.383441 123.83979 
L 113.68811 123.83979 
L 113.68811 124.023063 
L 113.992778 124.023063 
L 113.992778 124.198257 
L 114.297446 124.198257 
L 114.297446 125.101038 
L 114.602115 125.101038 
L 114.602115 125.321911 
L 114.906783 125.321911 
L 114.906783 125.655856 
L 115.516119 125.730166 
L 115.516119 126.571609 
L 115.820788 126.571609 
L 115.820788 127.836852 
L 116.430124 127.851204 
L 116.430124 128.070779 
L 116.734793 128.070779 
L 116.734793 128.408357 
L 117.039461 128.408357 
L 117.039461 128.549517 
L 117.344129 128.549517 
L 117.344129 129.327868 
L 117.953466 129.340006 
L 117.953466 129.704847 
L 118.258134 129.704847 
L 118.258134 130.346419 
L 118.562803 130.346419 
L 118.562803 130.996365 
L 119.476807 131.103153 
L 119.476807 131.807823 
L 119.781476 131.807823 
L 119.781476 132.584546 
L 120.086144 132.584546 
L 120.086144 133.909251 
L 120.390812 133.909251 
L 120.390812 135.970805 
L 120.695481 135.970805 
L 120.695481 136.083603 
L 121.609486 136.156964 
L 121.609486 136.522588 
L 122.218822 136.577125 
L 122.218822 137.567175 
L 122.52349 137.567175 
L 122.52349 137.899062 
L 122.828159 137.899062 
L 122.828159 138.084166 
L 123.132827 138.084166 
L 123.132827 138.658681 
L 123.437495 138.658681 
L 123.437495 139.12779 
L 123.742164 139.12779 
L 123.742164 139.495479 
L 124.046832 139.495479 
L 124.046832 139.662789 
L 124.3515 139.662789 
L 124.3515 140.063198 
L 124.960837 140.128435 
L 124.960837 140.990228 
L 125.265505 140.990228 
L 125.265505 141.166967 
L 125.570174 141.166967 
L 125.570174 141.659492 
L 125.874842 141.659492 
L 125.874842 141.853106 
L 126.17951 141.853106 
L 126.17951 142.406067 
L 126.484178 142.406067 
L 126.484178 143.225904 
L 127.093515 143.254167 
L 127.093515 143.567786 
L 127.398183 143.567786 
L 127.398183 143.88159 
L 128.00752 143.965519 
L 128.00752 144.540034 
L 128.312188 144.540034 
L 128.312188 144.742069 
L 128.616857 144.742069 
L 128.616857 145.487456 
L 129.226193 145.545976 
L 129.226193 146.000324 
L 129.530861 146.000324 
L 129.530861 146.354306 
L 130.140198 146.446673 
L 130.140198 147.145174 
L 130.749535 147.149991 
L 130.749535 147.295182 
L 131.054203 147.295182 
L 131.054203 147.544516 
L 131.358871 147.544516 
L 131.358871 147.717017 
L 131.968208 147.729949 
L 131.968208 148.008914 
L 132.272876 148.008914 
L 132.272876 148.402784 
L 132.577545 148.402784 
L 132.577545 148.644703 
L 132.882213 148.644703 
L 132.882213 148.928523 
L 133.186881 148.928523 
L 133.186881 149.099981 
L 133.796218 149.112057 
L 133.796218 149.215145 
L 134.100886 149.215145 
L 134.100886 149.431457 
L 134.405554 149.431457 
L 134.405554 149.610369 
L 135.014891 149.701292 
L 135.014891 149.731706 
L 135.319559 149.731706 
L 135.319559 151.538992 
L 135.624228 151.538992 
L 135.624228 151.687277 
L 135.928896 151.687277 
L 135.928896 151.881947 
L 136.233564 151.881947 
L 136.233564 152.159577 
L 136.538232 152.159577 
L 136.538232 152.299705 
L 137.452237 152.37986 
L 137.452237 152.924641 
L 137.756906 152.924641 
L 137.756906 153.567057 
L 138.061574 153.567057 
L 138.061574 153.710488 
L 138.670911 153.725626 
L 138.670911 153.90068 
L 138.975579 153.90068 
L 138.975579 154.220275 
L 139.280247 154.220275 
L 139.280247 154.564271 
L 139.584916 154.564271 
L 139.584916 155.206482 
L 140.194252 155.231211 
L 140.194252 155.326965 
L 140.49892 155.326965 
L 140.49892 155.575869 
L 140.803589 155.575869 
L 140.803589 155.899163 
L 141.108257 155.899163 
L 141.108257 156.217395 
L 141.412925 156.217395 
L 141.412925 156.651729 
L 142.022262 156.70451 
L 142.022262 157.076883 
L 142.32693 157.076883 
L 142.32693 157.308567 
L 142.631599 157.308567 
L 142.631599 157.608732 
L 142.936267 157.608732 
L 142.936267 157.938404 
L 143.240935 157.938404 
L 143.240935 158.583801 
L 143.545604 158.583801 
L 143.545604 158.930183 
L 143.850272 158.930183 
L 143.850272 159.127932 
L 144.459608 159.157489 
L 144.459608 159.58457 
L 145.068945 159.585847 
L 145.068945 159.731774 
L 145.98295 159.801781 
L 145.98295 160.157337 
L 146.896955 160.243189 
L 146.896955 160.297473 
L 147.201623 160.297473 
L 147.201623 160.41705 
L 147.506291 160.41705 
L 147.506291 160.72245 
L 148.115628 160.777252 
L 148.115628 160.86976 
L 148.420296 160.86976 
L 148.420296 161.248709 
L 148.724965 161.248709 
L 148.724965 161.438371 
L 149.334301 161.454703 
L 149.334301 161.65233 
L 149.943638 161.655553 
L 149.943638 161.828231 
L 150.248306 161.828231 
L 150.248306 162.004862 
L 150.552975 162.004862 
L 150.552975 162.47117 
L 151.162311 162.554535 
L 151.162311 162.587539 
L 151.771648 162.686653 
L 151.771648 162.749697 
L 152.380984 162.857839 
L 152.380984 162.941939 
L 152.685653 162.941939 
L 152.685653 163.179259 
L 153.599658 163.231515 
L 153.599658 163.431105 
L 153.904326 163.431105 
L 153.904326 163.654509 
L 154.208994 163.654509 
L 154.208994 163.894838 
L 154.513662 163.894838 
L 154.513662 164.45572 
L 154.818331 164.45572 
L 154.818331 164.830937 
L 155.122999 164.830937 
L 155.122999 164.963227 
L 155.732336 164.96404 
L 155.732336 165.493414 
L 156.037004 165.493414 
L 156.037004 165.822009 
L 156.646341 165.895738 
L 156.646341 166.132358 
L 157.255677 166.153919 
L 157.255677 166.474218 
L 157.865014 166.575997 
L 157.865014 166.71217 
L 158.169682 166.71217 
L 158.169682 167.055958 
L 158.47435 167.055958 
L 158.47435 167.279748 
L 158.779019 167.279748 
L 158.779019 167.441789 
L 159.083687 167.441789 
L 159.083687 167.803688 
L 159.388355 167.803688 
L 159.388355 168.139932 
L 159.693024 168.139932 
L 159.693024 168.522065 
L 159.997692 168.522065 
L 159.997692 168.718052 
L 160.30236 168.718052 
L 160.30236 169.45704 
L 160.607029 169.45704 
L 160.607029 169.646936 
L 160.911697 169.646936 
L 160.911697 170.201124 
L 161.216365 170.201124 
L 161.216365 170.822841 
L 161.825702 170.908214 
L 161.825702 171.420569 
L 162.739707 171.501973 
L 162.739707 171.63521 
L 163.044375 171.63521 
L 163.044375 172.10609 
L 163.349043 172.10609 
L 163.349043 173.004795 
L 163.95838 173.031512 
L 163.95838 173.229974 
L 164.567717 173.282129 
L 164.567717 173.439835 
L 164.872385 173.439835 
L 164.872385 173.629465 
L 165.177053 173.629465 
L 165.177053 173.789558 
L 165.78639 173.895723 
L 165.78639 174.046496 
L 166.700395 174.127601 
L 166.700395 174.257209 
L 167.309731 174.286372 
L 167.309731 174.56174 
L 168.223736 174.604596 
L 168.223736 174.814995 
L 168.833073 174.826861 
L 168.833073 175.503837 
L 169.747078 175.585368 
L 169.747078 175.731381 
L 170.051746 175.731381 
L 170.051746 175.84878 
L 170.356414 175.84878 
L 170.356414 176.305792 
L 170.965751 176.346099 
L 170.965751 176.757594 
L 171.879756 176.836478 
L 171.879756 176.913269 
L 172.184424 176.913269 
L 172.184424 177.260767 
L 172.793761 177.305907 
L 172.793761 177.524143 
L 173.098429 177.524143 
L 173.098429 177.65322 
L 173.403097 177.65322 
L 173.403097 177.916089 
L 173.707766 177.916089 
L 173.707766 178.337596 
L 174.012434 178.337596 
L 174.012434 178.717816 
L 174.317102 178.717816 
L 174.317102 178.962308 
L 174.621771 178.962308 
L 174.621771 179.107709 
L 175.231107 179.201252 
L 175.231107 179.220048 
L 175.840444 179.298019 
L 175.840444 179.464161 
L 176.145112 179.464161 
L 176.145112 179.688253 
L 177.059117 179.76013 
L 177.059117 180.026146 
L 177.973122 180.0462 
L 177.973122 180.510311 
L 178.582459 180.535893 
L 178.582459 180.873679 
L 178.887127 180.873679 
L 178.887127 181.310538 
L 179.191795 181.310538 
L 179.191795 181.541168 
L 179.801132 181.606656 
L 179.801132 181.690273 
L 180.1058 181.690273 
L 180.1058 182.024609 
L 180.410468 182.024609 
L 180.410468 182.570349 
L 181.019805 182.674205 
L 181.019805 182.800316 
L 181.324473 182.800316 
L 181.324473 183.233642 
L 181.93381 183.312983 
L 181.93381 183.376295 
L 182.543146 183.438189 
L 182.543146 183.756013 
L 182.847815 183.756013 
L 182.847815 184.262282 
L 183.457151 184.369964 
L 183.457151 184.401532 
L 184.066488 184.509316 
L 184.066488 184.526051 
L 184.675825 184.606765 
L 184.675825 184.671275 
L 184.980493 184.671275 
L 184.980493 184.84943 
L 185.285161 184.84943 
L 185.285161 185.055865 
L 186.199166 185.126846 
L 186.199166 185.645925 
L 187.113171 185.722796 
L 187.113171 186.03981 
L 187.722508 186.075409 
L 187.722508 186.21274 
L 188.331844 186.270608 
L 188.331844 186.342676 
L 188.636513 186.342676 
L 188.636513 186.462484 
L 188.941181 186.462484 
L 188.941181 187.115872 
L 189.550518 187.194335 
L 189.550518 187.502253 
L 189.855186 187.502253 
L 189.855186 187.648727 
L 190.159854 187.648727 
L 190.159854 187.920295 
L 190.769191 187.976299 
L 190.769191 188.166961 
L 191.683196 188.25637 
L 191.683196 188.448651 
L 192.292532 188.557875 
L 192.292532 188.570364 
L 193.206537 188.640391 
L 193.206537 189.035873 
L 194.42521 189.138971 
L 194.42521 189.157608 
L 194.729879 189.157608 
L 194.729879 189.483175 
L 195.034547 189.483175 
L 195.034547 189.628689 
L 195.339215 189.628689 
L 195.339215 189.856903 
L 195.643884 189.856903 
L 195.643884 189.977498 
L 196.25322 190.031002 
L 196.25322 190.153773 
L 196.862557 190.159542 
L 196.862557 190.325707 
L 197.776562 190.423353 
L 197.776562 190.600141 
L 198.385898 190.643743 
L 198.385898 191.134847 
L 198.690567 191.134847 
L 198.690567 191.246156 
L 199.604572 191.345402 
L 199.604572 191.472502 
L 199.90924 191.472502 
L 199.90924 191.769246 
L 201.127913 191.876767 
L 201.127913 192.064552 
L 201.432581 192.064552 
L 201.432581 192.196294 
L 201.73725 192.196294 
L 201.73725 192.391114 
L 202.346586 192.49285 
L 202.346586 192.735949 
L 203.260591 192.823554 
L 203.260591 192.862157 
L 203.56526 192.862157 
L 203.56526 193.121199 
L 204.174596 193.1388 
L 204.174596 193.287977 
L 205.393269 193.372402 
L 205.393269 193.404702 
L 206.307274 193.501361 
L 206.307274 193.556198 
L 206.916611 193.634331 
L 206.916611 193.721699 
L 207.221279 193.721699 
L 207.221279 193.849547 
L 208.135284 193.92696 
L 208.135284 194.081482 
L 208.439952 194.081482 
L 208.439952 194.203854 
L 209.353957 194.274928 
L 209.353957 194.614067 
L 210.572631 194.717321 
L 210.572631 194.78427 
L 211.791304 194.88423 
L 211.791304 194.898342 
L 213.314645 194.97362 
L 213.314645 195.012285 
L 213.923982 195.038066 
L 213.923982 195.124793 
L 214.22865 195.124793 
L 214.22865 195.274739 
L 215.447323 195.385445 
L 215.447323 195.390721 
L 216.361328 195.46325 
L 216.361328 195.561232 
L 216.970665 195.645375 
L 216.970665 195.701414 
L 217.88467 195.74287 
L 217.88467 195.818479 
L 218.798675 195.91908 
L 218.798675 195.996926 
L 219.408011 196.036097 
L 219.408011 196.341349 
L 220.017348 196.389173 
L 220.017348 196.470737 
L 221.540689 196.576507 
L 221.540689 196.641446 
L 221.845358 196.641446 
L 221.845358 196.795429 
L 222.454694 196.838211 
L 222.454694 196.962688 
L 223.064031 197.021248 
L 223.064031 197.098893 
L 223.368699 197.098893 
L 223.368699 197.292112 
L 224.282704 197.372785 
L 224.282704 197.548347 
L 224.587373 197.548347 
L 224.587373 197.730107 
L 225.196709 197.758863 
L 225.196709 197.842744 
L 226.110714 197.952975 
L 226.110714 197.962278 
L 226.720051 198.021125 
L 226.720051 198.073721 
L 227.938724 198.119486 
L 227.938724 198.20309 
L 228.548061 198.229287 
L 228.548061 198.364793 
L 229.157397 198.408694 
L 229.157397 198.532488 
L 229.462065 198.532488 
L 229.462065 198.800322 
L 229.766734 198.800322 
L 229.766734 199.021405 
L 231.899412 199.113117 
L 231.899412 199.201113 
L 233.118085 199.231905 
L 233.118085 199.455992 
L 234.336758 199.557718 
L 234.336758 199.594718 
L 234.641427 199.594718 
L 234.641427 199.743521 
L 235.250763 199.781104 
L 235.250763 199.918348 
L 236.469436 199.98843 
L 236.469436 200.224884 
L 237.078773 200.267578 
L 237.078773 200.388035 
L 237.68811 200.438249 
L 237.68811 200.561885 
L 238.602115 200.641839 
L 238.602115 200.684437 
L 239.211451 200.787049 
L 239.211451 200.83414 
L 239.516119 200.83414 
L 239.516119 200.977112 
L 240.430124 201.079107 
L 240.430124 201.250876 
L 241.039461 201.270952 
L 241.039461 201.38788 
L 242.258134 201.426069 
L 242.258134 201.509816 
L 243.476807 201.595211 
L 243.476807 201.67189 
L 244.695481 201.729074 
L 244.695481 201.891299 
L 245.609486 201.945929 
L 245.609486 202.14426 
L 247.132827 202.224545 
L 247.132827 202.258726 
L 248.046832 202.36922 
L 248.046832 202.452305 
L 248.960837 202.56113 
L 248.960837 202.751748 
L 249.570174 202.79352 
L 249.570174 202.879258 
L 250.17951 202.897674 
L 250.17951 203.024202 
L 251.093515 203.091448 
L 251.093515 203.406122 
L 252.312188 203.500158 
L 252.312188 203.530305 
L 253.226193 203.614726 
L 253.226193 203.664694 
L 254.749535 203.7577 
L 254.749535 203.803916 
L 255.358871 203.853335 
L 255.358871 203.980747 
L 256.577545 204.090749 
L 256.577545 204.128538 
L 257.491549 204.185968 
L 257.491549 204.30413 
L 258.405554 204.410285 
L 258.405554 204.440458 
L 259.014891 204.529226 
L 259.014891 204.555659 
L 259.928896 204.645167 
L 259.928896 204.682078 
L 261.756906 204.76965 
L 261.756906 204.801097 
L 262.670911 204.866444 
L 262.670911 204.963544 
L 263.889584 205.061766 
L 263.889584 205.097004 
L 264.803589 205.198398 
L 264.803589 205.296163 
L 265.717594 205.396429 
L 265.717594 205.534728 
L 266.631599 205.629588 
L 266.631599 205.679253 
L 267.240935 205.713504 
L 267.240935 205.812794 
L 268.15494 205.902733 
L 268.15494 205.961963 
L 269.068945 205.98252 
L 269.068945 206.113575 
L 271.201623 206.219315 
L 271.201623 206.227582 
L 273.029633 206.280947 
L 273.029633 206.398737 
L 273.63897 206.494605 
L 273.63897 206.53787 
L 274.248306 206.637082 
L 274.248306 206.674378 
L 274.552975 206.674378 
L 274.552975 206.814908 
L 274.857643 206.814908 
L 274.857643 206.942421 
L 275.466979 206.976701 
L 275.466979 207.055356 
L 276.685653 207.147663 
L 276.685653 207.18395 
L 278.208994 207.21092 
L 278.208994 207.309371 
L 279.427667 207.398301 
L 279.427667 207.445738 
L 280.951009 207.544395 
L 280.951009 207.598606 
L 282.169682 207.707761 
L 282.169682 207.787639 
L 282.47435 207.787639 
L 282.47435 207.917574 
L 282.779019 207.917574 
L 282.779019 208.032758 
L 283.388355 208.067599 
L 283.388355 208.150175 
L 284.607029 208.254523 
L 284.607029 208.315888 
L 285.825702 208.407202 
L 285.825702 208.436806 
L 287.653712 208.544886 
L 287.653712 208.554218 
L 289.177053 208.654532 
L 289.177053 208.671898 
L 289.78639 208.771573 
L 289.78639 208.854112 
L 291.005063 208.950873 
L 291.005063 208.998234 
L 292.223736 209.083098 
L 292.223736 209.117269 
L 293.442409 209.216664 
L 293.442409 209.251033 
L 294.356414 209.345081 
L 294.356414 209.366402 
L 295.575088 209.469369 
L 295.575088 209.490662 
L 297.403097 209.584509 
L 297.403097 209.643765 
L 298.317102 209.708577 
L 298.317102 209.798253 
L 299.840444 209.878279 
L 299.840444 209.911136 
L 300.754449 209.961298 
L 300.754449 210.047261 
L 301.363785 210.074391 
L 301.363785 210.191684 
L 304.1058 210.292785 
L 304.1058 210.335523 
L 305.93381 210.44509 
L 305.93381 210.447032 
L 307.457151 210.547411 
L 307.457151 210.587394 
L 308.066488 210.621656 
L 308.066488 210.698734 
L 309.285161 210.79176 
L 309.285161 210.826376 
L 311.417839 210.918252 
L 311.417839 210.968847 
L 312.331844 211.054902 
L 312.331844 211.151524 
L 313.550518 211.258554 
L 313.550518 211.268329 
L 316.597201 211.364665 
L 316.597201 211.386232 
L 318.729879 211.473373 
L 318.729879 211.537296 
L 319.948552 211.642168 
L 319.948552 211.666859 
L 321.471893 211.770998 
L 321.471893 211.796359 
L 322.08123 211.854747 
L 322.08123 211.92518 
L 323.604572 212.034657 
L 323.604572 212.1018 
L 325.73725 212.185407 
L 325.73725 212.217544 
L 328.783933 212.32074 
L 328.783933 212.34745 
L 331.221279 212.446456 
L 331.221279 212.471346 
L 332.135284 212.580492 
L 332.135284 212.583029 
L 334.572631 212.692555 
L 334.572631 212.737191 
L 336.40064 212.834499 
L 336.40064 212.851172 
L 339.142655 212.947914 
L 339.142655 213.024304 
L 341.275333 213.13441 
L 341.275333 213.136064 
L 343.71268 213.228745 
L 343.71268 213.255399 
L 347.064031 213.364337 
L 347.064031 213.372588 
L 350.415382 213.480432 
L 350.415382 213.497501 
L 351.938724 213.563913 
L 351.938724 213.613337 
L 355.290075 213.716303 
L 355.290075 213.730575 
L 359.250763 213.83426 
L 359.250763 213.854239 
L 361.078773 213.947089 
L 361.078773 213.976098 
L 363.516119 214.052722 
L 363.516119 214.097425 
L 365.344129 214.198328 
L 365.344129 214.22816 
L 368.695481 214.318094 
L 368.695481 214.343338 
L 370.828159 214.44691 
L 370.828159 214.470176 
L 373.874842 214.570362 
L 373.874842 214.58437 
L 376.00752 214.692592 
L 376.00752 214.696009 
L 377.226193 214.756364 
L 377.226193 214.756364 
" style="fill:none;stroke:#0071bc;stroke-linecap:square;stroke-width:1.5;"/>
   </g>
   <g id="line2d_13">
    <path clip-path="url(#pc224603525)" d="M 72.862557 113.739316 
L 72.862557 114.361477 
L 74.08123 114.463045 
L 74.08123 115.150191 
L 74.385898 115.150191 
L 74.385898 116.37828 
L 74.690567 116.37828 
L 74.690567 116.570362 
L 75.604572 116.662897 
L 75.604572 116.74307 
L 75.90924 116.74307 
L 75.90924 117.617216 
L 76.518576 117.670739 
L 76.518576 118.007699 
L 76.823245 118.007699 
L 76.823245 118.120889 
L 77.432581 118.146829 
L 77.432581 118.62129 
L 78.041918 118.67085 
L 78.041918 119.114428 
L 78.955923 119.166216 
L 78.955923 119.28157 
L 79.260591 119.28157 
L 79.260591 119.524883 
L 79.56526 119.524883 
L 79.56526 119.982041 
L 79.869928 119.982041 
L 79.869928 120.66322 
L 80.479264 120.737736 
L 80.479264 120.825787 
L 80.783933 120.825787 
L 80.783933 121.036247 
L 81.088601 121.036247 
L 81.088601 121.267706 
L 81.393269 121.267706 
L 81.393269 121.390446 
L 81.697938 121.390446 
L 81.697938 122.054183 
L 82.307274 122.094234 
L 82.307274 122.509211 
L 82.916611 122.512993 
L 82.916611 122.753417 
L 83.221279 122.753417 
L 83.221279 123.135336 
L 84.135284 123.239571 
L 84.135284 123.510321 
L 85.049289 123.566782 
L 85.049289 123.72342 
L 85.353957 123.72342 
L 85.353957 124.034252 
L 85.658626 124.034252 
L 85.658626 124.167 
L 86.572631 124.27074 
L 86.572631 124.899496 
L 86.877299 124.899496 
L 86.877299 125.288545 
L 87.486635 125.392459 
L 87.486635 125.513876 
L 87.791304 125.513876 
L 87.791304 125.674233 
L 88.095972 125.674233 
L 88.095972 126.005362 
L 88.40064 126.005362 
L 88.40064 126.363516 
L 88.705309 126.363516 
L 88.705309 126.582962 
L 89.314645 126.6474 
L 89.314645 126.93017 
L 89.923982 127.029491 
L 89.923982 127.213936 
L 90.22865 127.213936 
L 90.22865 127.418746 
L 91.142655 127.476252 
L 91.142655 127.623164 
L 91.751992 127.653591 
L 91.751992 127.901582 
L 92.665997 128.004766 
L 92.665997 128.046416 
L 92.970665 128.046416 
L 92.970665 128.300374 
L 93.275333 128.300374 
L 93.275333 128.479839 
L 93.580002 128.479839 
L 93.580002 129.151821 
L 94.189338 129.224495 
L 94.189338 129.815129 
L 94.494006 129.815129 
L 94.494006 130.053192 
L 95.103343 130.123421 
L 95.103343 130.96294 
L 95.71268 131.069754 
L 95.71268 131.451869 
L 96.322016 131.459203 
L 96.322016 132.34822 
L 96.626685 132.34822 
L 96.626685 132.495629 
L 96.931353 132.495629 
L 96.931353 132.976634 
L 97.236021 132.976634 
L 97.236021 133.104728 
L 97.845358 133.161442 
L 97.845358 133.803596 
L 98.150026 133.803596 
L 98.150026 134.59177 
L 98.454694 134.59177 
L 98.454694 134.798156 
L 99.064031 134.884991 
L 99.064031 134.920315 
L 99.368699 134.920315 
L 99.368699 135.248914 
L 99.978036 135.276104 
L 99.978036 135.832252 
L 100.282704 135.832252 
L 100.282704 136.864861 
L 100.587373 136.864861 
L 100.587373 137.05391 
L 100.892041 137.05391 
L 100.892041 137.357339 
L 101.196709 137.357339 
L 101.196709 137.527424 
L 101.501377 137.527424 
L 101.501377 137.911906 
L 101.806046 137.911906 
L 101.806046 138.024574 
L 102.415382 138.104779 
L 102.415382 138.361305 
L 102.720051 138.361305 
L 102.720051 138.996752 
L 103.024719 138.996752 
L 103.024719 139.310562 
L 103.329387 139.310562 
L 103.329387 139.701957 
L 103.634056 139.701957 
L 103.634056 140.122481 
L 103.938724 140.122481 
L 103.938724 140.272883 
L 104.243392 140.272883 
L 104.243392 140.911248 
L 104.852729 140.965011 
L 104.852729 141.18845 
L 105.157397 141.18845 
L 105.157397 141.393935 
L 105.766734 141.408581 
L 105.766734 141.665106 
L 106.37607 141.677385 
L 106.37607 141.943697 
L 106.680739 141.943697 
L 106.680739 142.128539 
L 106.985407 142.128539 
L 106.985407 142.410466 
L 107.594744 142.512705 
L 107.594744 142.898302 
L 107.899412 142.898302 
L 107.899412 143.654137 
L 108.508748 143.664102 
L 108.508748 144.543242 
L 109.118085 144.616283 
L 109.118085 144.928108 
L 109.727422 144.991758 
L 109.727422 145.10088 
L 110.641427 145.135934 
L 110.641427 145.494264 
L 111.250763 145.554806 
L 111.250763 145.683227 
L 112.164768 145.735854 
L 112.164768 145.874746 
L 112.774105 145.885197 
L 112.774105 146.313275 
L 113.383441 146.413806 
L 113.383441 147.002084 
L 113.992778 147.071991 
L 113.992778 147.138878 
L 114.297446 147.138878 
L 114.297446 147.484508 
L 114.906783 147.569316 
L 114.906783 147.697725 
L 115.516119 147.726329 
L 115.516119 148.051005 
L 115.820788 148.051005 
L 115.820788 148.541932 
L 116.734793 148.633061 
L 116.734793 148.76477 
L 117.344129 148.819916 
L 117.344129 149.124743 
L 117.953466 149.129507 
L 117.953466 149.272843 
L 118.258134 149.272843 
L 118.258134 149.525594 
L 118.562803 149.525594 
L 118.562803 149.782553 
L 119.476807 149.82486 
L 119.476807 150.104667 
L 119.781476 150.104667 
L 119.781476 150.414363 
L 120.086144 150.414363 
L 120.086144 150.945693 
L 120.390812 150.945693 
L 120.390812 151.780636 
L 121.609486 151.856525 
L 121.609486 152.005817 
L 122.218822 152.028113 
L 122.218822 152.434123 
L 122.52349 152.434123 
L 122.52349 152.570763 
L 123.132827 152.64709 
L 123.132827 152.88453 
L 123.437495 152.88453 
L 123.437495 153.079019 
L 123.742164 153.079019 
L 123.742164 153.231848 
L 124.3515 153.301504 
L 124.3515 153.468494 
L 124.960837 153.49574 
L 124.960837 153.856699 
L 125.570174 153.930964 
L 125.570174 154.138354 
L 126.17951 154.220055 
L 126.17951 154.453943 
L 126.484178 154.453943 
L 126.484178 154.802225 
L 127.093515 154.814265 
L 127.093515 154.948003 
L 127.398183 154.948003 
L 127.398183 155.08209 
L 128.00752 155.117999 
L 128.00752 155.364327 
L 128.616857 155.451169 
L 128.616857 155.772561 
L 129.226193 155.79786 
L 129.226193 155.994614 
L 129.530861 155.994614 
L 129.530861 156.148316 
L 130.140198 156.188482 
L 130.140198 156.493034 
L 131.054203 156.558625 
L 131.054203 156.667794 
L 131.968208 156.749104 
L 131.968208 156.871619 
L 132.272876 156.871619 
L 132.272876 157.044996 
L 132.882213 157.151718 
L 132.882213 157.27715 
L 133.796218 157.358393 
L 133.796218 157.404071 
L 134.405554 157.500025 
L 134.405554 157.579497 
L 135.319559 157.633451 
L 135.319559 158.442558 
L 135.928896 158.509406 
L 135.928896 158.597273 
L 136.233564 158.597273 
L 136.233564 158.722799 
L 137.452237 158.822575 
L 137.452237 159.070018 
L 137.756906 159.070018 
L 137.756906 159.363076 
L 138.670911 159.435625 
L 138.670911 159.515816 
L 138.975579 159.515816 
L 138.975579 159.662488 
L 139.280247 159.662488 
L 139.280247 159.820749 
L 139.584916 159.820749 
L 139.584916 160.117304 
L 140.49892 160.1731 
L 140.49892 160.288529 
L 140.803589 160.288529 
L 140.803589 160.438782 
L 141.108257 160.438782 
L 141.108257 160.587046 
L 141.412925 160.587046 
L 141.412925 160.789987 
L 142.022262 160.814695 
L 142.022262 160.989299 
L 142.631599 161.09819 
L 142.631599 161.23956 
L 142.936267 161.23956 
L 142.936267 161.395211 
L 143.240935 161.395211 
L 143.240935 161.701104 
L 143.545604 161.701104 
L 143.545604 161.865924 
L 144.459608 161.974332 
L 144.459608 162.178555 
L 145.98295 162.282692 
L 145.98295 162.453554 
L 147.201623 162.521032 
L 147.201623 162.578672 
L 147.506291 162.578672 
L 147.506291 162.726142 
L 148.420296 162.797406 
L 148.420296 162.981132 
L 149.334301 163.081247 
L 149.334301 163.177458 
L 150.248306 163.263225 
L 150.248306 163.349477 
L 150.552975 163.349477 
L 150.552975 163.577799 
L 151.771648 163.683613 
L 151.771648 163.714608 
L 152.685653 163.809224 
L 152.685653 163.926242 
L 153.599658 163.95204 
L 153.599658 164.050683 
L 154.208994 164.161297 
L 154.208994 164.280531 
L 154.513662 164.280531 
L 154.513662 164.559773 
L 154.818331 164.559773 
L 154.818331 164.747348 
L 155.732336 164.814037 
L 155.732336 165.080054 
L 156.037004 165.080054 
L 156.037004 165.245811 
L 156.646341 165.28307 
L 156.646341 165.402814 
L 157.255677 165.413738 
L 157.255677 165.576271 
L 157.865014 165.628017 
L 157.865014 165.697324 
L 158.169682 165.697324 
L 158.169682 165.872686 
L 158.47435 165.872686 
L 158.47435 165.987137 
L 159.083687 166.070155 
L 159.083687 166.25602 
L 159.388355 166.25602 
L 159.388355 166.429271 
L 159.693024 166.429271 
L 159.693024 166.626833 
L 160.30236 166.728436 
L 160.30236 167.113247 
L 160.911697 167.212572 
L 160.911697 167.503489 
L 161.216365 167.503489 
L 161.216365 167.831736 
L 161.825702 167.876968 
L 161.825702 168.149227 
L 162.739707 168.192612 
L 162.739707 168.263698 
L 163.044375 168.263698 
L 163.044375 168.515697 
L 163.349043 168.515697 
L 163.349043 169.000017 
L 163.95838 169.014484 
L 163.95838 169.122071 
L 164.567717 169.150381 
L 164.567717 169.23608 
L 165.177053 169.339313 
L 165.177053 169.426626 
L 165.78639 169.484608 
L 165.78639 169.567065 
L 166.700395 169.611475 
L 166.700395 169.682522 
L 167.309731 169.698522 
L 167.309731 169.849844 
L 168.223736 169.873434 
L 168.223736 169.989407 
L 168.833073 169.995955 
L 168.833073 170.370944 
L 169.747078 170.416292 
L 169.747078 170.497606 
L 170.356414 170.563079 
L 170.356414 170.818761 
L 170.965751 170.841373 
L 170.965751 171.072806 
L 172.184424 171.160638 
L 172.184424 171.357254 
L 172.793761 171.382852 
L 172.793761 171.506791 
L 173.403097 171.58024 
L 173.403097 171.730159 
L 173.707766 171.730159 
L 173.707766 171.971501 
L 174.012434 171.971501 
L 174.012434 172.190219 
L 174.317102 172.190219 
L 174.317102 172.331376 
L 174.926439 172.415516 
L 174.926439 172.469724 
L 175.840444 172.525863 
L 175.840444 172.622401 
L 176.145112 172.622401 
L 176.145112 172.752914 
L 177.059117 172.79485 
L 177.059117 172.950372 
L 177.973122 172.962117 
L 177.973122 173.23472 
L 178.582459 173.249791 
L 178.582459 173.449233 
L 178.887127 173.449233 
L 178.887127 173.708409 
L 179.191795 173.708409 
L 179.191795 173.845805 
L 180.1058 173.934845 
L 180.1058 174.135108 
L 180.410468 174.135108 
L 180.410468 174.463837 
L 181.019805 174.526656 
L 181.019805 174.60305 
L 181.324473 174.60305 
L 181.324473 174.866503 
L 182.238478 174.953559 
L 182.238478 174.991382 
L 182.543146 174.991382 
L 182.543146 175.186089 
L 182.847815 175.186089 
L 182.847815 175.49795 
L 183.76182 175.5841 
L 183.76182 175.650894 
L 184.980493 175.751445 
L 184.980493 175.862308 
L 185.285161 175.862308 
L 185.285161 175.991107 
L 186.199166 176.035479 
L 186.199166 176.361292 
L 187.113171 176.409742 
L 187.113171 176.610106 
L 188.027176 176.719782 
L 188.027176 176.756544 
L 188.636513 176.802369 
L 188.636513 176.878654 
L 188.941181 176.878654 
L 188.941181 177.297007 
L 189.550518 177.347513 
L 189.550518 177.546279 
L 190.159854 177.641147 
L 190.159854 177.817584 
L 190.769191 177.854058 
L 190.769191 177.978463 
L 191.683196 178.036925 
L 191.683196 178.162918 
L 192.901869 178.253812 
L 192.901869 178.288924 
L 193.206537 178.288924 
L 193.206537 178.549995 
L 194.729879 178.630678 
L 194.729879 178.847206 
L 195.339215 178.944342 
L 195.339215 179.097132 
L 195.948552 179.178095 
L 195.948552 179.214065 
L 196.862557 179.300607 
L 196.862557 179.412745 
L 197.776562 179.478782 
L 197.776562 179.598608 
L 198.385898 179.628215 
L 198.385898 179.96314 
L 199.299903 180.067042 
L 199.299903 180.107568 
L 199.90924 180.194996 
L 199.90924 180.399844 
L 201.127913 180.47432 
L 201.127913 180.60472 
L 201.73725 180.696452 
L 201.73725 180.832486 
L 202.346586 180.903706 
L 202.346586 181.074395 
L 203.56526 181.163297 
L 203.56526 181.346386 
L 204.174596 181.358856 
L 204.174596 181.464708 
L 206.002606 181.561414 
L 206.002606 181.616607 
L 206.916611 181.711559 
L 206.916611 181.774069 
L 207.830616 181.875754 
L 207.830616 181.921323 
L 208.135284 181.921323 
L 208.135284 182.03254 
L 209.049289 182.139898 
L 209.049289 182.172216 
L 209.353957 182.172216 
L 209.353957 182.418299 
L 210.572631 182.493531 
L 210.572631 182.542388 
L 212.40064 182.634417 
L 212.40064 182.666129 
L 213.923982 182.728161 
L 213.923982 182.791849 
L 214.533318 182.90221 
L 214.533318 182.930458 
L 216.361328 183.041406 
L 216.361328 183.113955 
L 217.275333 183.217991 
L 217.275333 183.230655 
L 218.189338 183.305089 
L 218.189338 183.370893 
L 219.408011 183.46753 
L 219.408011 183.696567 
L 220.322016 183.79407 
L 220.322016 183.808882 
L 221.540689 183.873964 
L 221.540689 183.9231 
L 221.845358 183.9231 
L 221.845358 184.039871 
L 222.454694 184.07238 
L 222.454694 184.167125 
L 223.368699 184.271075 
L 223.368699 184.419038 
L 224.282704 184.480992 
L 224.282704 184.616177 
L 224.587373 184.616177 
L 224.587373 184.756661 
L 225.806046 184.852495 
L 225.806046 184.929656 
L 227.024719 185.023726 
L 227.024719 185.054871 
L 228.548061 185.145283 
L 228.548061 185.2515 
L 229.157397 185.285978 
L 229.157397 185.383381 
L 229.462065 185.383381 
L 229.462065 185.595023 
L 229.766734 185.595023 
L 229.766734 185.770671 
L 231.899412 185.843789 
L 231.899412 185.914088 
L 233.118085 185.93872 
L 233.118085 186.118496 
L 234.336758 186.20041 
L 234.336758 186.230251 
L 234.641427 186.230251 
L 234.641427 186.350521 
L 235.250763 186.380963 
L 235.250763 186.492354 
L 236.469436 186.549372 
L 236.469436 186.742443 
L 237.078773 186.777418 
L 237.078773 186.876289 
L 237.68811 186.917588 
L 237.68811 187.019486 
L 238.906783 187.120791 
L 238.906783 187.205843 
L 239.516119 187.244946 
L 239.516119 187.363942 
L 240.430124 187.449089 
L 240.430124 187.592968 
L 241.039461 187.609825 
L 241.039461 187.708168 
L 242.867471 187.814147 
L 242.867471 187.857515 
L 244.390812 187.965093 
L 244.390812 187.996789 
L 244.695481 187.996789 
L 244.695481 188.134897 
L 245.609486 188.181535 
L 245.609486 188.351404 
L 247.437495 188.449842 
L 247.437495 188.4773 
L 248.046832 188.545144 
L 248.046832 188.616989 
L 248.960837 188.71133 
L 248.960837 188.877239 
L 249.570174 188.91371 
L 249.570174 188.988694 
L 250.17951 189.004823 
L 250.17951 189.115857 
L 251.093515 189.175023 
L 251.093515 189.453348 
L 252.616857 189.563857 
L 252.616857 189.593338 
L 253.530861 189.683882 
L 253.530861 189.71866 
L 255.054203 189.808705 
L 255.054203 189.853131 
L 255.358871 189.853131 
L 255.358871 189.967961 
L 256.577545 190.06744 
L 256.577545 190.101687 
L 257.491549 190.153806 
L 257.491549 190.261315 
L 258.405554 190.358217 
L 258.405554 190.385816 
L 259.319559 190.491413 
L 259.319559 190.571791 
L 261.147569 190.680561 
L 261.147569 190.685717 
L 262.670911 190.778109 
L 262.670911 190.868235 
L 263.889584 190.959674 
L 263.889584 190.992547 
L 264.803589 191.08733 
L 264.803589 191.179004 
L 265.717594 191.273314 
L 265.717594 191.403882 
L 266.631599 191.493771 
L 266.631599 191.540941 
L 267.240935 191.573515 
L 267.240935 191.668144 
L 268.15494 191.754123 
L 268.15494 191.810882 
L 269.068945 191.830606 
L 269.068945 191.956667 
L 271.506291 192.066769 
L 271.506291 192.081529 
L 273.029633 192.118449 
L 273.029633 192.232844 
L 273.63897 192.326281 
L 273.63897 192.368549 
L 274.248306 192.465704 
L 274.248306 192.502312 
L 274.552975 192.502312 
L 274.552975 192.640667 
L 274.857643 192.640667 
L 274.857643 192.766787 
L 275.466979 192.800787 
L 275.466979 192.878953 
L 276.685653 192.970961 
L 276.685653 193.007212 
L 278.208994 193.034186 
L 278.208994 193.132868 
L 279.427667 193.222304 
L 279.427667 193.270127 
L 280.951009 193.369849 
L 280.951009 193.424797 
L 282.169682 193.535765 
L 282.169682 193.617251 
L 282.47435 193.617251 
L 282.47435 193.750315 
L 282.779019 193.750315 
L 282.779019 193.86881 
L 283.388355 193.904754 
L 283.388355 193.990131 
L 284.607029 194.098401 
L 284.607029 194.162274 
L 285.825702 194.257599 
L 285.825702 194.288574 
L 287.349043 194.388105 
L 287.349043 194.401967 
L 288.872385 194.492456 
L 288.872385 194.51749 
L 289.481721 194.535833 
L 289.481721 194.641357 
L 290.091058 194.729055 
L 290.091058 194.796094 
L 291.309731 194.882881 
L 291.309731 194.924128 
L 292.528404 195.01061 
L 292.528404 195.043945 
L 293.747078 195.154884 
L 293.747078 195.164643 
L 294.356414 195.256799 
L 294.356414 195.279959 
L 295.270419 195.332482 
L 295.270419 195.392097 
L 296.489092 195.444714 
L 296.489092 195.504003 
L 297.707766 195.583139 
L 297.707766 195.618857 
L 298.317102 195.6545 
L 298.317102 195.753564 
L 299.840444 195.842291 
L 299.840444 195.878811 
L 300.754449 195.934665 
L 300.754449 196.030669 
L 301.363785 196.061044 
L 301.363785 196.192786 
L 303.801132 196.300003 
L 303.801132 196.306898 
L 305.324473 196.409359 
L 305.324473 196.445754 
L 306.847815 196.525112 
L 306.847815 196.590775 
L 308.066488 196.681739 
L 308.066488 196.770416 
L 309.285161 196.87787 
L 309.285161 196.917975 
L 311.417839 197.024742 
L 311.417839 197.083737 
L 312.331844 197.184409 
L 312.331844 197.297946 
L 313.245849 197.350297 
L 313.245849 197.424341 
L 316.292532 197.525696 
L 316.292532 197.550312 
L 318.120542 197.658471 
L 318.120542 197.664767 
L 319.034547 197.756691 
L 319.034547 197.777878 
L 319.948552 197.88295 
L 319.948552 197.912774 
L 321.167225 198.012027 
L 321.167225 198.038987 
L 322.08123 198.140985 
L 322.08123 198.227114 
L 322.995235 198.319564 
L 322.995235 198.352199 
L 324.213908 198.45799 
L 324.213908 198.503151 
L 326.346586 198.603597 
L 326.346586 198.6144 
L 328.783933 198.716903 
L 328.783933 198.750358 
L 330.916611 198.861345 
L 330.916611 198.8748 
L 331.525947 198.906193 
L 331.525947 199.009978 
L 333.353957 199.092389 
L 333.353957 199.151278 
L 334.877299 199.244274 
L 334.877299 199.269643 
L 336.40064 199.369321 
L 336.40064 199.390819 
L 338.837987 199.497213 
L 338.837987 199.515971 
L 339.447323 199.615302 
L 339.447323 199.628689 
L 340.665997 199.738299 
L 340.665997 199.740742 
L 343.103343 199.842913 
L 343.103343 199.87662 
L 345.845358 199.982234 
L 345.845358 200.002989 
L 348.282704 200.100569 
L 348.282704 200.123626 
L 350.415382 200.218121 
L 350.415382 200.241014 
L 351.938724 200.33032 
L 351.938724 200.397028 
L 354.071402 200.475662 
L 354.071402 200.509227 
L 356.813417 200.610057 
L 356.813417 200.638358 
L 359.555432 200.725264 
L 359.555432 200.788397 
L 361.68811 200.898729 
L 361.68811 200.940727 
L 363.516119 200.999677 
L 363.516119 201.061993 
L 364.430124 201.117883 
L 364.430124 201.177114 
L 366.258134 201.271166 
L 366.258134 201.292897 
L 368.695481 201.372449 
L 368.695481 201.408271 
L 370.52349 201.503849 
L 370.52349 201.555926 
L 372.046832 201.663632 
L 372.046832 201.669219 
L 374.484178 201.760716 
L 374.484178 201.789951 
L 375.702852 201.878592 
L 375.702852 201.910657 
L 377.226193 202.003795 
L 377.226193 202.003795 
" style="fill:none;stroke:#f7931e;stroke-linecap:square;stroke-width:1.5;"/>
   </g>
   <g id="line2d_14">
    <path clip-path="url(#pc224603525)" d="M 72.862557 149.99322 
L 72.862557 150.199817 
L 74.08123 150.233601 
L 74.08123 150.462585 
L 74.385898 150.462585 
L 74.385898 150.873686 
L 75.604572 150.969303 
L 75.604572 150.996261 
L 75.90924 150.996261 
L 75.90924 151.290861 
L 76.518576 151.308939 
L 76.518576 151.42286 
L 77.432581 151.469952 
L 77.432581 151.630784 
L 78.041918 151.647605 
L 78.041918 151.79834 
L 79.260591 151.855223 
L 79.260591 151.938112 
L 79.56526 151.938112 
L 79.56526 152.094119 
L 79.869928 152.094119 
L 79.869928 152.327228 
L 80.783933 152.382978 
L 80.783933 152.455218 
L 81.393269 152.534753 
L 81.393269 152.576967 
L 81.697938 152.576967 
L 81.697938 152.805697 
L 82.307274 152.819524 
L 82.307274 152.962946 
L 83.221279 153.047488 
L 83.221279 153.179915 
L 84.135284 153.216103 
L 84.135284 153.310189 
L 85.353957 153.384333 
L 85.353957 153.492627 
L 86.572631 153.575135 
L 86.572631 153.794991 
L 86.877299 153.794991 
L 86.877299 153.931388 
L 87.791304 154.010514 
L 87.791304 154.06688 
L 88.095972 154.06688 
L 88.095972 154.183423 
L 88.40064 154.183423 
L 88.40064 154.309706 
L 89.314645 154.409971 
L 89.314645 154.509992 
L 90.22865 154.610516 
L 90.22865 154.683164 
L 91.751992 154.766563 
L 91.751992 154.854744 
L 92.970665 154.906299 
L 92.970665 154.996793 
L 93.580002 155.060818 
L 93.580002 155.301099 
L 94.189338 155.327137 
L 94.189338 155.539139 
L 95.103343 155.650069 
L 95.103343 155.953098 
L 95.71268 155.991754 
L 95.71268 156.130228 
L 96.322016 156.132889 
L 96.322016 156.456215 
L 96.931353 156.509983 
L 96.931353 156.685738 
L 97.845358 156.753393 
L 97.845358 156.989026 
L 98.150026 156.989026 
L 98.150026 157.279424 
L 99.064031 157.387796 
L 99.064031 157.400864 
L 99.368699 157.400864 
L 99.368699 157.522555 
L 99.978036 157.532635 
L 99.978036 157.739157 
L 100.282704 157.739157 
L 100.282704 158.124399 
L 100.892041 158.195183 
L 100.892041 158.308959 
L 101.501377 158.372826 
L 101.501377 158.517437 
L 102.415382 158.590106 
L 102.415382 158.686888 
L 102.720051 158.686888 
L 102.720051 158.927275 
L 103.024719 158.927275 
L 103.024719 159.04633 
L 103.329387 159.04633 
L 103.329387 159.195139 
L 103.634056 159.195139 
L 103.634056 159.355421 
L 104.243392 159.412847 
L 104.243392 159.657181 
L 105.157397 159.763581 
L 105.157397 159.842573 
L 106.37607 159.951702 
L 106.37607 160.05441 
L 106.985407 160.125799 
L 106.985407 160.234845 
L 107.594744 160.274437 
L 107.594744 160.423993 
L 107.899412 160.423993 
L 107.899412 160.718219 
L 108.508748 160.722107 
L 108.508748 161.066159 
L 109.118085 161.094833 
L 109.118085 161.217396 
L 110.641427 161.299222 
L 110.641427 161.440567 
L 112.164768 161.536051 
L 112.164768 161.591015 
L 112.774105 161.595153 
L 112.774105 161.764887 
L 113.383441 161.804818 
L 113.383441 162.039022 
L 114.297446 162.093614 
L 114.297446 162.231775 
L 115.516119 162.328632 
L 115.516119 162.458925 
L 115.820788 162.458925 
L 115.820788 162.656484 
L 117.039461 162.746378 
L 117.039461 162.768645 
L 117.344129 162.768645 
L 117.344129 162.891885 
L 118.258134 162.951855 
L 118.258134 163.054343 
L 119.172139 163.163315 
L 119.172139 163.175927 
L 119.476807 163.175927 
L 119.476807 163.289835 
L 119.781476 163.289835 
L 119.781476 163.416171 
L 120.086144 163.416171 
L 120.086144 163.633564 
L 120.390812 163.633564 
L 120.390812 163.976844 
L 122.218822 164.078987 
L 122.218822 164.246958 
L 123.132827 164.335263 
L 123.132827 164.433877 
L 123.742164 164.51478 
L 123.742164 164.578434 
L 124.960837 164.688515 
L 124.960837 164.839434 
L 125.570174 164.870534 
L 125.570174 164.957475 
L 126.17951 164.991763 
L 126.17951 165.090033 
L 126.484178 165.090033 
L 126.484178 165.236687 
L 127.398183 165.298184 
L 127.398183 165.354809 
L 128.00752 165.369983 
L 128.00752 165.474185 
L 128.616857 165.510968 
L 128.616857 165.647307 
L 129.530861 165.7417 
L 129.530861 165.807132 
L 130.140198 165.824244 
L 130.140198 165.954161 
L 131.968208 166.063632 
L 131.968208 166.116085 
L 132.577545 166.190399 
L 132.577545 166.236192 
L 134.100886 166.344626 
L 134.100886 166.385913 
L 135.319559 166.443375 
L 135.319559 166.793123 
L 136.233564 166.860257 
L 136.233564 166.914785 
L 137.452237 166.958167 
L 137.452237 167.065903 
L 137.756906 167.065903 
L 137.756906 167.193776 
L 138.975579 167.260543 
L 138.975579 167.324735 
L 139.584916 167.394084 
L 139.584916 167.524274 
L 140.803589 167.599586 
L 140.803589 167.665762 
L 141.412925 167.731141 
L 141.412925 167.82076 
L 142.32693 167.908923 
L 142.32693 167.957151 
L 142.936267 168.019829 
L 142.936267 168.088924 
L 143.240935 168.088924 
L 143.240935 168.224974 
L 143.850272 168.298424 
L 143.850272 168.340494 
L 145.068945 168.438299 
L 145.068945 168.469581 
L 146.896955 168.579654 
L 146.896955 168.591378 
L 148.115628 168.695341 
L 148.115628 168.715457 
L 148.724965 168.798103 
L 148.724965 168.839614 
L 150.248306 168.925252 
L 150.248306 168.96419 
L 150.857643 169.067405 
L 150.857643 169.085922 
L 152.685653 169.172232 
L 152.685653 169.225316 
L 154.208994 169.332112 
L 154.208994 169.386368 
L 154.513662 169.386368 
L 154.513662 169.513658 
L 155.122999 169.599338 
L 155.122999 169.629648 
L 155.732336 169.629835 
L 155.732336 169.751661 
L 156.646341 169.844829 
L 156.646341 169.899861 
L 157.865014 170.003519 
L 157.865014 170.035462 
L 158.47435 170.116375 
L 158.47435 170.169251 
L 159.083687 170.207641 
L 159.083687 170.293692 
L 159.693024 170.374035 
L 159.693024 170.465806 
L 160.30236 170.513067 
L 160.30236 170.692462 
L 160.911697 170.73887 
L 160.911697 170.875041 
L 161.216365 170.875041 
L 161.216365 171.029127 
L 161.825702 171.050396 
L 161.825702 171.178614 
L 163.044375 171.232621 
L 163.044375 171.351717 
L 163.349043 171.351717 
L 163.349043 171.581411 
L 164.567717 171.652939 
L 164.567717 171.693752 
L 165.481721 171.784616 
L 165.481721 171.812299 
L 167.309731 171.914563 
L 167.309731 171.987033 
L 168.833073 172.057107 
L 168.833073 172.237409 
L 170.356414 172.330048 
L 170.356414 172.453599 
L 170.965751 172.464541 
L 170.965751 172.576668 
L 172.184424 172.61929 
L 172.184424 172.714836 
L 173.403097 172.823424 
L 173.403097 172.896566 
L 173.707766 172.896566 
L 173.707766 173.014545 
L 174.317102 173.121714 
L 174.317102 173.191006 
L 175.840444 173.286639 
L 175.840444 173.33418 
L 177.059117 173.419221 
L 177.059117 173.496044 
L 177.973122 173.50185 
L 177.973122 173.636823 
L 178.887127 173.743302 
L 178.887127 173.872269 
L 179.801132 173.960289 
L 179.801132 173.985232 
L 180.410468 174.085363 
L 180.410468 174.250188 
L 181.324473 174.320164 
L 181.324473 174.452874 
L 182.543146 174.515911 
L 182.543146 174.614366 
L 182.847815 174.614366 
L 182.847815 174.772494 
L 184.675825 174.881017 
L 184.675825 174.901425 
L 185.285161 174.957923 
L 185.285161 175.02365 
L 186.199166 175.046314 
L 186.199166 175.213075 
L 187.113171 175.237925 
L 187.113171 175.340833 
L 188.636513 175.439796 
L 188.636513 175.479122 
L 188.941181 175.479122 
L 188.941181 175.695388 
L 189.550518 175.721566 
L 189.550518 175.824736 
L 190.159854 175.87406 
L 190.159854 175.965936 
L 191.378527 176.063799 
L 191.378527 176.080414 
L 192.597201 176.18816 
L 192.597201 176.193896 
L 193.206537 176.212294 
L 193.206537 176.34933 
L 194.729879 176.391764 
L 194.729879 176.505845 
L 195.339215 176.557116 
L 195.339215 176.637882 
L 196.862557 176.745668 
L 196.862557 176.805182 
L 198.08123 176.903999 
L 198.08123 176.91976 
L 198.385898 176.91976 
L 198.385898 177.098447 
L 199.604572 177.175725 
L 199.604572 177.22257 
L 200.213908 177.332524 
L 200.213908 177.337735 
L 201.432581 177.442769 
L 201.432581 177.492221 
L 202.041918 177.565658 
L 202.041918 177.604154 
L 202.651255 177.696555 
L 202.651255 177.719 
L 203.56526 177.744758 
L 203.56526 177.8442 
L 205.697938 177.953818 
L 205.697938 177.961279 
L 206.916611 178.043218 
L 206.916611 178.077378 
L 208.135284 178.157953 
L 208.135284 178.218909 
L 209.353957 178.295586 
L 209.353957 178.431009 
L 211.791304 178.539813 
L 211.791304 178.545519 
L 214.22865 178.637399 
L 214.22865 178.698565 
L 216.361328 178.775839 
L 216.361328 178.816169 
L 218.189338 178.922605 
L 218.189338 178.959311 
L 219.408011 179.013274 
L 219.408011 179.141444 
L 221.540689 179.240984 
L 221.540689 179.268597 
L 222.454694 179.352598 
L 222.454694 179.405999 
L 223.368699 179.464666 
L 223.368699 179.548316 
L 224.282704 179.583391 
L 224.282704 179.660028 
L 225.196709 179.752483 
L 225.196709 179.789495 
L 227.024719 179.891925 
L 227.024719 179.9097 
L 228.548061 179.961343 
L 228.548061 180.022096 
L 229.462065 180.097652 
L 229.462065 180.219195 
L 230.37607 180.326908 
L 230.37607 180.342214 
L 233.118085 180.417343 
L 233.118085 180.521371 
L 234.641427 180.586172 
L 234.641427 180.656025 
L 236.164768 180.763035 
L 236.164768 180.771783 
L 236.469436 180.771783 
L 236.469436 180.884491 
L 237.68811 180.987008 
L 237.68811 181.046772 
L 239.211451 181.1563 
L 239.211451 181.17932 
L 240.125456 181.255253 
L 240.125456 181.299714 
L 241.039461 181.394764 
L 241.039461 181.453031 
L 243.476807 181.556977 
L 243.476807 181.595628 
L 244.695481 181.624525 
L 244.695481 181.706849 
L 245.609486 181.734688 
L 245.609486 181.836251 
L 247.742164 181.911691 
L 247.742164 181.952406 
L 248.960837 182.052314 
L 248.960837 182.152309 
L 250.17951 182.22938 
L 250.17951 182.296576 
L 251.093515 182.33243 
L 251.093515 182.501536 
L 252.921525 182.586869 
L 252.921525 182.614867 
L 255.054203 182.718519 
L 255.054203 182.745732 
L 255.968208 182.852811 
L 255.968208 182.863905 
L 257.491549 182.930413 
L 257.491549 182.996663 
L 258.710223 183.073527 
L 258.710223 183.123825 
L 260.538232 183.225639 
L 260.538232 183.246588 
L 262.670911 183.316736 
L 262.670911 183.372831 
L 264.49892 183.458 
L 264.49892 183.509544 
L 265.412925 183.587396 
L 265.412925 183.625984 
L 266.32693 183.718894 
L 266.32693 183.764474 
L 267.545604 183.874377 
L 267.545604 183.879356 
L 269.068945 183.977063 
L 269.068945 184.056936 
L 273.029633 184.159694 
L 273.029633 184.232524 
L 273.943638 184.319108 
L 273.943638 184.38122 
L 274.552975 184.404651 
L 274.552975 184.49334 
L 275.466979 184.596247 
L 275.466979 184.646588 
L 278.208994 184.746767 
L 278.208994 184.810595 
L 280.341672 184.91752 
L 280.341672 184.932227 
L 281.865014 185.009789 
L 281.865014 185.072351 
L 282.47435 185.125522 
L 282.47435 185.212515 
L 283.388355 185.313746 
L 283.388355 185.36983 
L 284.607029 185.44108 
L 284.607029 185.483179 
L 286.739707 185.573677 
L 286.739707 185.62353 
L 289.481721 185.73039 
L 289.481721 185.800534 
L 290.700395 185.903739 
L 290.700395 185.927766 
L 292.223736 186.022479 
L 292.223736 186.047081 
L 294.051746 186.150438 
L 294.051746 186.21242 
L 295.879756 186.319313 
L 295.879756 186.33716 
L 297.707766 186.432794 
L 297.707766 186.456998 
L 298.926439 186.565117 
L 298.926439 186.589648 
L 300.754449 186.671741 
L 300.754449 186.737286 
L 301.668454 186.84825 
L 301.668454 186.860153 
L 304.715137 186.966546 
L 304.715137 186.97558 
L 306.847815 187.07684 
L 306.847815 187.122187 
L 308.066488 187.185105 
L 308.066488 187.246554 
L 309.894498 187.349151 
L 309.894498 187.361127 
L 311.722508 187.464561 
L 311.722508 187.519312 
L 312.636513 187.614418 
L 312.636513 187.6508 
L 315.987864 187.747698 
L 315.987864 187.77448 
L 318.729879 187.883403 
L 318.729879 187.937605 
L 320.25322 188.048281 
L 320.25322 188.096203 
L 321.776562 188.160016 
L 321.776562 188.210766 
L 322.690567 188.276652 
L 322.690567 188.338471 
L 324.213908 188.437802 
L 324.213908 188.470274 
L 326.955923 188.563746 
L 326.955923 188.582392 
L 329.393269 188.66711 
L 329.393269 188.697007 
L 331.525947 188.7615 
L 331.525947 188.836913 
L 333.963294 188.941633 
L 333.963294 188.96113 
L 335.791304 189.060811 
L 335.791304 189.075586 
L 338.533318 189.166075 
L 338.533318 189.193318 
L 339.751992 189.290169 
L 339.751992 189.322765 
L 342.798675 189.429098 
L 342.798675 189.448605 
L 345.845358 189.552068 
L 345.845358 189.567509 
L 348.892041 189.669066 
L 348.892041 189.681994 
L 351.329387 189.771741 
L 351.329387 189.803595 
L 353.462065 189.911826 
L 353.462065 189.914747 
L 356.813417 190.022538 
L 356.813417 190.043912 
L 359.555432 190.10964 
L 359.555432 190.157474 
L 361.68811 190.241246 
L 361.68811 190.273193 
L 363.820788 190.365624 
L 363.820788 190.402938 
L 365.953466 190.51179 
L 365.953466 190.525708 
L 369.609486 190.635086 
L 369.609486 190.650004 
L 370.828159 190.744986 
L 370.828159 190.770747 
L 373.570174 190.876125 
L 373.570174 190.882426 
L 375.398183 190.944624 
L 375.398183 190.995366 
L 377.226193 191.093078 
L 377.226193 191.093078 
" style="fill:none;stroke:#c1272d;stroke-linecap:square;stroke-width:1.5;"/>
   </g>
   <g id="patch_3">
    <path d="M 57.644375 224.64 
L 57.644375 7.2 
" style="fill:none;stroke:#000000;stroke-linecap:square;stroke-linejoin:miter;stroke-width:0.8;"/>
   </g>
   <g id="patch_4">
    <path d="M 392.444375 224.64 
L 392.444375 7.2 
" style="fill:none;stroke:#000000;stroke-linecap:square;stroke-linejoin:miter;stroke-width:0.8;"/>
   </g>
   <g id="patch_5">
    <path d="M 57.644375 224.64 
L 392.444375 224.64 
" style="fill:none;stroke:#000000;stroke-linecap:square;stroke-linejoin:miter;stroke-width:0.8;"/>
   </g>
   <g id="patch_6">
    <path d="M 57.644375 7.2 
L 392.444375 7.2 
" style="fill:none;stroke:#000000;stroke-linecap:square;stroke-linejoin:miter;stroke-width:0.8;"/>
   </g>
   <g id="legend_1">
    <g id="patch_7">
     <path d="M 320.781875 68.1 
L 384.044375 68.1 
Q 386.444375 68.1 386.444375 65.7 
L 386.444375 15.6 
Q 386.444375 13.2 384.044375 13.2 
L 320.781875 13.2 
Q 318.381875 13.2 318.381875 15.6 
L 318.381875 65.7 
Q 318.381875 68.1 320.781875 68.1 
z
" style="fill:#ffffff;opacity:0.8;stroke:#cccccc;stroke-linejoin:miter;"/>
    </g>
    <g id="line2d_15">
     <path d="M 323.181875 22.60875 
L 347.181875 22.60875 
" style="fill:none;stroke:#0071bc;stroke-linecap:square;stroke-width:1.5;"/>
    </g>
    <g id="line2d_16"/>
    <g id="text_14">
     <!-- T=0.5 -->
     <g transform="translate(356.781875 26.80875)scale(0.12 -0.12)">
      <defs>
       <path d="M 18 0 
L 26.40625 0 
L 26.40625 62.09375 
L 42.90625 62.09375 
L 42.90625 69.296875 
L 1.40625 69.296875 
L 1.40625 62.09375 
L 18 62.09375 
z
" id="GuardianSansCond-Regular-84"/>
       <path d="M 5.09375 35.203125 
L 40.09375 35.203125 
L 40.09375 42.09375 
L 5.09375 42.09375 
z
M 5.09375 19 
L 40.09375 19 
L 40.09375 26 
L 5.09375 26 
z
" id="GuardianSansCond-Regular-61"/>
       <path d="M 17.09375 -1 
C 30.796875 -1 38.203125 8 38.203125 21.296875 
C 38.203125 35.90625 31.203125 42.296875 18.203125 42.296875 
C 15.796875 42.296875 13.90625 42.09375 12.40625 41.796875 
L 13.703125 62.09375 
L 36.59375 62.09375 
L 36.59375 69.296875 
L 6.703125 69.296875 
L 4.59375 33.90625 
C 7.296875 34.5 11.09375 35.09375 15.09375 35.09375 
C 24.796875 35.09375 29.296875 31.09375 29.296875 21.296875 
C 29.296875 11.203125 24.796875 6.203125 14.90625 6.203125 
C 9.796875 6.203125 5.703125 7.40625 2.40625 9.09375 
L 2.40625 2.296875 
C 5.5 0.40625 10.5 -1 17.09375 -1 
z
" id="GuardianSansCond-Regular-53"/>
      </defs>
      <use xlink:href="#GuardianSansCond-Regular-84"/>
      <use x="44.499985" xlink:href="#GuardianSansCond-Regular-61"/>
      <use x="89.599976" xlink:href="#GuardianSansCond-Regular-48"/>
      <use x="143.09996" xlink:href="#GuardianSansCond-Regular-46"/>
      <use x="164.699951" xlink:href="#GuardianSansCond-Regular-53"/>
     </g>
    </g>
    <g id="line2d_17">
     <path d="M 323.181875 39.70875 
L 347.181875 39.70875 
" style="fill:none;stroke:#f7931e;stroke-linecap:square;stroke-width:1.5;"/>
    </g>
    <g id="line2d_18"/>
    <g id="text_15">
     <!-- T=1.0 -->
     <g transform="translate(356.781875 43.90875)scale(0.12 -0.12)">
      <use xlink:href="#GuardianSansCond-Regular-84"/>
      <use x="44.499985" xlink:href="#GuardianSansCond-Regular-61"/>
      <use x="89.599976" xlink:href="#GuardianSansCond-Regular-49"/>
      <use x="118.399963" xlink:href="#GuardianSansCond-Regular-46"/>
      <use x="139.999954" xlink:href="#GuardianSansCond-Regular-48"/>
     </g>
    </g>
    <g id="line2d_19">
     <path d="M 323.181875 56.80875 
L 347.181875 56.80875 
" style="fill:none;stroke:#c1272d;stroke-linecap:square;stroke-width:1.5;"/>
    </g>
    <g id="line2d_20"/>
    <g id="text_16">
     <!-- T=2.0 -->
     <g transform="translate(356.781875 61.00875)scale(0.12 -0.12)">
      <use xlink:href="#GuardianSansCond-Regular-84"/>
      <use x="44.499985" xlink:href="#GuardianSansCond-Regular-61"/>
      <use x="89.599976" xlink:href="#GuardianSansCond-Regular-50"/>
      <use x="132.09996" xlink:href="#GuardianSansCond-Regular-46"/>
      <use x="153.699951" xlink:href="#GuardianSansCond-Regular-48"/>
     </g>
    </g>
   </g>
  </g>
 </g>
 <defs>
  <clipPath id="pc224603525">
   <rect height="217.44" width="334.8" x="57.644375" y="7.2"/>
  </clipPath>
 </defs>
</svg>