<?xml version="1.0" encoding="utf-8" standalone="no"?>
<!DOCTYPE svg PUBLIC "-//W3C//DTD SVG 1.1//EN"
  "http://www.w3.org/Graphics/SVG/1.1/DTD/svg11.dtd">
<svg xmlns:xlink="http://www.w3.org/1999/xlink" width="349.2pt" height="236.16pt" viewBox="0 0 349.2 236.16" xmlns="http://www.w3.org/2000/svg" version="1.1">
 <metadata>
  <rdf:RDF xmlns:dc="http://purl.org/dc/elements/1.1/" xmlns:cc="http://creativecommons.org/ns#" xmlns:rdf="http://www.w3.org/1999/02/22-rdf-syntax-ns#">
   <cc:Work>
    <dc:type rdf:resource="http://purl.org/dc/dcmitype/StillImage"/>
    <dc:date>2024-11-28T10:45:42.117728</dc:date>
    <dc:format>image/svg+xml</dc:format>
    <dc:creator>
     <cc:Agent>
      <dc:title>Matplotlib v3.9.0, https://matplotlib.org/</dc:title>
     </cc:Agent>
    </dc:creator>
   </cc:Work>
  </rdf:RDF>
 </metadata>
 <defs>
  <style type="text/css">*{stroke-linejoin: round; stroke-linecap: butt}</style>
 </defs>
 <g id="figure_1">
  <g id="patch_1">
   <path d="M 0 236.16 
L 349.2 236.16 
L 349.2 0 
L 0 0 
z
" style="fill: #ffffff"/>
  </g>
  <g id="axes_1">
   <g id="patch_2">
    <path d="M 7.2 228.96 
L 342 228.96 
L 342 7.2 
L 7.2 7.2 
z
" style="fill: #ffffff"/>
   </g>
   <g id="EdgeCollection_1">
    <path d="M 211.907008 53.877155 
C 218.759137 84.814123 253.170249 114.351228 299.755847 117.422214 
C 253.170249 114.351228 218.759137 84.814123 211.907008 53.877155 
L 204.584467 55.499002 
L 208.663316 39.232072 
L 219.22955 52.255309 
L 211.907008 53.877155 
" clip-path="url(#p3a3c02ea3d)" style="fill: #444444; stroke: #444444; stroke-width: 2"/>
    <path d="M 56.088516 81.988321 
C 115.864069 149.137224 205.953528 167.39216 300.701966 122.371729 
C 205.953528 167.39216 115.864069 149.137224 56.088516 81.988321 
L 50.486578 86.975133 
L 46.114893 70.784445 
L 61.690454 77.001509 
L 56.088516 81.988321 
" clip-path="url(#p3a3c02ea3d)" style="fill: #444444; stroke: #444444; stroke-width: 2"/>
    <path d="M 304.328036 93.671528 
C 297.475907 62.734561 263.064795 33.197455 216.479197 30.126469 
C 263.064795 33.197455 297.475907 62.734561 304.328036 93.671528 
L 311.650577 92.049682 
L 307.571728 108.316611 
L 297.005494 95.293374 
L 304.328036 93.671528 
" clip-path="url(#p3a3c02ea3d)" style="fill: #444444; stroke: #444444; stroke-width: 2"/>
    <path d="M 62.04637 74.044517 
C 103.605786 93.791785 159.284134 82.509615 199.851773 36.937934 
C 159.284134 82.509615 103.605786 93.791785 62.04637 74.044517 
L 58.827573 80.818684 
L 48.498034 67.606923 
L 65.265166 67.270349 
L 62.04637 74.044517 
" clip-path="url(#p3a3c02ea3d)" style="fill: #444444; stroke: #444444; stroke-width: 2"/>
    <path d="M 64.411667 171.200341 
C 130.988189 166.811526 186.666537 119.019485 204.338393 39.232072 
C 186.666537 119.019485 130.988189 166.811526 64.411667 171.200341 
L 64.905006 178.684097 
L 49.444153 172.187019 
L 63.918327 163.716584 
L 64.411667 171.200341 
" clip-path="url(#p3a3c02ea3d)" style="fill: #444444; stroke: #444444; stroke-width: 2"/>
    <path d="M 206.500855 181.691316 
L 206.500855 39.468684 
L 206.500855 181.691316 
L 214.000855 181.691316 
L 206.500855 196.691316 
L 199.000855 181.691316 
L 206.500855 181.691316 
" clip-path="url(#p3a3c02ea3d)" style="fill: #444444; stroke: #444444; stroke-width: 2"/>
    <path d="M 293.111484 99.406873 
C 233.335931 32.25797 143.246472 14.003035 48.498034 59.023466 
C 143.246472 14.003035 233.335931 32.25797 293.111484 99.406873 
L 298.713422 94.420062 
L 303.085107 110.610749 
L 287.509546 104.393685 
L 293.111484 99.406873 
" clip-path="url(#p3a3c02ea3d)" style="fill: #444444; stroke: #444444; stroke-width: 2"/>
    <path d="M 183.920296 18.739361 
C 142.360879 -1.007907 86.682531 10.274263 46.114893 55.845944 
C 86.682531 10.274263 142.360879 -1.007907 183.920296 18.739361 
L 187.139092 11.965194 
L 197.468631 25.176955 
L 180.701499 25.513529 
L 183.920296 18.739361 
" clip-path="url(#p3a3c02ea3d)" style="fill: #444444; stroke: #444444; stroke-width: 2"/>
    <path d="M 54.465811 152.844805 
C 66.848213 136.334935 66.848213 99.825065 45.465811 71.315195 
C 66.848213 99.825065 66.848213 136.334935 54.465811 152.844805 
L 60.465811 157.344805 
L 45.465811 164.844805 
L 48.465811 148.344805 
L 54.465811 152.844805 
" clip-path="url(#p3a3c02ea3d)" style="fill: #444444; stroke: #444444; stroke-width: 2"/>
    <path d="M 201.094701 182.282845 
C 186.666537 117.140515 130.988189 69.348474 49.444153 63.972981 
C 130.988189 69.348474 186.666537 117.140515 201.094701 182.282845 
L 208.417243 180.660998 
L 204.338393 196.927928 
L 193.77216 183.904691 
L 201.094701 182.282845 
" clip-path="url(#p3a3c02ea3d)" style="fill: #444444; stroke: #444444; stroke-width: 2"/>
    <path d="M 181.554999 31.113148 
C 114.978476 35.501963 59.300128 83.294004 41.628272 163.081417 
C 59.300128 83.294004 114.978476 35.501963 181.554999 31.113148 
L 181.061659 23.629391 
L 196.522512 30.126469 
L 182.048338 38.596905 
L 181.554999 31.113148 
" clip-path="url(#p3a3c02ea3d)" style="fill: #444444; stroke: #444444; stroke-width: 2"/>
    <path d="M 24.465811 83.315195 
C 12.083408 99.825065 12.083408 136.334935 33.465811 164.844805 
C 12.083408 136.334935 12.083408 99.825065 24.465811 83.315195 
L 18.465811 78.815195 
L 33.465811 71.315195 
L 30.465811 87.815195 
L 24.465811 83.315195 
" clip-path="url(#p3a3c02ea3d)" style="fill: #444444; stroke: #444444; stroke-width: 2"/>
    <path d="M 189.878149 188.01819 
C 159.284134 153.650385 103.605786 142.368215 48.498034 168.553077 
C 103.605786 142.368215 159.284134 153.650385 189.878149 188.01819 
L 195.480087 183.031378 
L 199.851773 199.222066 
L 184.276211 193.005002 
L 189.878149 188.01819 
" clip-path="url(#p3a3c02ea3d)" style="fill: #444444; stroke: #444444; stroke-width: 2"/>
    <path d="M 44.871964 87.723667 
C 59.300128 152.865996 114.978476 200.658037 196.522512 206.033531 
C 114.978476 200.658037 59.300128 152.865996 44.871964 87.723667 
L 37.549423 89.345513 
L 41.628272 73.078583 
L 52.194506 86.101821 
L 44.871964 87.723667 
" clip-path="url(#p3a3c02ea3d)" style="fill: #444444; stroke: #444444; stroke-width: 2"/>
    <path d="M 56.088516 191.517932 
C 86.682531 225.885737 142.360879 237.167907 197.468631 210.983045 
C 142.360879 237.167907 86.682531 225.885737 56.088516 191.517932 
L 50.486578 196.504744 
L 46.114893 180.314056 
L 61.690454 186.53112 
L 56.088516 191.517932 
" clip-path="url(#p3a3c02ea3d)" style="fill: #444444; stroke: #444444; stroke-width: 2"/>
   </g>
   <g id="VertexCollection_1">
    <path d="M 309.734189 128.08 
C 312.38622 128.08 314.929988 127.026337 316.805257 125.151068 
C 318.680526 123.275799 319.734189 120.732031 319.734189 118.08 
C 319.734189 115.427969 318.680526 112.884201 316.805257 111.008932 
C 314.929988 109.133663 312.38622 108.08 309.734189 108.08 
C 307.082158 108.08 304.538391 109.133663 302.663122 111.008932 
C 300.787853 112.884201 299.734189 115.427969 299.734189 118.08 
C 299.734189 120.732031 300.787853 123.275799 302.663122 125.151068 
C 304.538391 127.026337 307.082158 128.08 309.734189 128.08 
z
" clip-path="url(#p3a3c02ea3d)" style="fill: #0000ff; stroke: #000000"/>
    <path d="M 206.500855 39.468684 
C 209.152886 39.468684 211.696654 38.41502 213.571923 36.539751 
C 215.447192 34.664482 216.500855 32.120715 216.500855 29.468684 
C 216.500855 26.816653 215.447192 24.272885 213.571923 22.397616 
C 211.696654 20.522347 209.152886 19.468684 206.500855 19.468684 
C 203.848824 19.468684 201.305056 20.522347 199.429787 22.397616 
C 197.554518 24.272885 196.500855 26.816653 196.500855 29.468684 
C 196.500855 32.120715 197.554518 34.664482 199.429787 36.539751 
C 201.305056 38.41502 203.848824 39.468684 206.500855 39.468684 
z
" clip-path="url(#p3a3c02ea3d)" style="fill: #0000ff; stroke: #000000"/>
    <path d="M 39.465811 73.315195 
C 42.117842 73.315195 44.661609 72.261532 46.536878 70.386262 
C 48.412147 68.510993 49.465811 65.967226 49.465811 63.315195 
C 49.465811 60.663164 48.412147 58.119396 46.536878 56.244127 
C 44.661609 54.368858 42.117842 53.315195 39.465811 53.315195 
C 36.81378 53.315195 34.270012 54.368858 32.394743 56.244127 
C 30.519474 58.119396 29.465811 60.663164 29.465811 63.315195 
C 29.465811 65.967226 30.519474 68.510993 32.394743 70.386262 
C 34.270012 72.261532 36.81378 73.315195 39.465811 73.315195 
z
" clip-path="url(#p3a3c02ea3d)" style="fill: #0000ff; stroke: #000000"/>
    <path d="M 39.465811 182.844805 
C 42.117842 182.844805 44.661609 181.791142 46.536878 179.915873 
C 48.412147 178.040604 49.465811 175.496836 49.465811 172.844805 
C 49.465811 170.192774 48.412147 167.649007 46.536878 165.773738 
C 44.661609 163.898468 42.117842 162.844805 39.465811 162.844805 
C 36.81378 162.844805 34.270012 163.898468 32.394743 165.773738 
C 30.519474 167.649007 29.465811 170.192774 29.465811 172.844805 
C 29.465811 175.496836 30.519474 178.040604 32.394743 179.915873 
C 34.270012 181.791142 36.81378 182.844805 39.465811 182.844805 
z
" clip-path="url(#p3a3c02ea3d)" style="fill: #0000ff; stroke: #000000"/>
    <path d="M 206.500855 216.691316 
C 209.152886 216.691316 211.696654 215.637653 213.571923 213.762384 
C 215.447192 211.887115 216.500855 209.343347 216.500855 206.691316 
C 216.500855 204.039285 215.447192 201.495518 213.571923 199.620249 
C 211.696654 197.74498 209.152886 196.691316 206.500855 196.691316 
C 203.848824 196.691316 201.305056 197.74498 199.429787 199.620249 
C 197.554518 201.495518 196.500855 204.039285 196.500855 206.691316 
C 196.500855 209.343347 197.554518 211.887115 199.429787 213.762384 
C 201.305056 215.637653 203.848824 216.691316 206.500855 216.691316 
z
" clip-path="url(#p3a3c02ea3d)" style="fill: #0000ff; stroke: #000000"/>
   </g>
   <g id="text_1">
    <g clip-path="url(#p3a3c02ea3d)">
     <!-- A -->
     <g transform="translate(305.629814 121.39125) scale(0.12 -0.12)">
      <defs>
       <path id="DejaVuSans-41" d="M 2188 4044 
L 1331 1722 
L 3047 1722 
L 2188 4044 
z
M 1831 4666 
L 2547 4666 
L 4325 0 
L 3669 0 
L 3244 1197 
L 1141 1197 
L 716 0 
L 50 0 
L 1831 4666 
z
" transform="scale(0.015625)"/>
      </defs>
      <use xlink:href="#DejaVuSans-41"/>
     </g>
    </g>
   </g>
   <g id="text_2">
    <g clip-path="url(#p3a3c02ea3d)">
     <!-- B -->
     <g transform="translate(202.384292 32.779934) scale(0.12 -0.12)">
      <defs>
       <path id="DejaVuSans-42" d="M 1259 2228 
L 1259 519 
L 2272 519 
Q 2781 519 3026 730 
Q 3272 941 3272 1375 
Q 3272 1813 3026 2020 
Q 2781 2228 2272 2228 
L 1259 2228 
z
M 1259 4147 
L 1259 2741 
L 2194 2741 
Q 2656 2741 2882 2914 
Q 3109 3088 3109 3444 
Q 3109 3797 2882 3972 
Q 2656 4147 2194 4147 
L 1259 4147 
z
M 628 4666 
L 2241 4666 
Q 2963 4666 3353 4366 
Q 3744 4066 3744 3513 
Q 3744 3084 3544 2831 
Q 3344 2578 2956 2516 
Q 3422 2416 3680 2098 
Q 3938 1781 3938 1306 
Q 3938 681 3513 340 
Q 3088 0 2303 0 
L 628 0 
L 628 4666 
z
" transform="scale(0.015625)"/>
      </defs>
      <use xlink:href="#DejaVuSans-42"/>
     </g>
    </g>
   </g>
   <g id="text_3">
    <g clip-path="url(#p3a3c02ea3d)">
     <!-- C -->
     <g transform="translate(35.276123 66.626445) scale(0.12 -0.12)">
      <defs>
       <path id="DejaVuSans-43" d="M 4122 4306 
L 4122 3641 
Q 3803 3938 3442 4084 
Q 3081 4231 2675 4231 
Q 1875 4231 1450 3742 
Q 1025 3253 1025 2328 
Q 1025 1406 1450 917 
Q 1875 428 2675 428 
Q 3081 428 3442 575 
Q 3803 722 4122 1019 
L 4122 359 
Q 3791 134 3420 21 
Q 3050 -91 2638 -91 
Q 1578 -91 968 557 
Q 359 1206 359 2328 
Q 359 3453 968 4101 
Q 1578 4750 2638 4750 
Q 3056 4750 3426 4639 
Q 3797 4528 4122 4306 
z
" transform="scale(0.015625)"/>
      </defs>
      <use xlink:href="#DejaVuSans-43"/>
     </g>
    </g>
   </g>
   <g id="text_4">
    <g clip-path="url(#p3a3c02ea3d)">
     <!-- D -->
     <g transform="translate(34.845811 176.156055) scale(0.12 -0.12)">
      <defs>
       <path id="DejaVuSans-44" d="M 1259 4147 
L 1259 519 
L 2022 519 
Q 2988 519 3436 956 
Q 3884 1394 3884 2338 
Q 3884 3275 3436 3711 
Q 2988 4147 2022 4147 
L 1259 4147 
z
M 628 4666 
L 1925 4666 
Q 3281 4666 3915 4102 
Q 4550 3538 4550 2338 
Q 4550 1131 3912 565 
Q 3275 0 1925 0 
L 628 0 
L 628 4666 
z
" transform="scale(0.015625)"/>
      </defs>
      <use xlink:href="#DejaVuSans-44"/>
     </g>
    </g>
   </g>
   <g id="text_5">
    <g clip-path="url(#p3a3c02ea3d)">
     <!-- E -->
     <g transform="translate(202.709605 210.002566) scale(0.12 -0.12)">
      <defs>
       <path id="DejaVuSans-45" d="M 628 4666 
L 3578 4666 
L 3578 4134 
L 1259 4134 
L 1259 2753 
L 3481 2753 
L 3481 2222 
L 1259 2222 
L 1259 531 
L 3634 531 
L 3634 0 
L 628 0 
L 628 4666 
z
" transform="scale(0.015625)"/>
      </defs>
      <use xlink:href="#DejaVuSans-45"/>
     </g>
    </g>
   </g>
   <g id="matplotlib.axis_1"/>
   <g id="matplotlib.axis_2"/>
  </g>
 </g>
 <defs>
  <clipPath id="p3a3c02ea3d">
   <rect x="7.2" y="7.2" width="334.8" height="221.76"/>
  </clipPath>
 </defs>
</svg>