<?xml version="1.0" encoding="utf-8" standalone="no"?>
<!DOCTYPE svg PUBLIC "-//W3C//DTD SVG 1.1//EN"
  "http://www.w3.org/Graphics/SVG/1.1/DTD/svg11.dtd">
<svg xmlns:xlink="http://www.w3.org/1999/xlink" width="349.2pt" height="236.16pt" viewBox="0 0 349.2 236.16" xmlns="http://www.w3.org/2000/svg" version="1.1">
 <metadata>
  <rdf:RDF xmlns:dc="http://purl.org/dc/elements/1.1/" xmlns:cc="http://creativecommons.org/ns#" xmlns:rdf="http://www.w3.org/1999/02/22-rdf-syntax-ns#">
   <cc:Work>
    <dc:type rdf:resource="http://purl.org/dc/dcmitype/StillImage"/>
    <dc:date>2024-11-28T10:45:43.179742</dc:date>
    <dc:format>image/svg+xml</dc:format>
    <dc:creator>
     <cc:Agent>
      <dc:title>Matplotlib v3.9.0, https://matplotlib.org/</dc:title>
     </cc:Agent>
    </dc:creator>
   </cc:Work>
  </rdf:RDF>
 </metadata>
 <defs>
  <style type="text/css">*{stroke-linejoin: round; stroke-linecap: butt}</style>
 </defs>
 <g id="figure_1">
  <g id="patch_1">
   <path d="M 0 236.16 
L 349.2 236.16 
L 349.2 0 
L 0 0 
z
" style="fill: #ffffff"/>
  </g>
  <g id="axes_1">
   <g id="patch_2">
    <path d="M 7.2 228.96 
L 342 228.96 
L 342 7.2 
L 7.2 7.2 
z
" style="fill: #ffffff"/>
   </g>
   <g id="EdgeCollection_1">
    <path d="M 288.889886 124.51699 
C 315.269538 106.566259 327.422328 71.062244 312.947107 26.443636 
C 327.422328 71.062244 315.269538 106.566259 288.889886 124.51699 
L 293.109231 130.717565 
L 276.488736 132.95568 
L 284.670541 118.316415 
L 288.889886 124.51699 
" clip-path="url(#p2933d49890)" style="fill: #696969; stroke: #696969; stroke-width: 0.7"/>
    <path d="M 150.878615 89.224298 
C 209.922434 109.167294 268.682344 89.840432 312.947107 26.443636 
C 268.682344 89.840432 209.922434 109.167294 150.878615 89.224298 
L 148.478578 96.329917 
L 136.667376 84.424224 
L 153.278651 82.118678 
L 150.878615 89.224298 
" clip-path="url(#p2933d49890)" style="fill: #696969; stroke: #696969; stroke-width: 0.7"/>
    <path d="M 300.545958 34.882326 
C 274.166306 52.833058 262.013516 88.337073 276.488736 132.95568 
C 262.013516 88.337073 274.166306 52.833058 300.545958 34.882326 
L 296.326613 28.681752 
L 312.947107 26.443636 
L 304.765303 41.082901 
L 300.545958 34.882326 
" clip-path="url(#p2933d49890)" style="fill: #696969; stroke: #696969; stroke-width: 0.7"/>
    <path d="M 145.052754 96.861484 
C 171.141632 135.556716 217.748752 151.733868 276.488736 132.95568 
C 217.748752 151.733868 171.141632 135.556716 145.052754 96.861484 
L 138.834124 101.054173 
L 136.667376 84.424224 
L 151.271384 92.668795 
L 145.052754 96.861484 
" clip-path="url(#p2933d49890)" style="fill: #696969; stroke: #696969; stroke-width: 0.7"/>
    <path d="M 49.176524 167.363361 
C 123.029817 210.8768 203.108431 201.945721 276.488736 132.95568 
C 203.108431 201.945721 123.029817 210.8768 49.176524 167.363361 
L 45.369303 173.825177 
L 36.252893 159.748919 
L 52.983746 160.901545 
L 49.176524 167.363361 
" clip-path="url(#p2933d49890)" style="fill: #696969; stroke: #696969; stroke-width: 0.7"/>
    <path d="M 191.939939 200.365352 
L 276.488736 132.95568 
L 191.939939 200.365352 
L 196.615445 206.22962 
L 180.211402 209.716364 
L 187.264433 194.501083 
L 191.939939 200.365352 
" clip-path="url(#p2933d49890)" style="fill: #696969; stroke: #696969; stroke-width: 0.7"/>
    <path d="M 298.735869 21.643563 
C 239.69205 1.700566 180.93214 21.027429 136.667376 84.424224 
C 180.93214 21.027429 239.69205 1.700566 298.735869 21.643563 
L 301.135906 14.537944 
L 312.947107 26.443636 
L 296.335832 28.749182 
L 298.735869 21.643563 
" clip-path="url(#p2933d49890)" style="fill: #696969; stroke: #696969; stroke-width: 0.7"/>
    <path d="M 268.103358 120.51842 
C 242.01448 81.823188 195.40736 65.646036 136.667376 84.424224 
C 195.40736 65.646036 242.01448 81.823188 268.103358 120.51842 
L 274.321988 116.325731 
L 276.488736 132.95568 
L 261.884728 124.711109 
L 268.103358 120.51842 
" clip-path="url(#p2933d49890)" style="fill: #696969; stroke: #696969; stroke-width: 0.7"/>
    <path d="M 51.252893 159.747596 
C 88.555561 159.744308 122.027055 134.636076 136.667376 84.424224 
C 122.027055 134.636076 88.555561 159.744308 51.252893 159.747596 
L 51.253554 167.247596 
L 36.252893 159.748919 
L 51.252231 152.247596 
L 51.252893 159.747596 
" clip-path="url(#p2933d49890)" style="fill: #696969; stroke: #696969; stroke-width: 0.7"/>
    <path d="M 184.773274 195.42688 
C 197.019762 157.066311 182.505086 115.302264 136.667376 84.424224 
C 182.505086 115.302264 197.019762 157.066311 184.773274 195.42688 
L 191.918015 197.707816 
L 180.211402 209.716364 
L 177.628532 193.145945 
L 184.773274 195.42688 
" clip-path="url(#p2933d49890)" style="fill: #696969; stroke: #696969; stroke-width: 0.7"/>
    <path d="M 263.565104 125.341238 
C 189.711812 81.827799 109.633198 90.758878 36.252893 159.748919 
C 109.633198 90.758878 189.711812 81.827799 263.565104 125.341238 
L 267.372326 118.879422 
L 276.488736 132.95568 
L 259.757883 131.803054 
L 263.565104 125.341238 
" clip-path="url(#p2933d49890)" style="fill: #696969; stroke: #696969; stroke-width: 0.7"/>
    <path d="M 121.667376 84.425546 
C 84.364708 84.428835 50.893213 109.537066 36.252893 159.748919 
C 50.893213 109.537066 84.364708 84.428835 121.667376 84.425546 
L 121.666715 76.925546 
L 136.667376 84.424224 
L 121.668037 91.925546 
L 121.667376 84.425546 
" clip-path="url(#p2933d49890)" style="fill: #696969; stroke: #696969; stroke-width: 0.7"/>
    <path d="M 171.826024 197.279104 
C 144.717094 157.070921 96.730924 140.415106 36.252893 159.748919 
C 96.730924 140.415106 144.717094 157.070921 171.826024 197.279104 
L 178.044654 193.086415 
L 180.211402 209.716364 
L 165.607394 201.471793 
L 171.826024 197.279104 
" clip-path="url(#p2933d49890)" style="fill: #696969; stroke: #696969; stroke-width: 0.7"/>
    <path d="M 132.105505 98.713707 
C 119.859017 137.074277 134.373692 178.838324 180.211402 209.716364 
C 134.373692 178.838324 119.859017 137.074277 132.105505 98.713707 
L 124.960763 96.432771 
L 136.667376 84.424224 
L 139.250246 100.994643 
L 132.105505 98.713707 
" clip-path="url(#p2933d49890)" style="fill: #696969; stroke: #696969; stroke-width: 0.7"/>
    <path d="M 44.638271 172.186178 
C 71.747201 212.394361 119.733371 229.050176 180.211402 209.716364 
C 119.733371 229.050176 71.747201 212.394361 44.638271 172.186178 
L 38.419641 176.378867 
L 36.252893 159.748919 
L 50.856901 167.993489 
L 44.638271 172.186178 
" clip-path="url(#p2933d49890)" style="fill: #696969; stroke: #696969; stroke-width: 0.7"/>
   </g>
   <g id="VertexCollection_1">
    <path d="M 312.947107 26.443636 
C 312.947107 26.443636 312.947107 26.443636 312.947107 26.443636 
C 312.947107 26.443636 312.947107 26.443636 312.947107 26.443636 
C 312.947107 26.443636 312.947107 26.443636 312.947107 26.443636 
C 312.947107 26.443636 312.947107 26.443636 312.947107 26.443636 
C 312.947107 26.443636 312.947107 26.443636 312.947107 26.443636 
C 312.947107 26.443636 312.947107 26.443636 312.947107 26.443636 
C 312.947107 26.443636 312.947107 26.443636 312.947107 26.443636 
C 312.947107 26.443636 312.947107 26.443636 312.947107 26.443636 
z
" clip-path="url(#p2933d49890)" style="fill: #00ff58; stroke: #000000"/>
    <path d="M 276.488736 132.95568 
C 276.488736 132.95568 276.488736 132.95568 276.488736 132.95568 
C 276.488736 132.95568 276.488736 132.95568 276.488736 132.95568 
C 276.488736 132.95568 276.488736 132.95568 276.488736 132.95568 
C 276.488736 132.95568 276.488736 132.95568 276.488736 132.95568 
C 276.488736 132.95568 276.488736 132.95568 276.488736 132.95568 
C 276.488736 132.95568 276.488736 132.95568 276.488736 132.95568 
C 276.488736 132.95568 276.488736 132.95568 276.488736 132.95568 
C 276.488736 132.95568 276.488736 132.95568 276.488736 132.95568 
z
" clip-path="url(#p2933d49890)" style="fill: #00ff58; stroke: #000000"/>
    <path d="M 136.667376 84.424224 
C 136.667376 84.424224 136.667376 84.424224 136.667376 84.424224 
C 136.667376 84.424224 136.667376 84.424224 136.667376 84.424224 
C 136.667376 84.424224 136.667376 84.424224 136.667376 84.424224 
C 136.667376 84.424224 136.667376 84.424224 136.667376 84.424224 
C 136.667376 84.424224 136.667376 84.424224 136.667376 84.424224 
C 136.667376 84.424224 136.667376 84.424224 136.667376 84.424224 
C 136.667376 84.424224 136.667376 84.424224 136.667376 84.424224 
C 136.667376 84.424224 136.667376 84.424224 136.667376 84.424224 
z
" clip-path="url(#p2933d49890)" style="fill: #00ff58; stroke: #000000"/>
    <path d="M 36.252893 159.748919 
C 36.252893 159.748919 36.252893 159.748919 36.252893 159.748919 
C 36.252893 159.748919 36.252893 159.748919 36.252893 159.748919 
C 36.252893 159.748919 36.252893 159.748919 36.252893 159.748919 
C 36.252893 159.748919 36.252893 159.748919 36.252893 159.748919 
C 36.252893 159.748919 36.252893 159.748919 36.252893 159.748919 
C 36.252893 159.748919 36.252893 159.748919 36.252893 159.748919 
C 36.252893 159.748919 36.252893 159.748919 36.252893 159.748919 
C 36.252893 159.748919 36.252893 159.748919 36.252893 159.748919 
z
" clip-path="url(#p2933d49890)" style="fill: #00ff58; stroke: #000000"/>
    <path d="M 180.211402 209.716364 
C 180.211402 209.716364 180.211402 209.716364 180.211402 209.716364 
C 180.211402 209.716364 180.211402 209.716364 180.211402 209.716364 
C 180.211402 209.716364 180.211402 209.716364 180.211402 209.716364 
C 180.211402 209.716364 180.211402 209.716364 180.211402 209.716364 
C 180.211402 209.716364 180.211402 209.716364 180.211402 209.716364 
C 180.211402 209.716364 180.211402 209.716364 180.211402 209.716364 
C 180.211402 209.716364 180.211402 209.716364 180.211402 209.716364 
C 180.211402 209.716364 180.211402 209.716364 180.211402 209.716364 
z
" clip-path="url(#p2933d49890)" style="fill: #00ff58; stroke: #000000"/>
   </g>
   <g id="text_1">
    <g clip-path="url(#p2933d49890)">
     <!-- A -->
     <g transform="translate(308.842732 29.754886) scale(0.12 -0.12)">
      <defs>
       <path id="DejaVuSans-41" d="M 2188 4044 
L 1331 1722 
L 3047 1722 
L 2188 4044 
z
M 1831 4666 
L 2547 4666 
L 4325 0 
L 3669 0 
L 3244 1197 
L 1141 1197 
L 716 0 
L 50 0 
L 1831 4666 
z
" transform="scale(0.015625)"/>
      </defs>
      <use xlink:href="#DejaVuSans-41"/>
     </g>
    </g>
   </g>
   <g id="text_2">
    <g clip-path="url(#p2933d49890)">
     <!-- B -->
     <g transform="translate(272.372174 136.26693) scale(0.12 -0.12)">
      <defs>
       <path id="DejaVuSans-42" d="M 1259 2228 
L 1259 519 
L 2272 519 
Q 2781 519 3026 730 
Q 3272 941 3272 1375 
Q 3272 1813 3026 2020 
Q 2781 2228 2272 2228 
L 1259 2228 
z
M 1259 4147 
L 1259 2741 
L 2194 2741 
Q 2656 2741 2882 2914 
Q 3109 3088 3109 3444 
Q 3109 3797 2882 3972 
Q 2656 4147 2194 4147 
L 1259 4147 
z
M 628 4666 
L 2241 4666 
Q 2963 4666 3353 4366 
Q 3744 4066 3744 3513 
Q 3744 3084 3544 2831 
Q 3344 2578 2956 2516 
Q 3422 2416 3680 2098 
Q 3938 1781 3938 1306 
Q 3938 681 3513 340 
Q 3088 0 2303 0 
L 628 0 
L 628 4666 
z
" transform="scale(0.015625)"/>
      </defs>
      <use xlink:href="#DejaVuSans-42"/>
     </g>
    </g>
   </g>
   <g id="text_3">
    <g clip-path="url(#p2933d49890)">
     <!-- C -->
     <g transform="translate(132.477689 87.735474) scale(0.12 -0.12)">
      <defs>
       <path id="DejaVuSans-43" d="M 4122 4306 
L 4122 3641 
Q 3803 3938 3442 4084 
Q 3081 4231 2675 4231 
Q 1875 4231 1450 3742 
Q 1025 3253 1025 2328 
Q 1025 1406 1450 917 
Q 1875 428 2675 428 
Q 3081 428 3442 575 
Q 3803 722 4122 1019 
L 4122 359 
Q 3791 134 3420 21 
Q 3050 -91 2638 -91 
Q 1578 -91 968 557 
Q 359 1206 359 2328 
Q 359 3453 968 4101 
Q 1578 4750 2638 4750 
Q 3056 4750 3426 4639 
Q 3797 4528 4122 4306 
z
" transform="scale(0.015625)"/>
      </defs>
      <use xlink:href="#DejaVuSans-43"/>
     </g>
    </g>
   </g>
   <g id="text_4">
    <g clip-path="url(#p2933d49890)">
     <!-- D -->
     <g transform="translate(31.632893 163.060169) scale(0.12 -0.12)">
      <defs>
       <path id="DejaVuSans-44" d="M 1259 4147 
L 1259 519 
L 2022 519 
Q 2988 519 3436 956 
Q 3884 1394 3884 2338 
Q 3884 3275 3436 3711 
Q 2988 4147 2022 4147 
L 1259 4147 
z
M 628 4666 
L 1925 4666 
Q 3281 4666 3915 4102 
Q 4550 3538 4550 2338 
Q 4550 1131 3912 565 
Q 3275 0 1925 0 
L 628 0 
L 628 4666 
z
" transform="scale(0.015625)"/>
      </defs>
      <use xlink:href="#DejaVuSans-44"/>
     </g>
    </g>
   </g>
   <g id="text_5">
    <g clip-path="url(#p2933d49890)">
     <!-- E -->
     <g transform="translate(176.420152 213.027614) scale(0.12 -0.12)">
      <defs>
       <path id="DejaVuSans-45" d="M 628 4666 
L 3578 4666 
L 3578 4134 
L 1259 4134 
L 1259 2753 
L 3481 2753 
L 3481 2222 
L 1259 2222 
L 1259 531 
L 3634 531 
L 3634 0 
L 628 0 
L 628 4666 
z
" transform="scale(0.015625)"/>
      </defs>
      <use xlink:href="#DejaVuSans-45"/>
     </g>
    </g>
   </g>
   <g id="matplotlib.axis_1"/>
   <g id="matplotlib.axis_2"/>
  </g>
 </g>
 <defs>
  <clipPath id="p2933d49890">
   <rect x="7.2" y="7.2" width="334.8" height="221.76"/>
  </clipPath>
 </defs>
</svg>