<?xml version="1.0" encoding="utf-8" standalone="no"?>
<!DOCTYPE svg PUBLIC "-//W3C//DTD SVG 1.1//EN"
  "http://www.w3.org/Graphics/SVG/1.1/DTD/svg11.dtd">
<svg xmlns:xlink="http://www.w3.org/1999/xlink" width="596.579477pt" height="278.35283pt" viewBox="0 0 596.579477 278.35283" xmlns="http://www.w3.org/2000/svg" version="1.1">
 <metadata>
  <rdf:RDF xmlns:dc="http://purl.org/dc/elements/1.1/" xmlns:cc="http://creativecommons.org/ns#" xmlns:rdf="http://www.w3.org/1999/02/22-rdf-syntax-ns#">
   <cc:Work>
    <dc:type rdf:resource="http://purl.org/dc/dcmitype/StillImage"/>
    <dc:date>2025-02-18T20:38:39.728639</dc:date>
    <dc:format>image/svg+xml</dc:format>
    <dc:creator>
     <cc:Agent>
      <dc:title>Matplotlib v3.8.0, https://matplotlib.org/</dc:title>
     </cc:Agent>
    </dc:creator>
   </cc:Work>
  </rdf:RDF>
 </metadata>
 <defs>
  <style type="text/css">*{stroke-linejoin: round; stroke-linecap: butt}</style>
 </defs>
 <g id="figure_1">
  <g id="patch_1">
   <path d="M 0 278.35283 
L 596.579477 278.35283 
L 596.579477 0 
L 0 0 
z
" style="fill: #ffffff"/>
  </g>
  <g id="axes_1">
   <g id="patch_2">
    <path d="M 23.58125 244.81125 
L 581.58125 244.81125 
L 581.58125 23.05125 
L 23.58125 23.05125 
z
" style="fill: #ffffff"/>
   </g>
   <g id="patch_3">
    <path d="M 48.944886 244.81125 
L 59.404118 244.81125 
L 59.404118 230.73125 
L 48.944886 230.73125 
z
" clip-path="url(#p0bb3758c1c)" style="fill: #1f77b4"/>
   </g>
   <g id="patch_4">
    <path d="M 62.018926 244.81125 
L 72.478157 244.81125 
L 72.478157 202.57125 
L 62.018926 202.57125 
z
" clip-path="url(#p0bb3758c1c)" style="fill: #1f77b4"/>
   </g>
   <g id="patch_5">
    <path d="M 75.092965 244.81125 
L 85.552197 244.81125 
L 85.552197 244.81125 
L 75.092965 244.81125 
z
" clip-path="url(#p0bb3758c1c)" style="fill: #1f77b4"/>
   </g>
   <g id="patch_6">
    <path d="M 88.167004 244.81125 
L 98.626236 244.81125 
L 98.626236 174.41125 
L 88.167004 174.41125 
z
" clip-path="url(#p0bb3758c1c)" style="fill: #1f77b4"/>
   </g>
   <g id="patch_7">
    <path d="M 101.241044 244.81125 
L 111.700275 244.81125 
L 111.700275 244.81125 
L 101.241044 244.81125 
z
" clip-path="url(#p0bb3758c1c)" style="fill: #1f77b4"/>
   </g>
   <g id="patch_8">
    <path d="M 114.315083 244.81125 
L 124.774315 244.81125 
L 124.774315 202.57125 
L 114.315083 202.57125 
z
" clip-path="url(#p0bb3758c1c)" style="fill: #1f77b4"/>
   </g>
   <g id="patch_9">
    <path d="M 127.389123 244.81125 
L 137.848354 244.81125 
L 137.848354 244.81125 
L 127.389123 244.81125 
z
" clip-path="url(#p0bb3758c1c)" style="fill: #1f77b4"/>
   </g>
   <g id="patch_10">
    <path d="M 140.463162 244.81125 
L 150.922393 244.81125 
L 150.922393 160.33125 
L 140.463162 160.33125 
z
" clip-path="url(#p0bb3758c1c)" style="fill: #1f77b4"/>
   </g>
   <g id="patch_11">
    <path d="M 153.537201 244.81125 
L 163.996433 244.81125 
L 163.996433 146.25125 
L 153.537201 146.25125 
z
" clip-path="url(#p0bb3758c1c)" style="fill: #1f77b4"/>
   </g>
   <g id="patch_12">
    <path d="M 166.611241 244.81125 
L 177.070472 244.81125 
L 177.070472 244.81125 
L 166.611241 244.81125 
z
" clip-path="url(#p0bb3758c1c)" style="fill: #1f77b4"/>
   </g>
   <g id="patch_13">
    <path d="M 179.68528 244.81125 
L 190.144511 244.81125 
L 190.144511 160.33125 
L 179.68528 160.33125 
z
" clip-path="url(#p0bb3758c1c)" style="fill: #1f77b4"/>
   </g>
   <g id="patch_14">
    <path d="M 192.759319 244.81125 
L 203.218551 244.81125 
L 203.218551 244.81125 
L 192.759319 244.81125 
z
" clip-path="url(#p0bb3758c1c)" style="fill: #1f77b4"/>
   </g>
   <g id="patch_15">
    <path d="M 205.833359 244.81125 
L 216.29259 244.81125 
L 216.29259 188.49125 
L 205.833359 188.49125 
z
" clip-path="url(#p0bb3758c1c)" style="fill: #1f77b4"/>
   </g>
   <g id="patch_16">
    <path d="M 218.907398 244.81125 
L 229.36663 244.81125 
L 229.36663 33.61125 
L 218.907398 33.61125 
z
" clip-path="url(#p0bb3758c1c)" style="fill: #1f77b4"/>
   </g>
   <g id="patch_17">
    <path d="M 231.981437 244.81125 
L 242.440669 244.81125 
L 242.440669 202.57125 
L 231.981437 202.57125 
z
" clip-path="url(#p0bb3758c1c)" style="fill: #1f77b4"/>
   </g>
   <g id="patch_18">
    <path d="M 245.055477 244.81125 
L 255.514708 244.81125 
L 255.514708 216.65125 
L 245.055477 216.65125 
z
" clip-path="url(#p0bb3758c1c)" style="fill: #1f77b4"/>
   </g>
   <g id="patch_19">
    <path d="M 258.129516 244.81125 
L 268.588748 244.81125 
L 268.588748 216.65125 
L 258.129516 216.65125 
z
" clip-path="url(#p0bb3758c1c)" style="fill: #1f77b4"/>
   </g>
   <g id="patch_20">
    <path d="M 271.203556 244.81125 
L 281.662787 244.81125 
L 281.662787 230.73125 
L 271.203556 230.73125 
z
" clip-path="url(#p0bb3758c1c)" style="fill: #1f77b4"/>
   </g>
   <g id="patch_21">
    <path d="M 284.277595 244.81125 
L 294.736826 244.81125 
L 294.736826 244.81125 
L 284.277595 244.81125 
z
" clip-path="url(#p0bb3758c1c)" style="fill: #1f77b4"/>
   </g>
   <g id="patch_22">
    <path d="M 297.351634 244.81125 
L 307.810866 244.81125 
L 307.810866 216.65125 
L 297.351634 216.65125 
z
" clip-path="url(#p0bb3758c1c)" style="fill: #1f77b4"/>
   </g>
   <g id="patch_23">
    <path d="M 310.425674 244.81125 
L 320.884905 244.81125 
L 320.884905 216.65125 
L 310.425674 216.65125 
z
" clip-path="url(#p0bb3758c1c)" style="fill: #1f77b4"/>
   </g>
   <g id="patch_24">
    <path d="M 323.499713 244.81125 
L 333.958944 244.81125 
L 333.958944 188.49125 
L 323.499713 188.49125 
z
" clip-path="url(#p0bb3758c1c)" style="fill: #1f77b4"/>
   </g>
   <g id="patch_25">
    <path d="M 336.573752 244.81125 
L 347.032984 244.81125 
L 347.032984 230.73125 
L 336.573752 230.73125 
z
" clip-path="url(#p0bb3758c1c)" style="fill: #1f77b4"/>
   </g>
   <g id="patch_26">
    <path d="M 349.647792 244.81125 
L 360.107023 244.81125 
L 360.107023 188.49125 
L 349.647792 188.49125 
z
" clip-path="url(#p0bb3758c1c)" style="fill: #1f77b4"/>
   </g>
   <g id="patch_27">
    <path d="M 362.721831 244.81125 
L 373.181063 244.81125 
L 373.181063 230.73125 
L 362.721831 230.73125 
z
" clip-path="url(#p0bb3758c1c)" style="fill: #1f77b4"/>
   </g>
   <g id="patch_28">
    <path d="M 375.79587 244.81125 
L 386.255102 244.81125 
L 386.255102 202.57125 
L 375.79587 202.57125 
z
" clip-path="url(#p0bb3758c1c)" style="fill: #1f77b4"/>
   </g>
   <g id="patch_29">
    <path d="M 388.86991 244.81125 
L 399.329141 244.81125 
L 399.329141 202.57125 
L 388.86991 202.57125 
z
" clip-path="url(#p0bb3758c1c)" style="fill: #1f77b4"/>
   </g>
   <g id="patch_30">
    <path d="M 401.943949 244.81125 
L 412.403181 244.81125 
L 412.403181 230.73125 
L 401.943949 230.73125 
z
" clip-path="url(#p0bb3758c1c)" style="fill: #1f77b4"/>
   </g>
   <g id="patch_31">
    <path d="M 415.017989 244.81125 
L 425.47722 244.81125 
L 425.47722 230.73125 
L 415.017989 230.73125 
z
" clip-path="url(#p0bb3758c1c)" style="fill: #1f77b4"/>
   </g>
   <g id="patch_32">
    <path d="M 428.092028 244.81125 
L 438.551259 244.81125 
L 438.551259 230.73125 
L 428.092028 230.73125 
z
" clip-path="url(#p0bb3758c1c)" style="fill: #1f77b4"/>
   </g>
   <g id="patch_33">
    <path d="M 441.166067 244.81125 
L 451.625299 244.81125 
L 451.625299 202.57125 
L 441.166067 202.57125 
z
" clip-path="url(#p0bb3758c1c)" style="fill: #1f77b4"/>
   </g>
   <g id="patch_34">
    <path d="M 454.240107 244.81125 
L 464.699338 244.81125 
L 464.699338 216.65125 
L 454.240107 216.65125 
z
" clip-path="url(#p0bb3758c1c)" style="fill: #1f77b4"/>
   </g>
   <g id="patch_35">
    <path d="M 467.314146 244.81125 
L 477.773377 244.81125 
L 477.773377 230.73125 
L 467.314146 230.73125 
z
" clip-path="url(#p0bb3758c1c)" style="fill: #1f77b4"/>
   </g>
   <g id="patch_36">
    <path d="M 480.388185 244.81125 
L 490.847417 244.81125 
L 490.847417 230.73125 
L 480.388185 230.73125 
z
" clip-path="url(#p0bb3758c1c)" style="fill: #1f77b4"/>
   </g>
   <g id="patch_37">
    <path d="M 493.462225 244.81125 
L 503.921456 244.81125 
L 503.921456 244.81125 
L 493.462225 244.81125 
z
" clip-path="url(#p0bb3758c1c)" style="fill: #1f77b4"/>
   </g>
   <g id="patch_38">
    <path d="M 506.536264 244.81125 
L 516.995496 244.81125 
L 516.995496 216.65125 
L 506.536264 216.65125 
z
" clip-path="url(#p0bb3758c1c)" style="fill: #1f77b4"/>
   </g>
   <g id="patch_39">
    <path d="M 519.610303 244.81125 
L 530.069535 244.81125 
L 530.069535 202.57125 
L 519.610303 202.57125 
z
" clip-path="url(#p0bb3758c1c)" style="fill: #1f77b4"/>
   </g>
   <g id="patch_40">
    <path d="M 532.684343 244.81125 
L 543.143574 244.81125 
L 543.143574 244.81125 
L 532.684343 244.81125 
z
" clip-path="url(#p0bb3758c1c)" style="fill: #1f77b4"/>
   </g>
   <g id="patch_41">
    <path d="M 545.758382 244.81125 
L 556.217614 244.81125 
L 556.217614 146.25125 
L 545.758382 146.25125 
z
" clip-path="url(#p0bb3758c1c)" style="fill: #1f77b4"/>
   </g>
   <g id="matplotlib.axis_1">
    <g id="xtick_1">
     <g id="line2d_1">
      <defs>
       <path id="m595bd15c0a" d="M 0 0 
L 0 3.5 
" style="stroke: #000000; stroke-width: 0.8"/>
      </defs>
      <g>
       <use xlink:href="#m595bd15c0a" x="54.174502" y="244.81125" style="stroke: #000000; stroke-width: 0.8"/>
      </g>
     </g>
     <g id="text_1">
      <!-- 1869 -->
      <g transform="translate(49.594881 270.16951) rotate(-45) scale(0.1 -0.1)">
       <defs>
        <path id="STSongti-SC-Black-31" d="M 2464 365 
Q 2298 371 2045 377 
Q 1792 384 1523 384 
Q 1254 384 1001 377 
Q 749 371 582 365 
L 582 550 
L 979 608 
Q 1203 659 1203 858 
L 1203 3840 
L 442 3347 
L 333 3546 
Q 442 3616 608 3718 
Q 774 3821 960 3942 
Q 1146 4064 1331 4192 
Q 1517 4320 1670 4448 
L 1882 4448 
L 1882 858 
Q 1882 634 2106 602 
L 2464 550 
L 2464 365 
z
" transform="scale(0.015625)"/>
        <path id="STSongti-SC-Black-38" d="M 1069 2368 
Q 282 2758 282 3424 
Q 282 3622 368 3804 
Q 454 3987 617 4131 
Q 781 4275 1005 4361 
Q 1229 4448 1510 4448 
Q 1760 4448 1968 4377 
Q 2176 4307 2326 4185 
Q 2477 4064 2560 3901 
Q 2643 3738 2643 3552 
Q 2643 3366 2588 3232 
Q 2534 3098 2438 2992 
Q 2342 2886 2201 2793 
Q 2061 2701 1888 2598 
Q 2202 2445 2381 2297 
Q 2560 2150 2646 2006 
Q 2733 1862 2752 1718 
Q 2771 1574 2771 1434 
Q 2771 1190 2665 979 
Q 2560 768 2384 614 
Q 2208 461 1971 371 
Q 1734 282 1466 282 
Q 1184 282 950 362 
Q 717 442 550 576 
Q 384 710 294 892 
Q 205 1075 205 1280 
Q 205 1434 246 1584 
Q 288 1734 390 1875 
Q 493 2016 659 2137 
Q 826 2259 1069 2368 
z
M 1683 2707 
Q 1920 2854 2022 3046 
Q 2125 3238 2125 3526 
Q 2125 3827 1968 4019 
Q 1811 4211 1472 4211 
Q 1158 4211 1011 4035 
Q 864 3859 864 3597 
Q 864 3334 1046 3126 
Q 1229 2918 1683 2707 
z
M 1254 2266 
Q 1107 2176 1011 2077 
Q 915 1978 860 1866 
Q 806 1754 784 1622 
Q 762 1491 762 1331 
Q 762 941 976 710 
Q 1190 480 1517 480 
Q 2163 480 2163 1235 
Q 2163 1414 2108 1555 
Q 2054 1696 1942 1817 
Q 1830 1939 1657 2048 
Q 1485 2157 1254 2266 
z
" transform="scale(0.015625)"/>
        <path id="STSongti-SC-Black-36" d="M 2458 4467 
L 2509 4346 
Q 2138 4141 1846 3926 
Q 1555 3712 1356 3430 
Q 1158 3149 1056 2761 
Q 954 2374 954 1824 
Q 954 1645 973 1414 
Q 992 1184 1053 976 
Q 1114 768 1235 627 
Q 1357 486 1562 486 
Q 1824 486 1987 739 
Q 2150 992 2150 1562 
Q 2150 2042 1996 2282 
Q 1843 2522 1555 2522 
Q 1434 2522 1318 2470 
L 1267 2637 
Q 1370 2682 1482 2704 
Q 1594 2726 1747 2726 
Q 2278 2726 2560 2425 
Q 2842 2125 2842 1626 
Q 2842 1318 2736 1072 
Q 2630 826 2451 650 
Q 2272 474 2035 378 
Q 1798 282 1530 282 
Q 1190 282 944 403 
Q 698 525 534 739 
Q 371 954 294 1242 
Q 218 1530 218 1862 
Q 218 2426 394 2864 
Q 570 3302 874 3622 
Q 1178 3942 1587 4150 
Q 1997 4358 2458 4467 
z
" transform="scale(0.015625)"/>
        <path id="STSongti-SC-Black-39" d="M 1658 2022 
Q 1485 1939 1299 1939 
Q 1069 1939 864 2009 
Q 659 2080 505 2221 
Q 352 2362 265 2579 
Q 179 2797 179 3091 
Q 179 3386 281 3635 
Q 384 3885 560 4067 
Q 736 4250 969 4349 
Q 1203 4448 1466 4448 
Q 1747 4448 1984 4339 
Q 2221 4230 2390 4022 
Q 2560 3814 2656 3520 
Q 2752 3226 2752 2861 
Q 2752 2374 2582 1932 
Q 2413 1491 2118 1142 
Q 1824 794 1417 560 
Q 1011 326 544 262 
L 518 403 
Q 915 506 1187 742 
Q 1459 979 1628 1308 
Q 1798 1638 1872 2051 
Q 1946 2464 1946 2918 
Q 1946 3194 1930 3446 
Q 1914 3699 1866 3891 
Q 1818 4083 1722 4195 
Q 1626 4307 1466 4307 
Q 1318 4307 1219 4204 
Q 1120 4102 1059 3939 
Q 998 3776 972 3571 
Q 947 3366 947 3162 
Q 947 2989 982 2806 
Q 1018 2624 1088 2477 
Q 1158 2330 1260 2234 
Q 1363 2138 1498 2138 
Q 1587 2138 1638 2157 
L 1658 2022 
z
" transform="scale(0.015625)"/>
       </defs>
       <use xlink:href="#STSongti-SC-Black-31"/>
       <use xlink:href="#STSongti-SC-Black-38" x="46.899994"/>
       <use xlink:href="#STSongti-SC-Black-36" x="93.799988"/>
       <use xlink:href="#STSongti-SC-Black-39" x="140.699982"/>
      </g>
     </g>
    </g>
    <g id="xtick_2">
     <g id="line2d_2">
      <g>
       <use xlink:href="#m595bd15c0a" x="80.322581" y="244.81125" style="stroke: #000000; stroke-width: 0.8"/>
      </g>
     </g>
     <g id="text_2">
      <!-- 1877 -->
      <g transform="translate(75.74296 270.16951) rotate(-45) scale(0.1 -0.1)">
       <defs>
        <path id="STSongti-SC-Black-37" d="M 358 4384 
L 2822 4384 
L 2822 4275 
Q 2714 4083 2522 3596 
Q 2330 3110 2042 2310 
Q 1485 736 1427 384 
L 1043 384 
Q 1120 717 1222 1065 
Q 1325 1414 1462 1817 
Q 1600 2221 1779 2691 
Q 1958 3162 2189 3731 
L 634 3731 
Q 467 3731 461 3648 
L 410 3379 
L 269 3379 
L 358 4384 
z
" transform="scale(0.015625)"/>
       </defs>
       <use xlink:href="#STSongti-SC-Black-31"/>
       <use xlink:href="#STSongti-SC-Black-38" x="46.899994"/>
       <use xlink:href="#STSongti-SC-Black-37" x="93.799988"/>
       <use xlink:href="#STSongti-SC-Black-37" x="140.699982"/>
      </g>
     </g>
    </g>
    <g id="xtick_3">
     <g id="line2d_3">
      <g>
       <use xlink:href="#m595bd15c0a" x="106.47066" y="244.81125" style="stroke: #000000; stroke-width: 0.8"/>
      </g>
     </g>
     <g id="text_3">
      <!-- 1885 -->
      <g transform="translate(101.891038 270.16951) rotate(-45) scale(0.1 -0.1)">
       <defs>
        <path id="STSongti-SC-Black-35" d="M 2490 3763 
L 1536 3763 
Q 1286 3763 1094 3760 
Q 902 3757 877 3744 
L 819 2880 
Q 960 2950 1145 2982 
Q 1331 3014 1478 3014 
Q 1805 3014 2051 2908 
Q 2298 2803 2464 2627 
Q 2630 2451 2713 2220 
Q 2797 1990 2797 1741 
Q 2797 1414 2662 1145 
Q 2528 877 2310 685 
Q 2093 493 1817 387 
Q 1542 282 1254 282 
Q 1107 282 934 310 
Q 762 339 611 393 
Q 461 448 361 528 
Q 262 608 262 717 
Q 262 794 313 854 
Q 365 915 435 950 
Q 506 986 582 986 
Q 659 986 710 941 
Q 864 813 963 723 
Q 1062 634 1139 576 
Q 1216 518 1286 492 
Q 1357 467 1453 467 
Q 1632 467 1766 550 
Q 1901 634 1993 778 
Q 2086 922 2134 1114 
Q 2182 1306 2182 1523 
Q 2182 1728 2118 1897 
Q 2054 2067 1939 2192 
Q 1824 2317 1667 2387 
Q 1510 2458 1318 2458 
Q 1101 2458 957 2410 
Q 813 2362 723 2272 
L 614 2272 
L 736 4384 
L 1542 4384 
Q 1792 4384 1952 4384 
Q 2112 4384 2205 4400 
Q 2298 4416 2336 4451 
Q 2374 4486 2387 4557 
L 2547 4557 
L 2490 3763 
z
" transform="scale(0.015625)"/>
       </defs>
       <use xlink:href="#STSongti-SC-Black-31"/>
       <use xlink:href="#STSongti-SC-Black-38" x="46.899994"/>
       <use xlink:href="#STSongti-SC-Black-38" x="93.799988"/>
       <use xlink:href="#STSongti-SC-Black-35" x="140.699982"/>
      </g>
     </g>
    </g>
    <g id="xtick_4">
     <g id="line2d_4">
      <g>
       <use xlink:href="#m595bd15c0a" x="132.618738" y="244.81125" style="stroke: #000000; stroke-width: 0.8"/>
      </g>
     </g>
     <g id="text_4">
      <!-- 1893 -->
      <g transform="translate(128.039117 270.16951) rotate(-45) scale(0.1 -0.1)">
       <defs>
        <path id="STSongti-SC-Black-33" d="M 576 3430 
L 474 3526 
Q 550 3731 646 3900 
Q 742 4070 876 4192 
Q 1011 4314 1193 4381 
Q 1376 4448 1619 4448 
Q 1779 4448 1939 4409 
Q 2099 4371 2224 4288 
Q 2349 4205 2425 4083 
Q 2502 3962 2502 3789 
Q 2502 3539 2281 3289 
Q 2061 3040 1683 2822 
Q 1939 2842 2153 2771 
Q 2368 2701 2518 2560 
Q 2669 2419 2752 2214 
Q 2835 2010 2835 1760 
Q 2835 1446 2707 1174 
Q 2579 902 2355 704 
Q 2131 506 1833 394 
Q 1536 282 1203 282 
Q 762 282 518 403 
Q 275 525 275 717 
Q 275 787 323 854 
Q 371 922 457 950 
Q 544 979 653 950 
Q 762 922 890 800 
Q 986 704 1053 640 
Q 1120 576 1174 541 
Q 1229 506 1277 490 
Q 1325 474 1389 474 
Q 1581 474 1725 570 
Q 1869 666 1965 826 
Q 2061 986 2105 1184 
Q 2150 1382 2150 1587 
Q 2150 1997 1955 2198 
Q 1760 2400 1498 2400 
Q 1331 2400 1206 2345 
Q 1082 2291 954 2182 
L 845 2330 
Q 909 2387 979 2444 
Q 1050 2502 1126 2560 
Q 1478 2822 1676 3030 
Q 1875 3238 1875 3437 
Q 1875 3686 1731 3824 
Q 1587 3962 1306 3962 
Q 1101 3962 902 3843 
Q 704 3725 576 3430 
z
" transform="scale(0.015625)"/>
       </defs>
       <use xlink:href="#STSongti-SC-Black-31"/>
       <use xlink:href="#STSongti-SC-Black-38" x="46.899994"/>
       <use xlink:href="#STSongti-SC-Black-39" x="93.799988"/>
       <use xlink:href="#STSongti-SC-Black-33" x="140.699982"/>
      </g>
     </g>
    </g>
    <g id="xtick_5">
     <g id="line2d_5">
      <g>
       <use xlink:href="#m595bd15c0a" x="158.766817" y="244.81125" style="stroke: #000000; stroke-width: 0.8"/>
      </g>
     </g>
     <g id="text_5">
      <!-- 1901 -->
      <g transform="translate(154.187196 270.16951) rotate(-45) scale(0.1 -0.1)">
       <defs>
        <path id="STSongti-SC-Black-30" d="M 1517 4448 
Q 1792 4448 2045 4285 
Q 2298 4122 2486 3840 
Q 2675 3558 2787 3177 
Q 2899 2797 2899 2362 
Q 2899 1933 2790 1555 
Q 2682 1178 2493 893 
Q 2304 608 2054 445 
Q 1805 282 1523 282 
Q 1248 282 995 442 
Q 742 602 550 880 
Q 358 1158 246 1539 
Q 134 1920 134 2355 
Q 134 2797 246 3181 
Q 358 3565 547 3846 
Q 736 4128 985 4288 
Q 1235 4448 1517 4448 
z
M 1517 518 
Q 1869 518 1997 966 
Q 2125 1414 2125 2362 
Q 2125 3309 1993 3760 
Q 1862 4211 1517 4211 
Q 1171 4211 1040 3763 
Q 909 3315 909 2362 
Q 909 518 1517 518 
z
" transform="scale(0.015625)"/>
       </defs>
       <use xlink:href="#STSongti-SC-Black-31"/>
       <use xlink:href="#STSongti-SC-Black-39" x="46.899994"/>
       <use xlink:href="#STSongti-SC-Black-30" x="93.799988"/>
       <use xlink:href="#STSongti-SC-Black-31" x="140.699982"/>
      </g>
     </g>
    </g>
    <g id="xtick_6">
     <g id="line2d_6">
      <g>
       <use xlink:href="#m595bd15c0a" x="184.914896" y="244.81125" style="stroke: #000000; stroke-width: 0.8"/>
      </g>
     </g>
     <g id="text_6">
      <!-- 1909 -->
      <g transform="translate(180.335274 270.16951) rotate(-45) scale(0.1 -0.1)">
       <use xlink:href="#STSongti-SC-Black-31"/>
       <use xlink:href="#STSongti-SC-Black-39" x="46.899994"/>
       <use xlink:href="#STSongti-SC-Black-30" x="93.799988"/>
       <use xlink:href="#STSongti-SC-Black-39" x="140.699982"/>
      </g>
     </g>
    </g>
    <g id="xtick_7">
     <g id="line2d_7">
      <g>
       <use xlink:href="#m595bd15c0a" x="211.062974" y="244.81125" style="stroke: #000000; stroke-width: 0.8"/>
      </g>
     </g>
     <g id="text_7">
      <!-- 1917 -->
      <g transform="translate(206.483353 270.16951) rotate(-45) scale(0.1 -0.1)">
       <use xlink:href="#STSongti-SC-Black-31"/>
       <use xlink:href="#STSongti-SC-Black-39" x="46.899994"/>
       <use xlink:href="#STSongti-SC-Black-31" x="93.799988"/>
       <use xlink:href="#STSongti-SC-Black-37" x="140.699982"/>
      </g>
     </g>
    </g>
    <g id="xtick_8">
     <g id="line2d_8">
      <g>
       <use xlink:href="#m595bd15c0a" x="237.211053" y="244.81125" style="stroke: #000000; stroke-width: 0.8"/>
      </g>
     </g>
     <g id="text_8">
      <!-- 1925 -->
      <g transform="translate(232.631432 270.16951) rotate(-45) scale(0.1 -0.1)">
       <defs>
        <path id="STSongti-SC-Black-32" d="M 2726 365 
Q 2496 371 2227 377 
Q 1958 384 1542 384 
Q 1120 384 777 381 
Q 435 378 211 365 
Q 230 518 262 659 
Q 294 800 377 957 
Q 461 1114 605 1299 
Q 749 1485 992 1734 
L 1229 1978 
Q 1478 2227 1625 2412 
Q 1773 2598 1849 2748 
Q 1926 2899 1945 3033 
Q 1965 3168 1965 3322 
Q 1965 3622 1779 3801 
Q 1594 3981 1280 3981 
Q 954 3981 746 3769 
Q 538 3558 461 3162 
L 262 3238 
Q 352 3827 694 4137 
Q 1037 4448 1549 4448 
Q 1779 4448 1984 4384 
Q 2189 4320 2342 4195 
Q 2496 4070 2589 3888 
Q 2682 3706 2682 3469 
Q 2682 3219 2592 3008 
Q 2502 2797 2348 2608 
Q 2195 2419 1993 2246 
Q 1792 2074 1574 1907 
L 1382 1754 
Q 1216 1619 1030 1427 
Q 845 1235 685 979 
L 2074 979 
Q 2234 979 2317 1011 
Q 2400 1043 2448 1116 
Q 2496 1190 2531 1302 
Q 2566 1414 2624 1568 
L 2822 1568 
L 2726 365 
z
" transform="scale(0.015625)"/>
       </defs>
       <use xlink:href="#STSongti-SC-Black-31"/>
       <use xlink:href="#STSongti-SC-Black-39" x="46.899994"/>
       <use xlink:href="#STSongti-SC-Black-32" x="93.799988"/>
       <use xlink:href="#STSongti-SC-Black-35" x="140.699982"/>
      </g>
     </g>
    </g>
    <g id="xtick_9">
     <g id="line2d_9">
      <g>
       <use xlink:href="#m595bd15c0a" x="263.359132" y="244.81125" style="stroke: #000000; stroke-width: 0.8"/>
      </g>
     </g>
     <g id="text_9">
      <!-- 1933 -->
      <g transform="translate(258.779511 270.16951) rotate(-45) scale(0.1 -0.1)">
       <use xlink:href="#STSongti-SC-Black-31"/>
       <use xlink:href="#STSongti-SC-Black-39" x="46.899994"/>
       <use xlink:href="#STSongti-SC-Black-33" x="93.799988"/>
       <use xlink:href="#STSongti-SC-Black-33" x="140.699982"/>
      </g>
     </g>
    </g>
    <g id="xtick_10">
     <g id="line2d_10">
      <g>
       <use xlink:href="#m595bd15c0a" x="289.507211" y="244.81125" style="stroke: #000000; stroke-width: 0.8"/>
      </g>
     </g>
     <g id="text_10">
      <!-- 1941 -->
      <g transform="translate(284.927589 270.16951) rotate(-45) scale(0.1 -0.1)">
       <defs>
        <path id="STSongti-SC-Black-34" d="M 2086 4448 
L 2387 4448 
L 2387 1843 
L 2918 1843 
L 2918 1434 
L 2387 1434 
L 2387 282 
L 1670 282 
L 1670 1434 
L 122 1434 
L 122 1760 
L 966 2912 
Q 1254 3296 1529 3680 
Q 1805 4064 2086 4448 
z
M 1670 1843 
L 1670 3469 
Q 1453 3168 1289 2944 
Q 1126 2720 992 2537 
Q 858 2355 739 2188 
Q 621 2022 493 1843 
L 1670 1843 
z
" transform="scale(0.015625)"/>
       </defs>
       <use xlink:href="#STSongti-SC-Black-31"/>
       <use xlink:href="#STSongti-SC-Black-39" x="46.899994"/>
       <use xlink:href="#STSongti-SC-Black-34" x="93.799988"/>
       <use xlink:href="#STSongti-SC-Black-31" x="140.699982"/>
      </g>
     </g>
    </g>
    <g id="xtick_11">
     <g id="line2d_11">
      <g>
       <use xlink:href="#m595bd15c0a" x="315.655289" y="244.81125" style="stroke: #000000; stroke-width: 0.8"/>
      </g>
     </g>
     <g id="text_11">
      <!-- 1949 -->
      <g transform="translate(311.075668 270.16951) rotate(-45) scale(0.1 -0.1)">
       <use xlink:href="#STSongti-SC-Black-31"/>
       <use xlink:href="#STSongti-SC-Black-39" x="46.899994"/>
       <use xlink:href="#STSongti-SC-Black-34" x="93.799988"/>
       <use xlink:href="#STSongti-SC-Black-39" x="140.699982"/>
      </g>
     </g>
    </g>
    <g id="xtick_12">
     <g id="line2d_12">
      <g>
       <use xlink:href="#m595bd15c0a" x="341.803368" y="244.81125" style="stroke: #000000; stroke-width: 0.8"/>
      </g>
     </g>
     <g id="text_12">
      <!-- 1957 -->
      <g transform="translate(337.223747 270.16951) rotate(-45) scale(0.1 -0.1)">
       <use xlink:href="#STSongti-SC-Black-31"/>
       <use xlink:href="#STSongti-SC-Black-39" x="46.899994"/>
       <use xlink:href="#STSongti-SC-Black-35" x="93.799988"/>
       <use xlink:href="#STSongti-SC-Black-37" x="140.699982"/>
      </g>
     </g>
    </g>
    <g id="xtick_13">
     <g id="line2d_13">
      <g>
       <use xlink:href="#m595bd15c0a" x="367.951447" y="244.81125" style="stroke: #000000; stroke-width: 0.8"/>
      </g>
     </g>
     <g id="text_13">
      <!-- 1965 -->
      <g transform="translate(363.371826 270.16951) rotate(-45) scale(0.1 -0.1)">
       <use xlink:href="#STSongti-SC-Black-31"/>
       <use xlink:href="#STSongti-SC-Black-39" x="46.899994"/>
       <use xlink:href="#STSongti-SC-Black-36" x="93.799988"/>
       <use xlink:href="#STSongti-SC-Black-35" x="140.699982"/>
      </g>
     </g>
    </g>
    <g id="xtick_14">
     <g id="line2d_14">
      <g>
       <use xlink:href="#m595bd15c0a" x="394.099526" y="244.81125" style="stroke: #000000; stroke-width: 0.8"/>
      </g>
     </g>
     <g id="text_14">
      <!-- 1973 -->
      <g transform="translate(389.519904 270.16951) rotate(-45) scale(0.1 -0.1)">
       <use xlink:href="#STSongti-SC-Black-31"/>
       <use xlink:href="#STSongti-SC-Black-39" x="46.899994"/>
       <use xlink:href="#STSongti-SC-Black-37" x="93.799988"/>
       <use xlink:href="#STSongti-SC-Black-33" x="140.699982"/>
      </g>
     </g>
    </g>
    <g id="xtick_15">
     <g id="line2d_15">
      <g>
       <use xlink:href="#m595bd15c0a" x="420.247604" y="244.81125" style="stroke: #000000; stroke-width: 0.8"/>
      </g>
     </g>
     <g id="text_15">
      <!-- 1981 -->
      <g transform="translate(415.667983 270.16951) rotate(-45) scale(0.1 -0.1)">
       <use xlink:href="#STSongti-SC-Black-31"/>
       <use xlink:href="#STSongti-SC-Black-39" x="46.899994"/>
       <use xlink:href="#STSongti-SC-Black-38" x="93.799988"/>
       <use xlink:href="#STSongti-SC-Black-31" x="140.699982"/>
      </g>
     </g>
    </g>
    <g id="xtick_16">
     <g id="line2d_16">
      <g>
       <use xlink:href="#m595bd15c0a" x="446.395683" y="244.81125" style="stroke: #000000; stroke-width: 0.8"/>
      </g>
     </g>
     <g id="text_16">
      <!-- 1989 -->
      <g transform="translate(441.816062 270.16951) rotate(-45) scale(0.1 -0.1)">
       <use xlink:href="#STSongti-SC-Black-31"/>
       <use xlink:href="#STSongti-SC-Black-39" x="46.899994"/>
       <use xlink:href="#STSongti-SC-Black-38" x="93.799988"/>
       <use xlink:href="#STSongti-SC-Black-39" x="140.699982"/>
      </g>
     </g>
    </g>
    <g id="xtick_17">
     <g id="line2d_17">
      <g>
       <use xlink:href="#m595bd15c0a" x="472.543762" y="244.81125" style="stroke: #000000; stroke-width: 0.8"/>
      </g>
     </g>
     <g id="text_17">
      <!-- 1997 -->
      <g transform="translate(467.96414 270.16951) rotate(-45) scale(0.1 -0.1)">
       <use xlink:href="#STSongti-SC-Black-31"/>
       <use xlink:href="#STSongti-SC-Black-39" x="46.899994"/>
       <use xlink:href="#STSongti-SC-Black-39" x="93.799988"/>
       <use xlink:href="#STSongti-SC-Black-37" x="140.699982"/>
      </g>
     </g>
    </g>
    <g id="xtick_18">
     <g id="line2d_18">
      <g>
       <use xlink:href="#m595bd15c0a" x="498.69184" y="244.81125" style="stroke: #000000; stroke-width: 0.8"/>
      </g>
     </g>
     <g id="text_18">
      <!-- 2005 -->
      <g transform="translate(494.112219 270.16951) rotate(-45) scale(0.1 -0.1)">
       <use xlink:href="#STSongti-SC-Black-32"/>
       <use xlink:href="#STSongti-SC-Black-30" x="46.899994"/>
       <use xlink:href="#STSongti-SC-Black-30" x="93.799988"/>
       <use xlink:href="#STSongti-SC-Black-35" x="140.699982"/>
      </g>
     </g>
    </g>
    <g id="xtick_19">
     <g id="line2d_19">
      <g>
       <use xlink:href="#m595bd15c0a" x="524.839919" y="244.81125" style="stroke: #000000; stroke-width: 0.8"/>
      </g>
     </g>
     <g id="text_19">
      <!-- 2013 -->
      <g transform="translate(520.260298 270.16951) rotate(-45) scale(0.1 -0.1)">
       <use xlink:href="#STSongti-SC-Black-32"/>
       <use xlink:href="#STSongti-SC-Black-30" x="46.899994"/>
       <use xlink:href="#STSongti-SC-Black-31" x="93.799988"/>
       <use xlink:href="#STSongti-SC-Black-33" x="140.699982"/>
      </g>
     </g>
    </g>
    <g id="xtick_20">
     <g id="line2d_20">
      <g>
       <use xlink:href="#m595bd15c0a" x="550.987998" y="244.81125" style="stroke: #000000; stroke-width: 0.8"/>
      </g>
     </g>
     <g id="text_20">
      <!-- 2021 -->
      <g transform="translate(546.408377 270.16951) rotate(-45) scale(0.1 -0.1)">
       <use xlink:href="#STSongti-SC-Black-32"/>
       <use xlink:href="#STSongti-SC-Black-30" x="46.899994"/>
       <use xlink:href="#STSongti-SC-Black-32" x="93.799988"/>
       <use xlink:href="#STSongti-SC-Black-31" x="140.699982"/>
      </g>
     </g>
    </g>
   </g>
   <g id="matplotlib.axis_2">
    <g id="ytick_1">
     <g id="line2d_21">
      <defs>
       <path id="m68cbd9a136" d="M 0 0 
L -3.5 0 
" style="stroke: #000000; stroke-width: 0.8"/>
      </defs>
      <g>
       <use xlink:href="#m68cbd9a136" x="23.58125" y="244.81125" style="stroke: #000000; stroke-width: 0.8"/>
      </g>
     </g>
     <g id="text_21">
      <!-- 0 -->
      <g transform="translate(11.890625 248.41125) scale(0.1 -0.1)">
       <use xlink:href="#STSongti-SC-Black-30"/>
      </g>
     </g>
    </g>
    <g id="ytick_2">
     <g id="line2d_22">
      <g>
       <use xlink:href="#m68cbd9a136" x="23.58125" y="216.65125" style="stroke: #000000; stroke-width: 0.8"/>
      </g>
     </g>
     <g id="text_22">
      <!-- 2 -->
      <g transform="translate(11.890625 220.25125) scale(0.1 -0.1)">
       <use xlink:href="#STSongti-SC-Black-32"/>
      </g>
     </g>
    </g>
    <g id="ytick_3">
     <g id="line2d_23">
      <g>
       <use xlink:href="#m68cbd9a136" x="23.58125" y="188.49125" style="stroke: #000000; stroke-width: 0.8"/>
      </g>
     </g>
     <g id="text_23">
      <!-- 4 -->
      <g transform="translate(11.890625 192.09125) scale(0.1 -0.1)">
       <use xlink:href="#STSongti-SC-Black-34"/>
      </g>
     </g>
    </g>
    <g id="ytick_4">
     <g id="line2d_24">
      <g>
       <use xlink:href="#m68cbd9a136" x="23.58125" y="160.33125" style="stroke: #000000; stroke-width: 0.8"/>
      </g>
     </g>
     <g id="text_24">
      <!-- 6 -->
      <g transform="translate(11.890625 163.93125) scale(0.1 -0.1)">
       <use xlink:href="#STSongti-SC-Black-36"/>
      </g>
     </g>
    </g>
    <g id="ytick_5">
     <g id="line2d_25">
      <g>
       <use xlink:href="#m68cbd9a136" x="23.58125" y="132.17125" style="stroke: #000000; stroke-width: 0.8"/>
      </g>
     </g>
     <g id="text_25">
      <!-- 8 -->
      <g transform="translate(11.890625 135.77125) scale(0.1 -0.1)">
       <use xlink:href="#STSongti-SC-Black-38"/>
      </g>
     </g>
    </g>
    <g id="ytick_6">
     <g id="line2d_26">
      <g>
       <use xlink:href="#m68cbd9a136" x="23.58125" y="104.01125" style="stroke: #000000; stroke-width: 0.8"/>
      </g>
     </g>
     <g id="text_26">
      <!-- 10 -->
      <g transform="translate(7.2 107.61125) scale(0.1 -0.1)">
       <use xlink:href="#STSongti-SC-Black-31"/>
       <use xlink:href="#STSongti-SC-Black-30" x="46.899994"/>
      </g>
     </g>
    </g>
    <g id="ytick_7">
     <g id="line2d_27">
      <g>
       <use xlink:href="#m68cbd9a136" x="23.58125" y="75.85125" style="stroke: #000000; stroke-width: 0.8"/>
      </g>
     </g>
     <g id="text_27">
      <!-- 12 -->
      <g transform="translate(7.2 79.45125) scale(0.1 -0.1)">
       <use xlink:href="#STSongti-SC-Black-31"/>
       <use xlink:href="#STSongti-SC-Black-32" x="46.899994"/>
      </g>
     </g>
    </g>
    <g id="ytick_8">
     <g id="line2d_28">
      <g>
       <use xlink:href="#m68cbd9a136" x="23.58125" y="47.69125" style="stroke: #000000; stroke-width: 0.8"/>
      </g>
     </g>
     <g id="text_28">
      <!-- 14 -->
      <g transform="translate(7.2 51.29125) scale(0.1 -0.1)">
       <use xlink:href="#STSongti-SC-Black-31"/>
       <use xlink:href="#STSongti-SC-Black-34" x="46.899994"/>
      </g>
     </g>
    </g>
   </g>
   <g id="patch_42">
    <path d="M 23.58125 244.81125 
L 23.58125 23.05125 
" style="fill: none; stroke: #000000; stroke-width: 0.8; stroke-linejoin: miter; stroke-linecap: square"/>
   </g>
   <g id="patch_43">
    <path d="M 581.58125 244.81125 
L 581.58125 23.05125 
" style="fill: none; stroke: #000000; stroke-width: 0.8; stroke-linejoin: miter; stroke-linecap: square"/>
   </g>
   <g id="patch_44">
    <path d="M 23.58125 244.81125 
L 581.58125 244.81125 
" style="fill: none; stroke: #000000; stroke-width: 0.8; stroke-linejoin: miter; stroke-linecap: square"/>
   </g>
   <g id="patch_45">
    <path d="M 23.58125 23.05125 
L 581.58125 23.05125 
" style="fill: none; stroke: #000000; stroke-width: 0.8; stroke-linejoin: miter; stroke-linecap: square"/>
   </g>
   <g id="text_29">
    <!-- 2021-Biden -->
    <g transform="translate(556.079167 132.578555) rotate(-45) scale(0.1 -0.1)">
     <defs>
      <path id="STSongti-SC-Black-2d" d="M 243 1773 
L 1760 1773 
L 1760 1498 
L 243 1498 
L 243 1773 
z
" transform="scale(0.015625)"/>
      <path id="STSongti-SC-Black-42" d="M 160 4173 
L 160 4365 
L 538 4384 
Q 1139 4416 1523 4432 
Q 1907 4448 2010 4448 
Q 2285 4448 2563 4406 
Q 2842 4365 3062 4262 
Q 3283 4160 3420 3984 
Q 3558 3808 3558 3539 
Q 3558 3386 3491 3248 
Q 3424 3110 3309 3001 
Q 3194 2893 3037 2813 
Q 2880 2733 2701 2694 
Q 2963 2656 3187 2582 
Q 3411 2509 3574 2381 
Q 3738 2253 3830 2061 
Q 3923 1869 3923 1594 
Q 3923 1325 3776 1101 
Q 3629 877 3376 717 
Q 3123 557 2790 467 
Q 2458 378 2086 378 
Q 1734 378 1388 381 
Q 1043 384 691 384 
L 173 384 
L 173 582 
L 493 659 
Q 608 691 662 755 
Q 717 819 717 1005 
L 717 3923 
Q 717 3974 713 4006 
Q 710 4038 681 4064 
Q 653 4090 595 4106 
Q 538 4122 429 4134 
L 160 4173 
z
M 1510 2714 
Q 1562 2701 1670 2697 
Q 1779 2694 1990 2694 
Q 2349 2694 2531 2905 
Q 2714 3117 2714 3520 
Q 2714 3686 2656 3811 
Q 2598 3936 2499 4022 
Q 2400 4109 2269 4153 
Q 2138 4198 1997 4198 
Q 1741 4198 1510 4141 
L 1510 2714 
z
M 1510 2432 
L 1510 1101 
Q 1510 858 1689 736 
Q 1869 614 2189 614 
Q 2573 614 2793 854 
Q 3014 1094 3014 1491 
Q 3014 1978 2758 2218 
Q 2502 2458 2003 2458 
Q 1894 2458 1766 2451 
Q 1638 2445 1510 2432 
z
" transform="scale(0.015625)"/>
      <path id="STSongti-SC-Black-69" d="M 986 4320 
Q 1152 4320 1270 4195 
Q 1389 4070 1389 3904 
Q 1389 3757 1270 3635 
Q 1152 3514 979 3514 
Q 813 3514 701 3626 
Q 589 3738 589 3904 
Q 589 4070 704 4195 
Q 819 4320 986 4320 
z
M 1632 358 
Q 1530 371 1325 377 
Q 1120 384 864 384 
Q 608 384 403 377 
Q 198 371 96 358 
L 96 525 
L 339 589 
Q 538 627 538 826 
L 538 1978 
Q 538 2131 461 2201 
Q 384 2272 154 2323 
L 154 2477 
Q 262 2502 403 2550 
Q 544 2598 678 2659 
Q 813 2720 928 2793 
Q 1043 2867 1107 2944 
Q 1152 2944 1190 2941 
Q 1229 2938 1274 2938 
L 1274 806 
Q 1274 710 1302 662 
Q 1331 614 1414 595 
L 1632 525 
L 1632 358 
z
" transform="scale(0.015625)"/>
      <path id="STSongti-SC-Black-64" d="M 2054 3872 
Q 2054 3994 2041 4067 
Q 2029 4141 1977 4189 
Q 1926 4237 1827 4275 
Q 1728 4314 1555 4358 
L 1555 4461 
Q 1658 4467 1808 4480 
Q 1958 4493 2112 4512 
Q 2266 4531 2406 4553 
Q 2547 4576 2630 4608 
L 2790 4608 
L 2790 883 
Q 2790 768 2800 704 
Q 2810 640 2854 611 
Q 2899 582 2985 576 
Q 3072 570 3226 563 
L 3226 397 
Q 3104 371 2941 348 
Q 2778 326 2608 307 
Q 2438 288 2291 272 
Q 2144 256 2054 250 
L 2054 672 
Q 1856 512 1667 397 
Q 1478 282 1216 282 
Q 998 282 806 339 
Q 614 397 461 582 
Q 307 768 233 998 
Q 160 1229 160 1498 
Q 160 1862 281 2134 
Q 403 2406 595 2585 
Q 787 2765 1024 2851 
Q 1261 2938 1491 2938 
Q 1696 2938 1830 2890 
Q 1965 2842 2054 2765 
L 2054 3872 
z
M 2054 877 
L 2054 1952 
Q 2054 2086 2035 2211 
Q 2016 2336 1965 2435 
Q 1914 2534 1814 2592 
Q 1715 2650 1555 2650 
Q 1414 2650 1305 2570 
Q 1197 2490 1120 2349 
Q 1043 2208 1001 2022 
Q 960 1837 960 1619 
Q 960 1222 1107 966 
Q 1254 710 1555 710 
Q 1754 710 1856 755 
Q 1958 800 2054 877 
z
" transform="scale(0.015625)"/>
      <path id="STSongti-SC-Black-65" d="M 2515 1888 
L 928 1888 
Q 915 1824 912 1811 
Q 909 1798 909 1734 
Q 909 1530 966 1360 
Q 1024 1190 1129 1065 
Q 1235 941 1385 870 
Q 1536 800 1715 800 
Q 1939 800 2128 861 
Q 2317 922 2528 1126 
L 2554 1030 
Q 2477 883 2377 748 
Q 2278 614 2137 512 
Q 1997 410 1808 346 
Q 1619 282 1363 282 
Q 1094 282 870 374 
Q 646 467 489 640 
Q 333 813 246 1056 
Q 160 1299 160 1600 
Q 160 1901 253 2147 
Q 346 2394 515 2570 
Q 685 2746 928 2842 
Q 1171 2938 1472 2938 
Q 1747 2938 1939 2854 
Q 2131 2771 2256 2627 
Q 2381 2483 2441 2291 
Q 2502 2099 2515 1888 
z
M 960 2125 
L 1562 2125 
Q 1734 2125 1734 2291 
Q 1734 2477 1676 2608 
Q 1619 2739 1446 2739 
Q 1088 2739 960 2125 
z
" transform="scale(0.015625)"/>
      <path id="STSongti-SC-Black-6e" d="M 3296 365 
Q 2963 384 2556 384 
Q 2150 384 1818 365 
L 1818 525 
L 2042 576 
Q 2182 595 2182 826 
L 2182 1901 
Q 2182 2042 2172 2147 
Q 2163 2253 2128 2326 
Q 2093 2400 2019 2435 
Q 1946 2470 1818 2470 
Q 1670 2470 1507 2377 
Q 1344 2285 1235 2157 
L 1235 755 
Q 1235 653 1389 614 
L 1574 525 
L 1574 365 
Q 1517 371 1462 374 
Q 1408 378 1344 381 
Q 1280 384 1203 384 
Q 1126 384 1011 384 
L 813 384 
Q 608 384 400 381 
Q 192 378 96 365 
L 96 525 
L 371 589 
Q 435 602 467 646 
Q 499 691 499 781 
L 499 2042 
Q 499 2240 419 2310 
Q 339 2381 134 2413 
L 134 2534 
Q 237 2560 374 2598 
Q 512 2637 646 2697 
Q 781 2758 896 2844 
Q 1011 2931 1069 3053 
L 1235 3053 
L 1235 2432 
Q 1427 2669 1651 2803 
Q 1875 2938 2099 2938 
Q 2470 2938 2694 2720 
Q 2918 2502 2918 2061 
L 2918 845 
Q 2918 717 2950 659 
Q 2982 602 3078 576 
L 3296 525 
L 3296 365 
z
" transform="scale(0.015625)"/>
     </defs>
     <use xlink:href="#STSongti-SC-Black-32"/>
     <use xlink:href="#STSongti-SC-Black-30" x="46.899994"/>
     <use xlink:href="#STSongti-SC-Black-32" x="93.799988"/>
     <use xlink:href="#STSongti-SC-Black-31" x="140.699982"/>
     <use xlink:href="#STSongti-SC-Black-2d" x="187.599976"/>
     <use xlink:href="#STSongti-SC-Black-42" x="218.899963"/>
     <use xlink:href="#STSongti-SC-Black-69" x="282.699951"/>
     <use xlink:href="#STSongti-SC-Black-64" x="309.699936"/>
     <use xlink:href="#STSongti-SC-Black-65" x="361.59993"/>
     <use xlink:href="#STSongti-SC-Black-6e" x="403.999924"/>
    </g>
   </g>
   <g id="text_30">
    <!-- 2017-Trump -->
    <g transform="translate(538.552783 244.816542) rotate(-5) scale(0.1 -0.1)">
     <defs>
      <path id="STSongti-SC-Black-54" d="M 326 4518 
Q 371 4691 416 4688 
Q 461 4685 531 4557 
Q 563 4493 592 4457 
Q 621 4422 653 4406 
Q 685 4390 733 4387 
Q 781 4384 851 4384 
L 3328 4384 
Q 3450 4384 3520 4390 
Q 3590 4397 3632 4419 
Q 3674 4442 3699 4477 
Q 3725 4512 3750 4570 
Q 3808 4691 3859 4691 
Q 3942 4691 3942 4563 
L 3930 3418 
Q 3930 3366 3914 3337 
Q 3898 3309 3869 3318 
Q 3840 3328 3808 3382 
Q 3776 3437 3750 3565 
Q 3718 3686 3686 3779 
Q 3654 3872 3590 3936 
Q 3526 4000 3424 4029 
Q 3322 4058 3149 4058 
L 2496 4058 
L 2496 960 
Q 2496 794 2537 733 
Q 2579 672 2714 640 
L 3213 531 
L 3213 365 
Q 3130 371 2995 374 
Q 2861 378 2697 381 
Q 2534 384 2348 384 
Q 2163 384 1971 384 
Q 1786 384 1606 384 
Q 1427 384 1280 381 
Q 1133 378 1030 374 
Q 928 371 890 365 
L 890 531 
L 1376 621 
Q 1562 653 1619 733 
Q 1677 813 1677 966 
L 1677 4058 
L 1011 4058 
Q 909 4064 832 4041 
Q 755 4019 675 3958 
Q 595 3898 505 3786 
Q 416 3674 294 3494 
Q 205 3373 163 3341 
Q 122 3309 106 3337 
Q 90 3366 99 3440 
Q 109 3514 128 3603 
L 326 4518 
z
" transform="scale(0.015625)"/>
      <path id="STSongti-SC-Black-72" d="M 109 358 
L 109 461 
L 301 518 
Q 429 557 464 617 
Q 499 678 499 845 
L 499 2074 
Q 499 2202 448 2266 
Q 397 2330 205 2355 
L 96 2368 
L 96 2490 
Q 218 2522 362 2576 
Q 506 2630 643 2704 
Q 781 2778 899 2874 
Q 1018 2970 1094 3085 
L 1210 3085 
Q 1210 2899 1216 2739 
Q 1222 2579 1235 2368 
Q 1286 2477 1334 2560 
Q 1382 2643 1485 2765 
Q 1581 2880 1683 2909 
Q 1786 2938 1869 2938 
Q 2029 2938 2150 2842 
Q 2272 2746 2272 2522 
Q 2272 2317 2182 2192 
Q 2093 2067 1914 2067 
Q 1824 2067 1763 2118 
Q 1702 2170 1660 2227 
Q 1619 2285 1580 2336 
Q 1542 2387 1504 2387 
Q 1414 2387 1347 2265 
Q 1280 2144 1254 1965 
Q 1242 1888 1235 1827 
Q 1229 1766 1235 1722 
L 1235 832 
Q 1235 685 1292 633 
Q 1350 582 1523 531 
L 1734 467 
L 1734 365 
Q 1594 378 1414 381 
Q 1235 384 1075 384 
L 928 384 
Q 717 384 505 377 
Q 294 371 109 358 
z
" transform="scale(0.015625)"/>
      <path id="STSongti-SC-Black-75" d="M 96 2822 
L 1248 2822 
L 1248 1293 
Q 1248 986 1353 858 
Q 1459 730 1645 730 
Q 1798 730 1910 778 
Q 2022 826 2150 934 
L 2150 2413 
Q 2150 2464 2144 2502 
Q 2138 2541 2096 2569 
Q 2054 2598 1958 2617 
Q 1862 2637 1690 2656 
L 1690 2822 
L 2886 2822 
L 2886 1005 
Q 2886 909 2892 845 
Q 2899 781 2934 745 
Q 2970 710 3050 697 
Q 3130 685 3277 678 
Q 3277 640 3280 598 
Q 3283 557 3283 518 
L 2150 288 
L 2150 774 
Q 2042 659 1946 566 
Q 1850 474 1747 410 
Q 1645 346 1520 314 
Q 1395 282 1229 282 
Q 832 282 672 518 
Q 512 755 512 1146 
L 512 2419 
Q 512 2477 499 2512 
Q 486 2547 441 2576 
Q 397 2605 317 2624 
Q 237 2643 96 2669 
L 96 2822 
z
" transform="scale(0.015625)"/>
      <path id="STSongti-SC-Black-6d" d="M 3379 531 
L 3565 570 
Q 3718 602 3769 650 
Q 3821 698 3821 838 
L 3821 1920 
Q 3821 2022 3808 2128 
Q 3795 2234 3756 2320 
Q 3718 2406 3644 2457 
Q 3571 2509 3443 2509 
Q 3283 2509 3136 2371 
Q 2989 2234 2893 2054 
L 2893 890 
Q 2893 755 2918 684 
Q 2944 614 3059 589 
L 3258 525 
L 3258 358 
Q 2931 384 2553 384 
Q 2176 384 1824 358 
L 1824 525 
L 1952 563 
Q 2061 595 2109 662 
Q 2157 730 2157 858 
L 2157 1914 
Q 2157 2016 2137 2125 
Q 2118 2234 2076 2317 
Q 2035 2400 1961 2454 
Q 1888 2509 1773 2509 
Q 1664 2509 1577 2467 
Q 1491 2426 1424 2358 
Q 1357 2291 1309 2211 
Q 1261 2131 1229 2061 
L 1229 883 
Q 1229 723 1270 665 
Q 1312 608 1402 589 
L 1664 525 
L 1664 358 
Q 1504 371 1302 377 
Q 1101 384 889 384 
Q 678 384 473 377 
Q 269 371 96 358 
L 96 525 
L 256 563 
Q 397 595 445 652 
Q 493 710 493 845 
L 493 2163 
Q 493 2240 486 2294 
Q 480 2349 448 2384 
Q 416 2419 352 2438 
Q 288 2458 173 2477 
L 173 2579 
Q 256 2598 384 2640 
Q 512 2682 649 2739 
Q 787 2797 912 2877 
Q 1037 2957 1107 3053 
L 1229 3053 
L 1229 2438 
Q 1491 2694 1670 2812 
Q 1850 2931 2074 2938 
Q 2394 2944 2589 2829 
Q 2784 2714 2874 2394 
Q 2976 2509 3065 2611 
Q 3155 2714 3254 2784 
Q 3354 2854 3475 2896 
Q 3597 2938 3763 2938 
Q 3955 2938 4105 2899 
Q 4256 2861 4355 2758 
Q 4454 2656 4505 2486 
Q 4557 2317 4557 2061 
L 4557 832 
Q 4557 595 4659 576 
L 4883 525 
L 4883 358 
Q 4723 371 4515 377 
Q 4307 384 4096 384 
Q 3885 384 3696 377 
Q 3507 371 3379 365 
L 3379 531 
z
" transform="scale(0.015625)"/>
      <path id="STSongti-SC-Black-70" d="M 1254 2598 
Q 1357 2682 1443 2746 
Q 1530 2810 1622 2854 
Q 1715 2899 1827 2921 
Q 1939 2944 2086 2944 
Q 2586 2944 2874 2621 
Q 3162 2298 3162 1715 
Q 3162 1389 3056 1133 
Q 2950 877 2777 701 
Q 2605 525 2377 432 
Q 2150 339 1907 339 
Q 1722 339 1552 377 
Q 1382 416 1254 525 
L 1254 -448 
Q 1254 -538 1308 -582 
Q 1363 -627 1523 -653 
L 1907 -717 
L 1907 -890 
Q 1779 -877 1600 -870 
Q 1421 -864 1139 -864 
L 966 -864 
Q 864 -864 739 -867 
Q 614 -870 492 -873 
Q 371 -877 265 -880 
Q 160 -883 96 -890 
L 96 -723 
L 365 -672 
Q 461 -653 489 -611 
Q 518 -570 518 -448 
L 518 2381 
Q 518 2618 435 2624 
L 122 2675 
L 141 2765 
Q 320 2810 470 2861 
Q 621 2912 691 2944 
Q 736 2963 806 2998 
Q 877 3034 947 3075 
Q 1018 3117 1075 3155 
Q 1133 3194 1158 3226 
L 1254 3226 
L 1254 2598 
z
M 1254 2342 
L 1254 1158 
Q 1254 928 1376 777 
Q 1498 627 1779 627 
Q 2074 627 2230 880 
Q 2387 1133 2387 1574 
Q 2387 1786 2336 1968 
Q 2285 2150 2192 2284 
Q 2099 2419 1980 2496 
Q 1862 2573 1728 2573 
Q 1574 2573 1465 2509 
Q 1357 2445 1254 2342 
z
" transform="scale(0.015625)"/>
     </defs>
     <use xlink:href="#STSongti-SC-Black-32"/>
     <use xlink:href="#STSongti-SC-Black-30" x="46.899994"/>
     <use xlink:href="#STSongti-SC-Black-31" x="93.799988"/>
     <use xlink:href="#STSongti-SC-Black-37" x="140.699982"/>
     <use xlink:href="#STSongti-SC-Black-2d" x="187.599976"/>
     <use xlink:href="#STSongti-SC-Black-54" x="218.899963"/>
     <use xlink:href="#STSongti-SC-Black-72" x="281.999954"/>
     <use xlink:href="#STSongti-SC-Black-75" x="319.599945"/>
     <use xlink:href="#STSongti-SC-Black-6d" x="372.399933"/>
     <use xlink:href="#STSongti-SC-Black-70" x="450.199921"/>
    </g>
   </g>
   <g id="text_31">
    <!-- 美国总统就职演说中"战争"词频 -->
    <g transform="translate(219.71 17.05125) scale(0.12 -0.12)">
     <defs>
      <path id="STSongti-SC-Black-7f8e" d="M 3610 4179 
Q 3802 4730 3872 5306 
Q 4160 5261 4499 5168 
Q 4838 5075 4889 5033 
Q 4941 4992 4941 4947 
Q 4941 4858 4813 4842 
Q 4685 4826 4374 4627 
Q 4064 4429 3808 4179 
L 4858 4179 
Q 4934 4326 5040 4505 
Q 5146 4685 5168 4710 
Q 5190 4736 5222 4736 
Q 5299 4736 5667 4454 
Q 6035 4173 6035 4070 
Q 6035 3968 5856 3968 
L 3763 3968 
Q 3731 3923 3667 3898 
L 3667 3302 
L 4582 3302 
Q 4838 3814 4947 3814 
Q 4992 3814 5203 3660 
Q 5414 3507 5545 3382 
Q 5677 3258 5677 3187 
Q 5677 3091 5498 3091 
L 3667 3091 
L 3667 2413 
L 5030 2413 
Q 5120 2592 5216 2739 
Q 5312 2886 5341 2905 
Q 5370 2925 5402 2925 
Q 5485 2925 5833 2665 
Q 6182 2406 6182 2304 
Q 6182 2202 6003 2202 
L 3501 2202 
Q 3789 2176 3789 2093 
Q 3789 2048 3725 2003 
Q 3661 1958 3619 1750 
Q 3578 1542 3539 1427 
L 4941 1427 
Q 5011 1555 5107 1705 
Q 5203 1856 5248 1907 
Q 5293 1958 5344 1958 
Q 5427 1958 5753 1680 
Q 6080 1402 6080 1309 
Q 6080 1216 5926 1216 
L 3763 1216 
Q 4307 307 6170 173 
Q 6259 166 6259 137 
Q 6259 109 6176 83 
Q 5952 13 5785 -166 
Q 5619 -346 5536 -602 
Q 5510 -678 5440 -678 
Q 5325 -678 4793 -371 
Q 4262 -64 3974 304 
Q 3686 672 3571 1216 
L 3475 1216 
Q 3322 755 3056 432 
Q 2790 109 2380 -108 
Q 1971 -326 1296 -483 
Q 621 -640 326 -640 
Q 275 -640 275 -614 
Q 275 -589 371 -557 
Q 1402 -256 1949 169 
Q 2496 595 2694 1216 
L 998 1216 
Q 870 1216 768 1146 
L 602 1446 
Q 755 1427 922 1427 
L 2752 1427 
Q 2829 1779 2829 2202 
L 826 2202 
Q 659 2202 550 2170 
L 442 2445 
Q 576 2413 762 2413 
L 2886 2413 
L 2886 3091 
L 1523 3091 
Q 1357 3091 1248 3059 
L 1139 3334 
Q 1274 3302 1459 3302 
L 2886 3302 
L 2886 3968 
L 1107 3968 
Q 941 3968 832 3936 
L 723 4211 
Q 858 4179 1043 4179 
L 3610 4179 
z
M 1779 5197 
Q 2010 5197 2317 5139 
Q 2624 5082 2765 4931 
Q 2906 4781 2906 4614 
Q 2906 4448 2774 4317 
Q 2643 4186 2476 4186 
Q 2310 4186 2204 4262 
Q 2099 4339 2099 4544 
Q 2099 4966 1766 5114 
Q 1696 5146 1696 5171 
Q 1696 5197 1779 5197 
z
" transform="scale(0.015625)"/>
      <path id="STSongti-SC-Black-56fd" d="M 1363 4768 
L 4813 4768 
Q 4896 4954 4957 5059 
Q 5018 5165 5040 5184 
Q 5062 5203 5094 5203 
Q 5146 5203 5482 5011 
Q 5818 4819 5907 4739 
Q 5997 4659 5997 4595 
Q 5997 4531 5818 4454 
L 5818 250 
Q 5818 -51 5824 -166 
L 5830 -384 
Q 5830 -442 5785 -474 
Q 5741 -506 5481 -554 
Q 5222 -602 5088 -602 
Q 5030 -602 5030 -493 
L 5030 -90 
L 1338 -90 
L 1338 -416 
Q 1338 -448 1328 -483 
Q 1318 -518 1161 -566 
Q 1005 -614 806 -656 
Q 608 -698 573 -698 
Q 538 -698 538 -646 
L 550 -346 
Q 563 -32 563 224 
L 563 4486 
Q 563 4819 550 5075 
Q 1050 4922 1363 4768 
z
M 2675 3635 
L 1952 3635 
Q 1824 3635 1722 3565 
L 1555 3866 
Q 1709 3846 1875 3846 
L 3802 3846 
Q 3936 4090 4009 4182 
Q 4083 4275 4128 4275 
Q 4198 4275 4496 4022 
Q 4794 3770 4794 3702 
Q 4794 3635 4678 3635 
L 3539 3635 
Q 3501 3565 3411 3533 
L 3411 2618 
L 3763 2618 
Q 3962 2950 3994 2995 
Q 4026 3040 4070 3040 
Q 4166 3040 4470 2790 
Q 4774 2541 4774 2473 
Q 4774 2406 4659 2406 
L 3411 2406 
L 3411 966 
L 4070 966 
L 4198 1197 
Q 3814 1165 3795 1530 
Q 3789 1766 3715 1932 
Q 3642 2099 3571 2112 
Q 3501 2125 3501 2150 
Q 3501 2176 3616 2176 
Q 3731 2176 3984 2112 
Q 4237 2048 4342 1974 
Q 4448 1901 4480 1817 
Q 4512 1734 4512 1587 
Q 4512 1440 4442 1344 
Q 4800 1120 5030 896 
L 5030 4557 
L 1434 4557 
Q 1427 4506 1338 4467 
L 1338 122 
L 5030 122 
L 5030 755 
L 1766 755 
Q 1638 755 1536 685 
L 1370 986 
Q 1523 966 1690 966 
L 2675 966 
L 2675 2406 
L 1990 2406 
Q 1862 2406 1760 2336 
L 1594 2637 
Q 1747 2618 1914 2618 
L 2675 2618 
L 2675 3635 
z
" transform="scale(0.015625)"/>
      <path id="STSongti-SC-Black-603b" d="M 3565 3872 
Q 3725 4410 3885 5242 
Q 4333 5120 4598 5021 
Q 4864 4922 4896 4886 
Q 4928 4851 4928 4826 
Q 4928 4749 4816 4742 
Q 4704 4736 4489 4569 
Q 4275 4403 3712 3872 
L 4320 3872 
Q 4384 4000 4448 4105 
Q 4512 4211 4557 4211 
Q 4621 4211 5001 3968 
Q 5382 3725 5382 3648 
Q 5382 3571 5178 3501 
L 5178 2483 
Q 5178 2374 5184 2291 
L 5197 2150 
Q 5197 2074 5005 2006 
Q 4813 1939 4617 1939 
Q 4422 1939 4400 1952 
Q 4378 1965 4378 2035 
L 4378 2189 
L 2010 2189 
Q 2003 2080 1987 2054 
Q 1971 2029 1846 1968 
Q 1722 1907 1587 1891 
Q 1453 1875 1353 1875 
Q 1254 1875 1254 1990 
L 1261 2438 
L 1261 3584 
Q 1261 3853 1242 4128 
Q 1664 4013 2022 3872 
L 3565 3872 
z
M 4378 2400 
L 4378 3661 
L 2125 3661 
Q 2061 3610 2010 3590 
L 2010 2400 
L 4378 2400 
z
M 1651 5088 
Q 2157 5088 2473 4928 
Q 2790 4768 2790 4486 
Q 2790 4282 2643 4131 
Q 2496 3981 2266 3981 
Q 2182 3981 2115 4016 
Q 2048 4051 2003 4121 
Q 1958 4192 1952 4272 
Q 1946 4352 1946 4422 
Q 1946 4832 1606 4992 
Q 1510 5037 1510 5062 
Q 1510 5088 1651 5088 
z
M 2688 1933 
Q 2842 1933 3203 1849 
Q 3565 1766 3725 1616 
Q 3885 1466 3885 1251 
Q 3885 1037 3750 889 
Q 3616 742 3449 742 
Q 3283 742 3193 848 
Q 3104 954 3104 1146 
Q 3104 1338 2998 1523 
Q 2893 1709 2707 1830 
Q 2624 1888 2624 1910 
Q 2624 1933 2688 1933 
z
M 4621 1536 
Q 4691 1536 5017 1424 
Q 5344 1312 5593 1142 
Q 5843 973 5971 781 
Q 6099 589 6099 390 
Q 6099 192 5964 41 
Q 5830 -109 5638 -109 
Q 5446 -109 5328 9 
Q 5210 128 5210 326 
L 5216 454 
Q 5216 723 5069 992 
Q 4922 1261 4672 1446 
Q 4595 1504 4595 1520 
Q 4595 1536 4621 1536 
z
M 2496 1178 
L 2496 371 
Q 2496 307 2553 227 
Q 2611 147 2729 137 
Q 2848 128 3206 128 
Q 3475 128 3692 150 
Q 3910 173 3987 201 
Q 4064 230 4131 310 
Q 4198 390 4256 547 
Q 4314 704 4352 883 
Q 4390 1062 4419 1062 
Q 4448 1062 4448 979 
L 4442 742 
Q 4442 512 4509 387 
Q 4576 262 4771 172 
Q 4966 83 4966 -70 
Q 4966 -205 4796 -345 
Q 4627 -486 4249 -524 
Q 3872 -563 3264 -563 
Q 2656 -563 2448 -531 
Q 2240 -499 2086 -425 
Q 1933 -352 1849 -201 
Q 1766 -51 1766 230 
L 1766 998 
Q 1766 1261 1747 1523 
Q 2035 1491 2288 1443 
Q 2541 1395 2601 1369 
Q 2662 1344 2662 1306 
Q 2662 1235 2496 1178 
z
M 960 1382 
Q 1005 1382 1181 1107 
Q 1357 832 1357 486 
Q 1357 141 1171 -70 
Q 986 -282 749 -282 
Q 582 -282 470 -182 
Q 358 -83 358 102 
Q 358 288 569 445 
Q 781 602 870 755 
Q 960 909 960 1126 
L 941 1344 
Q 941 1382 960 1382 
z
" transform="scale(0.015625)"/>
      <path id="STSongti-SC-Black-7edf" d="M 3475 5242 
Q 4038 5242 4262 5110 
Q 4486 4979 4486 4736 
Q 4486 4493 4310 4355 
Q 4134 4218 3968 4218 
Q 3853 4218 3760 4317 
Q 3667 4416 3638 4611 
Q 3610 4806 3504 4944 
Q 3398 5082 3251 5142 
Q 3104 5203 3104 5216 
Q 3104 5242 3475 5242 
z
M 1395 2854 
Q 838 2682 550 2515 
Q 512 2490 464 2490 
Q 416 2490 377 2522 
Q 339 2554 275 2838 
Q 211 3123 211 3162 
Q 211 3277 326 3309 
Q 442 3341 496 3398 
Q 550 3456 662 3699 
Q 774 3942 899 4345 
Q 1024 4749 1101 5178 
Q 1376 5075 1670 4937 
Q 1965 4800 2013 4755 
Q 2061 4710 2061 4656 
Q 2061 4602 1933 4570 
Q 1805 4538 1465 4074 
Q 1126 3610 762 3187 
L 1594 3206 
Q 1786 3590 1933 4006 
Q 2240 3872 2509 3731 
Q 2778 3590 2810 3555 
Q 2842 3520 2842 3488 
Q 2842 3411 2726 3405 
Q 2650 3398 2547 3318 
Q 2445 3238 2317 3091 
L 1843 2566 
Q 1491 2182 1056 1728 
Q 1888 1773 2496 1773 
Q 2624 1773 2624 1753 
Q 2624 1734 2502 1696 
Q 1094 1267 691 1056 
Q 602 1011 534 1011 
Q 467 1011 444 1040 
Q 422 1069 339 1385 
Q 256 1702 256 1756 
Q 256 1811 285 1830 
Q 314 1850 416 1856 
Q 685 1882 854 2058 
Q 1024 2234 1395 2854 
z
M 3386 3974 
L 2688 3974 
Q 2560 3974 2458 3904 
L 2291 4205 
Q 2445 4186 2611 4186 
L 4934 4186 
Q 5146 4550 5216 4640 
Q 5286 4730 5331 4730 
Q 5402 4730 5747 4435 
Q 6093 4141 6093 4057 
Q 6093 3974 5965 3974 
L 4557 3974 
Q 4563 3891 4396 3849 
Q 4230 3808 3868 3459 
Q 3507 3110 3174 2861 
L 4947 2880 
Q 4730 3296 4416 3482 
Q 4339 3526 4339 3539 
Q 4339 3552 4371 3552 
Q 4589 3552 4937 3449 
Q 5286 3347 5481 3222 
Q 5677 3098 5766 2954 
Q 5856 2810 5856 2614 
Q 5856 2419 5734 2278 
Q 5613 2138 5414 2138 
Q 5312 2138 5254 2179 
Q 5197 2221 5145 2365 
Q 5094 2509 5037 2682 
L 4166 2515 
Q 4730 2419 4861 2377 
Q 4992 2336 4992 2272 
Q 4992 2208 4838 2138 
L 4838 378 
Q 4838 243 4880 204 
Q 4922 166 5088 166 
Q 5254 166 5363 227 
Q 5472 288 5574 486 
Q 5677 685 5792 1094 
Q 5824 1197 5837 1197 
Q 5850 1197 5850 1161 
Q 5850 1126 5827 969 
Q 5805 813 5805 649 
Q 5805 486 5849 380 
Q 5894 275 6041 166 
Q 6189 58 6189 -83 
Q 6189 -256 5926 -403 
Q 5664 -550 5139 -550 
Q 4614 -550 4444 -508 
Q 4275 -467 4195 -326 
Q 4115 -186 4115 115 
L 4115 1811 
Q 4115 2221 4096 2502 
Q 3533 2394 3110 2285 
Q 3661 2234 3798 2192 
Q 3936 2150 3936 2108 
Q 3936 2067 3869 2016 
Q 3802 1965 3776 1683 
Q 3731 1165 3593 771 
Q 3456 378 3113 -6 
Q 2771 -390 2121 -534 
Q 1472 -678 1363 -678 
Q 1318 -678 1318 -662 
Q 1318 -646 1382 -621 
Q 1952 -397 2214 -221 
Q 2477 -45 2640 252 
Q 2803 550 2899 1049 
Q 2995 1549 2970 2246 
Q 2835 2208 2780 2185 
Q 2726 2163 2681 2163 
Q 2637 2163 2601 2211 
Q 2566 2259 2470 2540 
Q 2374 2822 2374 2867 
Q 2374 3002 2547 3005 
Q 2720 3008 2835 3075 
Q 2950 3142 3132 3449 
Q 3315 3757 3386 3974 
z
M 224 582 
Q 1190 730 2669 1197 
Q 2688 1203 2726 1203 
Q 2765 1203 2765 1155 
Q 2765 1107 2694 1069 
Q 1600 435 698 -275 
Q 634 -326 598 -326 
Q 563 -326 540 -281 
Q 518 -237 428 -9 
Q 339 218 224 582 
z
" transform="scale(0.015625)"/>
      <path id="STSongti-SC-Black-5c31" d="M 4653 4710 
Q 5747 4704 5747 4122 
Q 5747 3930 5632 3821 
Q 5728 3757 5958 3574 
Q 6189 3392 6214 3344 
Q 6240 3296 6240 3264 
Q 6240 3168 6080 3168 
L 5197 3168 
Q 5178 3110 5075 3059 
L 5075 371 
Q 5075 96 5299 96 
Q 5453 96 5574 326 
Q 5696 557 5856 1082 
Q 5882 1165 5907 1165 
Q 5933 1165 5910 1008 
Q 5888 851 5888 672 
Q 5888 128 6150 64 
Q 6298 26 6298 -90 
Q 6298 -250 6051 -403 
Q 5805 -557 5197 -557 
Q 4762 -557 4592 -419 
Q 4422 -282 4422 141 
L 4422 2541 
Q 4205 1101 3808 486 
Q 3411 -128 2768 -419 
Q 2125 -710 2042 -710 
Q 2029 -710 2029 -704 
Q 2029 -678 2125 -608 
Q 2746 -166 3059 218 
Q 3373 602 3555 1270 
Q 3738 1939 3814 3168 
L 3539 3168 
Q 3411 3168 3309 3098 
L 3213 3264 
Q 3200 3258 3155 3245 
L 3155 2803 
Q 3155 2502 3162 2387 
L 3168 2176 
Q 3168 2112 3129 2083 
Q 3091 2054 2979 2019 
Q 2867 1984 2697 1984 
Q 2528 1984 2493 2000 
Q 2458 2016 2458 2080 
L 2458 2246 
L 1382 2246 
Q 1389 2176 1350 2137 
Q 1312 2099 1110 2044 
Q 909 1990 736 1990 
Q 672 1990 678 2042 
Q 704 2323 704 2650 
L 704 3123 
Q 704 3514 691 3789 
Q 1114 3674 1408 3533 
L 2355 3533 
Q 2483 3763 2528 3820 
Q 2573 3878 2611 3878 
Q 2682 3878 2989 3660 
Q 3296 3443 3334 3379 
L 3827 3379 
L 3840 3866 
L 3834 5274 
Q 4211 5248 4473 5209 
Q 4736 5171 4800 5142 
Q 4864 5114 4864 5066 
Q 4864 5018 4749 4954 
Q 4685 4915 4653 4710 
z
M 5434 3725 
Q 5382 3712 5338 3712 
Q 5203 3712 5116 3795 
Q 5030 3878 5001 4083 
Q 4973 4288 4889 4409 
Q 4806 4531 4646 4621 
L 4531 3379 
L 5210 3379 
Q 5338 3584 5434 3725 
z
M 2458 2458 
L 2458 3322 
L 1466 3322 
Q 1440 3270 1382 3251 
L 1382 2458 
L 2458 2458 
z
M 1325 5254 
Q 1741 5254 2070 5139 
Q 2400 5024 2400 4704 
Q 2400 4531 2269 4406 
Q 2138 4282 1914 4282 
Q 1651 4282 1651 4595 
Q 1645 4832 1577 4953 
Q 1510 5075 1385 5145 
Q 1261 5216 1261 5235 
Q 1261 5254 1325 5254 
z
M 2630 4205 
Q 2867 4589 2912 4646 
Q 2957 4704 3011 4704 
Q 3066 4704 3350 4451 
Q 3635 4198 3635 4096 
Q 3635 3994 3501 3994 
L 678 3994 
Q 550 3994 448 3923 
L 282 4224 
Q 435 4205 602 4205 
L 2630 4205 
z
M 2278 1766 
Q 2867 1651 3072 1462 
Q 3277 1274 3277 1018 
Q 3277 851 3174 726 
Q 3072 602 2906 602 
Q 2618 602 2598 883 
Q 2579 1248 2502 1401 
Q 2426 1555 2278 1658 
L 2278 256 
Q 2278 -32 2176 -169 
Q 2074 -307 1814 -380 
Q 1555 -454 1414 -454 
Q 1318 -454 1312 -339 
Q 1299 -141 1184 -22 
Q 1069 96 806 179 
Q 749 198 749 217 
Q 749 237 845 237 
L 998 237 
Q 1363 237 1462 285 
Q 1562 333 1562 486 
L 1562 1498 
Q 1446 1485 1206 1123 
Q 966 762 640 416 
Q 314 70 262 70 
Q 250 70 250 90 
Q 250 115 294 205 
Q 544 723 624 1046 
Q 704 1370 755 1811 
Q 1146 1734 1562 1613 
Q 1562 1933 1549 2182 
Q 1830 2170 2089 2134 
Q 2349 2099 2397 2080 
Q 2445 2061 2445 2029 
Q 2445 1971 2278 1894 
L 2278 1766 
z
" transform="scale(0.015625)"/>
      <path id="STSongti-SC-Black-804c" d="M 736 4506 
L 608 4506 
Q 480 4506 378 4435 
L 211 4736 
Q 365 4717 531 4717 
L 2246 4717 
Q 2304 4819 2419 4988 
Q 2534 5158 2566 5187 
Q 2598 5216 2630 5216 
Q 2662 5216 2707 5190 
Q 2752 5165 2909 5024 
Q 3066 4883 3245 4672 
L 3232 4851 
Q 3731 4730 4032 4544 
L 4883 4544 
Q 5062 4934 5152 4934 
Q 5190 4934 5363 4819 
Q 5536 4704 5702 4579 
Q 5869 4454 5913 4403 
Q 5958 4352 5958 4314 
Q 5958 4230 5754 4173 
L 5754 2432 
Q 5754 2093 5760 1997 
L 5766 1818 
Q 5766 1786 5740 1757 
Q 5715 1728 5609 1683 
Q 5504 1638 5321 1596 
Q 5139 1555 5068 1555 
Q 4998 1555 4985 1587 
Q 4973 1619 4973 1702 
L 4973 2029 
L 3955 2029 
L 3955 1792 
Q 3955 1747 3929 1721 
Q 3904 1696 3805 1651 
Q 3706 1606 3546 1580 
Q 3386 1555 3277 1555 
Q 3226 1555 3226 1606 
L 3238 1888 
Q 3251 2080 3251 2240 
L 3251 4506 
L 2874 4506 
Q 2835 4429 2739 4390 
L 2739 1363 
Q 3187 1453 3251 1453 
Q 3315 1453 3315 1427 
Q 3315 1402 3232 1363 
Q 3149 1325 2739 1158 
L 2739 314 
Q 2739 0 2746 -122 
L 2752 -352 
Q 2752 -410 2688 -451 
Q 2624 -493 2409 -547 
Q 2195 -602 2080 -602 
Q 2029 -602 2029 -506 
L 2029 858 
Q 1005 422 608 186 
Q 512 134 477 134 
Q 442 134 422 179 
Q 403 224 323 512 
Q 243 800 198 1024 
L 736 1075 
L 736 4506 
z
M 2029 4506 
L 1549 4506 
Q 1510 4429 1408 4397 
L 1408 3526 
L 2029 3526 
L 2029 4506 
z
M 4973 2240 
L 4973 4333 
L 4058 4333 
Q 4026 4288 3955 4256 
L 3955 2240 
L 4973 2240 
z
M 2029 3315 
L 1408 3315 
L 1408 2342 
L 2029 2342 
L 2029 3315 
z
M 1408 2131 
L 1408 1158 
Q 1626 1184 2029 1248 
L 2029 2131 
L 1408 2131 
z
M 4570 1485 
Q 4653 1485 5139 1200 
Q 5626 915 5901 588 
Q 6176 262 6176 -64 
Q 6176 -294 6038 -454 
Q 5901 -614 5690 -614 
Q 5350 -614 5306 -96 
Q 5261 448 5117 739 
Q 4973 1030 4595 1382 
Q 4538 1434 4538 1459 
Q 4538 1485 4570 1485 
z
M 3750 1370 
Q 4013 1274 4294 1133 
Q 4576 992 4614 957 
Q 4653 922 4653 890 
Q 4653 832 4560 813 
Q 4467 794 4406 749 
Q 4346 704 4205 550 
Q 3635 -83 3059 -435 
Q 2483 -787 2400 -787 
Q 2374 -787 2374 -761 
Q 2374 -736 2432 -691 
Q 2938 -288 3222 179 
Q 3507 646 3750 1370 
z
" transform="scale(0.015625)"/>
      <path id="STSongti-SC-Black-6f14" d="M 5126 4307 
L 5325 4570 
Q 5395 4659 5443 4659 
Q 5491 4659 5651 4550 
Q 5811 4442 6009 4285 
Q 6208 4128 6269 4061 
Q 6330 3994 6330 3936 
Q 6330 3814 6125 3834 
Q 5978 3846 5869 3846 
Q 5517 3846 5312 3674 
Q 5498 3520 5578 3446 
Q 5658 3373 5658 3315 
Q 5658 3258 5504 3258 
L 4435 3258 
Q 4403 3226 4320 3194 
L 4320 2726 
L 4768 2726 
Q 4928 2976 4969 3027 
Q 5011 3078 5050 3078 
Q 5114 3078 5501 2844 
Q 5888 2611 5888 2518 
Q 5888 2426 5658 2362 
L 5658 1421 
L 5677 806 
Q 5677 755 5648 720 
Q 5619 685 5465 617 
Q 5312 550 4998 512 
Q 5510 397 5769 195 
Q 6029 -6 6029 -250 
Q 6029 -429 5904 -563 
Q 5779 -698 5619 -698 
Q 5459 -698 5395 -656 
Q 5331 -614 5242 -454 
Q 5011 -19 4793 173 
Q 4576 365 4320 473 
Q 4064 582 4064 601 
Q 4064 621 4115 621 
Q 4429 621 4902 531 
Q 4883 557 4883 659 
L 4883 723 
L 3098 723 
L 3098 640 
Q 3098 595 3075 569 
Q 3053 544 2941 499 
Q 2829 454 2678 425 
Q 2528 397 2426 397 
Q 2374 397 2374 448 
L 2387 742 
Q 2400 947 2400 1107 
L 2400 2368 
Q 2400 2656 2381 2944 
Q 2842 2816 3034 2726 
L 3616 2726 
L 3616 3258 
L 3091 3258 
Q 2963 3258 2854 3187 
L 2765 3347 
Q 2630 3251 2470 3251 
Q 2310 3251 2201 3360 
Q 2093 3469 2093 3603 
Q 2093 3738 2182 3808 
Q 2394 3974 2464 4089 
Q 2534 4205 2534 4329 
Q 2534 4454 2521 4540 
Q 2509 4627 2509 4652 
Q 2509 4678 2522 4678 
Q 2554 4678 2672 4553 
Q 2790 4429 2854 4307 
L 3859 4307 
Q 3680 4365 3680 4576 
L 3693 4730 
Q 3693 4890 3619 5005 
Q 3546 5120 3430 5200 
Q 3315 5280 3315 5299 
Q 3315 5318 3558 5318 
Q 4525 5318 4525 4800 
Q 4525 4614 4416 4480 
Q 4307 4346 4102 4307 
L 5126 4307 
z
M 5261 4090 
L 2944 4090 
Q 2982 3962 2982 3795 
Q 2982 3629 2886 3475 
L 4640 3475 
Q 4774 3706 4841 3798 
Q 4909 3891 4950 3891 
Q 4992 3891 5078 3836 
Q 5165 3782 5184 3770 
Q 5216 3891 5261 4090 
z
M 4883 1869 
L 4883 2502 
L 4320 2502 
L 4320 1869 
L 4883 1869 
z
M 3616 1869 
L 3616 2502 
L 3200 2502 
Q 3174 2458 3098 2432 
L 3098 1869 
L 3616 1869 
z
M 4883 941 
L 4883 1645 
L 4320 1645 
L 4320 941 
L 4883 941 
z
M 3616 941 
L 3616 1645 
L 3098 1645 
L 3098 941 
L 3616 941 
z
M 717 5024 
Q 883 5024 1206 4941 
Q 1530 4858 1686 4707 
Q 1843 4557 1843 4352 
Q 1843 4147 1718 4016 
Q 1594 3885 1421 3885 
Q 1248 3885 1158 3971 
Q 1069 4058 1062 4186 
Q 1050 4493 979 4649 
Q 909 4806 790 4896 
Q 672 4986 672 5005 
Q 672 5024 717 5024 
z
M 2112 4429 
L 1549 1818 
Q 1446 1357 1446 1056 
Q 1446 755 1613 230 
Q 1658 83 1658 -51 
Q 1658 -282 1520 -426 
Q 1382 -570 1152 -570 
Q 717 -570 717 -115 
Q 717 13 781 285 
Q 845 557 845 793 
Q 845 1030 733 1180 
Q 621 1331 352 1421 
Q 269 1446 269 1472 
Q 269 1498 349 1488 
Q 429 1478 493 1478 
Q 730 1478 899 1596 
Q 1069 1715 1178 2022 
L 2054 4435 
Q 2093 4544 2109 4544 
Q 2125 4544 2125 4512 
Q 2125 4480 2112 4429 
z
M 320 3552 
Q 781 3552 1046 3379 
Q 1312 3206 1312 2931 
Q 1312 2771 1174 2627 
Q 1037 2483 880 2483 
Q 723 2483 646 2560 
Q 570 2637 570 2758 
Q 570 3059 502 3196 
Q 435 3334 269 3469 
Q 224 3507 224 3529 
Q 224 3552 320 3552 
z
M 3296 634 
Q 3584 499 3843 345 
Q 4102 192 4140 157 
Q 4179 122 4179 90 
Q 4179 38 4044 32 
Q 3910 26 3817 -6 
Q 3725 -38 3565 -115 
Q 2918 -416 2345 -563 
Q 1773 -710 1696 -710 
Q 1677 -710 1677 -704 
Q 1677 -691 1818 -621 
Q 2758 -154 3296 634 
z
" transform="scale(0.015625)"/>
      <path id="STSongti-SC-Black-8bf4" d="M 4083 3763 
Q 4262 4230 4474 5350 
Q 4813 5242 5097 5123 
Q 5382 5005 5427 4966 
Q 5472 4928 5472 4890 
Q 5472 4813 5357 4813 
Q 5286 4813 5088 4627 
Q 4890 4442 4282 3763 
L 4736 3763 
Q 4813 3955 4870 4044 
Q 4928 4134 4986 4134 
Q 5082 4134 5462 3920 
Q 5843 3706 5843 3613 
Q 5843 3520 5600 3462 
L 5600 2458 
Q 5600 2349 5606 2266 
L 5619 2125 
Q 5619 2086 5593 2067 
Q 5568 2048 5459 2006 
Q 5350 1965 5235 1945 
Q 5120 1926 4954 1914 
Q 4928 1856 4774 1792 
L 4774 422 
Q 4774 269 4835 214 
Q 4896 160 5081 160 
Q 5267 160 5369 224 
Q 5472 288 5558 505 
Q 5645 723 5786 1248 
Q 5798 1306 5830 1306 
Q 5862 1306 5862 1254 
L 5850 883 
Q 5850 582 5910 448 
Q 5971 314 6115 205 
Q 6259 96 6259 -13 
Q 6259 -173 6000 -355 
Q 5741 -538 5197 -538 
Q 4653 -538 4445 -464 
Q 4237 -390 4141 -220 
Q 4045 -51 4045 230 
L 4045 1389 
Q 4045 1824 4026 2106 
Q 4582 2080 4819 2016 
L 4819 2202 
L 3110 2202 
L 3110 2125 
Q 3245 2118 3529 2083 
Q 3814 2048 3856 2029 
Q 3898 2010 3898 1974 
Q 3898 1939 3830 1897 
Q 3763 1856 3740 1805 
Q 3718 1754 3699 1587 
Q 3616 941 3504 585 
Q 3392 230 3219 22 
Q 3046 -186 2755 -346 
Q 2464 -506 1968 -650 
Q 1472 -794 1306 -794 
Q 1254 -794 1254 -765 
Q 1254 -736 1350 -710 
Q 1709 -595 2006 -416 
Q 2304 -237 2509 -16 
Q 2714 205 2790 419 
Q 2867 634 2937 1091 
Q 3008 1549 2989 1997 
Q 2784 1926 2611 1926 
Q 2438 1926 2412 1945 
Q 2387 1965 2387 2016 
L 2400 2470 
L 2400 3494 
Q 2400 3763 2381 4038 
Q 2810 3910 3136 3763 
L 4083 3763 
z
M 4819 2413 
L 4819 3552 
L 3238 3552 
Q 3194 3494 3110 3469 
L 3110 2413 
L 4819 2413 
z
M 2573 5197 
Q 2899 5197 3219 5107 
Q 3539 5018 3686 4832 
Q 3834 4646 3834 4448 
Q 3834 4250 3664 4102 
Q 3494 3955 3270 3955 
Q 3155 3955 3081 4051 
Q 3008 4147 3002 4314 
Q 2995 4659 2902 4822 
Q 2810 4986 2560 5101 
Q 2464 5146 2464 5171 
Q 2464 5197 2573 5197 
z
M 742 5075 
Q 954 5075 1318 4988 
Q 1683 4902 1852 4729 
Q 2022 4557 2022 4326 
Q 2022 4096 1881 3952 
Q 1741 3808 1568 3808 
Q 1395 3808 1292 3910 
Q 1190 4013 1184 4179 
Q 1171 4493 1091 4659 
Q 1011 4826 851 4931 
Q 691 5037 691 5056 
Q 691 5075 742 5075 
z
M 1734 864 
Q 2534 1318 2649 1398 
Q 2765 1478 2800 1478 
Q 2835 1478 2835 1452 
Q 2835 1427 2778 1363 
Q 2182 691 1408 -352 
Q 1344 -442 1302 -442 
Q 1261 -442 1235 -397 
L 960 -13 
Q 717 339 681 374 
Q 646 410 646 451 
Q 646 493 698 518 
Q 1005 666 1005 800 
L 1005 2854 
L 538 2854 
Q 410 2854 307 2784 
L 141 3085 
Q 294 3066 461 3066 
L 934 3066 
Q 1120 3430 1200 3430 
Q 1280 3430 1632 3212 
Q 1984 2995 1984 2905 
Q 1984 2816 1734 2752 
L 1734 864 
z
" transform="scale(0.015625)"/>
      <path id="STSongti-SC-Black-4e2d" d="M 1741 3878 
L 2816 3878 
L 2816 4781 
Q 2816 5101 2803 5350 
Q 3354 5331 3581 5289 
Q 3808 5248 3808 5165 
Q 3808 5082 3629 4992 
L 3629 3878 
L 4666 3878 
Q 4826 4186 4883 4250 
Q 4941 4314 5024 4314 
Q 5107 4314 5382 4154 
Q 5658 3994 5811 3888 
Q 5965 3782 5965 3686 
Q 5965 3590 5722 3533 
L 5722 1958 
Q 5722 1850 5728 1766 
L 5741 1626 
Q 5741 1581 5686 1549 
Q 5632 1517 5379 1465 
Q 5126 1414 4922 1414 
Q 4870 1414 4854 1433 
Q 4838 1453 4838 1510 
L 4838 1882 
L 3629 1882 
L 3629 237 
Q 3629 26 3635 -211 
L 3648 -429 
Q 3648 -474 3632 -493 
Q 3616 -512 3485 -557 
Q 3354 -602 3133 -643 
Q 2912 -685 2842 -685 
Q 2797 -685 2797 -589 
L 2810 -339 
Q 2816 -83 2816 237 
L 2816 1882 
L 1626 1882 
L 1626 1574 
Q 1626 1536 1606 1513 
Q 1587 1491 1468 1456 
Q 1350 1421 1148 1392 
Q 947 1363 826 1363 
Q 781 1363 787 1427 
Q 800 1574 800 1901 
L 800 3667 
Q 800 3936 781 4211 
Q 1357 4064 1741 3878 
z
M 2816 3667 
L 1779 3667 
Q 1734 3597 1626 3571 
L 1626 2093 
L 2816 2093 
L 2816 3667 
z
M 4838 2093 
L 4838 3667 
L 3629 3667 
L 3629 2093 
L 4838 2093 
z
" transform="scale(0.015625)"/>
      <path id="STSongti-SC-Black-22" d="M 659 2893 
L 486 3821 
Q 454 4006 435 4134 
Q 416 4262 416 4339 
Q 416 4717 723 4717 
Q 1037 4717 1037 4339 
Q 1037 4211 966 3821 
L 794 2893 
L 659 2893 
z
M 1811 2893 
L 1638 3821 
Q 1606 4006 1587 4134 
Q 1568 4262 1568 4339 
Q 1568 4717 1875 4717 
Q 2189 4717 2189 4339 
Q 2189 4211 2118 3821 
L 1946 2893 
L 1811 2893 
z
" transform="scale(0.015625)"/>
      <path id="STSongti-SC-Black-6218" d="M 4154 4698 
Q 4685 4691 4963 4518 
Q 5242 4346 5242 4070 
Q 5242 3853 5117 3741 
Q 4992 3629 4845 3629 
Q 4698 3629 4608 3709 
Q 4518 3789 4499 3923 
Q 4422 4429 4154 4570 
Q 4147 4211 4147 3865 
Q 4147 3520 4160 3213 
L 5056 3315 
Q 5299 3827 5379 3827 
Q 5459 3827 5804 3590 
Q 6150 3354 6150 3277 
Q 6150 3219 6022 3206 
L 4173 2989 
Q 4230 2138 4384 1651 
Q 4666 2221 4838 2963 
Q 5203 2822 5456 2700 
Q 5709 2579 5747 2544 
Q 5786 2509 5786 2464 
Q 5786 2387 5651 2364 
Q 5517 2342 5389 2099 
Q 5018 1370 4704 966 
Q 4838 781 5030 585 
Q 5222 390 5280 358 
Q 5338 326 5389 326 
Q 5651 326 5952 1274 
Q 5971 1344 6006 1344 
Q 6042 1344 6029 1254 
Q 5946 851 5946 512 
Q 5946 173 6131 -128 
Q 6202 -243 6202 -364 
Q 6202 -486 6102 -572 
Q 6003 -659 5837 -659 
Q 5536 -659 5078 -416 
Q 4621 -173 4192 422 
Q 3706 0 2938 -329 
Q 2170 -659 2080 -659 
Q 2061 -659 2061 -653 
Q 2061 -627 2150 -570 
Q 3315 160 3904 902 
Q 3578 1555 3456 2906 
L 2771 2822 
Q 2656 2816 2547 2720 
L 2349 3027 
Q 2560 3027 2669 3040 
L 3437 3130 
Q 3398 3654 3382 4124 
Q 3366 4595 3315 5299 
Q 3546 5267 3891 5196 
Q 4237 5126 4301 5088 
Q 4365 5050 4365 4998 
Q 4365 4902 4160 4858 
Q 4160 4742 4154 4698 
z
M 1094 2246 
L 1280 2246 
L 1280 4614 
Q 1280 4934 1267 5184 
Q 1811 5139 2009 5094 
Q 2208 5050 2208 4966 
Q 2208 4877 2022 4813 
L 2022 3802 
L 2304 3802 
Q 2458 4070 2518 4163 
Q 2579 4256 2614 4256 
Q 2650 4256 2845 4112 
Q 3040 3968 3165 3859 
Q 3290 3750 3290 3670 
Q 3290 3590 3155 3590 
L 2022 3590 
L 2022 2246 
L 2067 2246 
Q 2253 2560 2330 2560 
Q 2374 2560 2652 2403 
Q 2931 2246 3004 2185 
Q 3078 2125 3078 2061 
Q 3078 1997 2880 1907 
L 2880 813 
Q 2880 474 2886 378 
L 2893 205 
Q 2893 173 2877 147 
Q 2861 122 2697 45 
Q 2534 -32 2387 -51 
Q 2240 -70 2198 -70 
Q 2157 -70 2144 -38 
Q 2131 -6 2131 77 
L 2131 250 
L 1062 250 
L 1062 -26 
Q 1062 -77 1040 -99 
Q 1018 -122 906 -166 
Q 794 -211 637 -236 
Q 480 -262 365 -262 
Q 314 -262 314 -211 
L 326 70 
Q 339 262 339 422 
L 339 1997 
Q 339 2278 320 2554 
Q 755 2432 1094 2246 
z
M 2131 461 
L 2131 2035 
L 1171 2035 
Q 1139 1984 1062 1958 
L 1062 461 
L 2131 461 
z
" transform="scale(0.015625)"/>
      <path id="STSongti-SC-Black-4e89" d="M 1338 3181 
Q 1056 2957 717 2752 
Q 378 2547 336 2524 
Q 294 2502 272 2502 
Q 250 2502 250 2524 
Q 250 2547 301 2592 
Q 1344 3526 1907 5344 
Q 2317 5286 2643 5209 
Q 2970 5133 3027 5091 
Q 3085 5050 3085 5005 
Q 3085 4941 2998 4912 
Q 2912 4883 2857 4825 
Q 2803 4768 2598 4499 
L 3482 4499 
Q 3622 4723 3689 4806 
Q 3757 4890 3802 4890 
Q 3891 4890 4284 4653 
Q 4678 4416 4732 4361 
Q 4787 4307 4787 4250 
Q 4787 4122 4608 4102 
Q 4230 4070 4032 3952 
Q 3834 3834 3430 3392 
L 4275 3392 
Q 4403 3622 4470 3715 
Q 4538 3808 4576 3808 
Q 4614 3808 4796 3705 
Q 4979 3603 5164 3475 
Q 5350 3347 5388 3308 
Q 5427 3270 5427 3238 
Q 5427 3162 5216 3059 
L 5216 2304 
L 5261 2304 
Q 5382 2534 5481 2659 
Q 5581 2784 5619 2784 
Q 5690 2784 5984 2505 
Q 6278 2227 6278 2160 
Q 6278 2093 6150 2093 
L 5216 2093 
L 5216 1146 
L 5222 800 
Q 5222 749 5158 710 
Q 5094 672 4851 624 
Q 4608 576 4467 576 
Q 4403 576 4403 685 
L 4403 1005 
L 3482 1005 
L 3482 77 
Q 3482 -173 3450 -301 
Q 3418 -429 3318 -512 
Q 3219 -595 2963 -659 
Q 2707 -723 2544 -723 
Q 2381 -723 2381 -544 
Q 2381 -365 2217 -237 
Q 2054 -109 1709 -19 
Q 1645 0 1645 19 
Q 1645 38 1754 38 
Q 2310 38 2457 60 
Q 2605 83 2646 137 
Q 2688 192 2688 307 
L 2688 1005 
L 1165 1005 
Q 1030 1005 915 928 
L 749 1235 
Q 902 1216 1069 1216 
L 2688 1216 
L 2688 2093 
L 531 2093 
Q 403 2093 301 2022 
L 134 2323 
Q 288 2304 454 2304 
L 2688 2304 
L 2688 3181 
L 1626 3181 
Q 1491 3181 1376 3104 
L 1338 3181 
z
M 2432 4288 
Q 2003 3763 1594 3392 
L 3283 3392 
Q 3418 3744 3558 4288 
L 2432 4288 
z
M 4403 2304 
L 4403 3181 
L 3603 3181 
Q 3603 3117 3482 3059 
L 3482 2304 
L 4403 2304 
z
M 4403 1216 
L 4403 2093 
L 3482 2093 
L 3482 1216 
L 4403 1216 
z
" transform="scale(0.015625)"/>
      <path id="STSongti-SC-Black-8bcd" d="M 4890 4730 
Q 5101 5069 5139 5101 
Q 5178 5133 5219 5133 
Q 5261 5133 5581 4960 
Q 5901 4787 5997 4697 
Q 6093 4608 6093 4544 
Q 6093 4442 5862 4384 
L 5862 115 
Q 5862 -115 5833 -240 
Q 5805 -365 5709 -448 
Q 5613 -531 5379 -601 
Q 5146 -672 5018 -672 
Q 4794 -672 4794 -483 
Q 4794 -294 4650 -176 
Q 4506 -58 4198 45 
Q 4096 83 4096 99 
Q 4096 115 4192 115 
Q 4710 115 4851 150 
Q 4992 186 5024 259 
Q 5056 333 5056 493 
L 5056 4518 
L 2778 4518 
Q 2650 4518 2547 4448 
L 2381 4749 
Q 2534 4730 2701 4730 
L 4890 4730 
z
M 672 5056 
Q 934 5056 1273 4966 
Q 1613 4877 1766 4717 
Q 1920 4557 1920 4352 
Q 1920 4147 1766 3993 
Q 1613 3840 1437 3840 
Q 1261 3840 1171 3939 
Q 1082 4038 1072 4265 
Q 1062 4493 976 4669 
Q 890 4845 678 4966 
Q 602 5011 602 5033 
Q 602 5056 672 5056 
z
M 3891 3654 
Q 4102 4026 4134 4054 
Q 4166 4083 4205 4083 
Q 4294 4083 4627 3836 
Q 4960 3590 4960 3516 
Q 4960 3443 4838 3443 
L 2515 3443 
Q 2387 3443 2285 3373 
L 2118 3674 
Q 2272 3654 2438 3654 
L 3891 3654 
z
M 3168 2662 
L 3757 2662 
Q 3923 2989 4038 2989 
Q 4090 2989 4416 2822 
Q 4742 2656 4742 2531 
Q 4742 2406 4582 2336 
L 4582 960 
Q 4582 864 4589 787 
L 4602 653 
Q 4602 563 4422 505 
Q 4243 448 4115 448 
Q 3987 448 3939 454 
Q 3891 461 3868 512 
Q 3846 563 3846 627 
L 3846 1114 
L 3123 1114 
L 3123 576 
Q 3123 518 3081 467 
Q 3040 416 2883 377 
Q 2726 339 2528 339 
Q 2490 339 2454 371 
Q 2419 403 2426 442 
Q 2438 589 2438 915 
L 2438 1069 
Q 1882 493 1306 -333 
Q 1261 -390 1222 -390 
Q 1184 -390 1114 -294 
L 864 58 
Q 685 320 685 378 
Q 685 416 710 429 
Q 864 493 934 563 
Q 1005 634 1005 787 
L 1005 2790 
L 531 2790 
Q 403 2790 301 2720 
L 134 3021 
Q 288 3002 454 3002 
L 877 3002 
Q 1069 3315 1097 3350 
Q 1126 3386 1168 3386 
Q 1210 3386 1408 3286 
Q 1606 3187 1750 3104 
Q 1894 3021 1929 2982 
Q 1965 2944 1965 2906 
Q 1965 2810 1728 2746 
L 1728 781 
Q 2266 1056 2438 1158 
L 2438 2355 
Q 2438 2624 2419 2899 
Q 2848 2790 3168 2662 
z
M 3846 1325 
L 3846 2451 
L 3258 2451 
Q 3232 2394 3123 2394 
L 3123 1325 
L 3846 1325 
z
" transform="scale(0.015625)"/>
      <path id="STSongti-SC-Black-9891" d="M 4134 4538 
L 3334 4538 
Q 3206 4538 3104 4467 
L 2938 4768 
Q 3091 4749 3258 4749 
L 5210 4749 
Q 5478 5184 5504 5213 
Q 5530 5242 5584 5242 
Q 5638 5242 5795 5117 
Q 5952 4992 6112 4857 
Q 6272 4723 6272 4630 
Q 6272 4538 6125 4538 
L 5197 4538 
Q 4928 4397 4793 4211 
Q 4659 4026 4416 3552 
L 5107 3552 
Q 5242 3763 5283 3833 
Q 5325 3904 5382 3904 
Q 5440 3904 5773 3673 
Q 6106 3443 6106 3360 
Q 6106 3290 5875 3194 
L 5875 1459 
Q 5875 1158 5882 1043 
L 5888 826 
Q 5888 781 5869 755 
Q 5850 730 5744 682 
Q 5638 634 5452 611 
Q 5267 589 5222 589 
Q 5178 589 5178 698 
L 5178 3341 
L 3994 3341 
Q 3981 3277 3904 3238 
L 3904 698 
Q 3904 634 3853 595 
Q 3802 557 3581 496 
Q 3360 435 3258 435 
Q 3219 435 3219 486 
L 3232 787 
Q 3245 1101 3245 1357 
L 3245 2003 
Q 3168 1990 3008 1670 
Q 2714 1062 2362 640 
Q 2010 218 1590 -60 
Q 1171 -339 726 -489 
Q 282 -640 211 -640 
Q 192 -640 192 -634 
Q 192 -614 294 -550 
Q 1293 77 1786 717 
Q 1664 698 1549 698 
Q 1434 698 1408 707 
Q 1382 717 1382 762 
L 1395 1133 
Q 1408 1510 1408 1946 
L 1408 2003 
Q 1293 1971 1210 1830 
Q 909 1344 611 1011 
Q 314 678 250 678 
Q 230 678 230 700 
Q 230 723 250 762 
Q 429 1069 531 1411 
Q 634 1754 710 2387 
Q 1120 2298 1408 2176 
L 1408 2765 
L 538 2765 
Q 410 2765 307 2694 
L 141 2995 
Q 294 2976 461 2976 
L 627 2976 
L 627 4179 
Q 627 4493 614 4749 
Q 877 4736 1081 4707 
Q 1286 4678 1321 4659 
Q 1357 4640 1357 4598 
Q 1357 4557 1248 4512 
L 1248 2976 
L 1587 2976 
L 1587 4672 
Q 1587 4992 1574 5242 
Q 1939 5229 2147 5184 
Q 2355 5139 2355 5075 
Q 2355 5011 2208 4947 
L 2208 4147 
L 2342 4147 
Q 2426 4301 2506 4413 
Q 2586 4525 2637 4525 
Q 2714 4525 2970 4313 
Q 3226 4102 3226 4019 
Q 3226 3936 3040 3936 
L 2208 3936 
L 2208 2976 
L 2432 2976 
Q 2688 3398 2758 3398 
Q 2816 3398 3245 2995 
L 3245 3142 
Q 3245 3533 3219 3808 
Q 3558 3731 3898 3552 
L 4134 3552 
Q 4154 3763 4154 4044 
Q 4154 4326 4134 4538 
z
M 2208 2765 
Q 2202 2707 2099 2675 
L 2099 1203 
Q 2400 1766 2522 2490 
Q 2912 2362 3245 2202 
L 3245 2778 
Q 3206 2765 3162 2765 
L 2208 2765 
z
M 4576 512 
Q 4410 230 4045 -38 
Q 3680 -307 3091 -524 
Q 2502 -742 2298 -742 
Q 2253 -742 2253 -720 
Q 2253 -698 2342 -659 
Q 2893 -442 3280 -182 
Q 3667 77 3891 393 
Q 4115 710 4166 1107 
Q 4218 1504 4218 2125 
Q 4218 2746 4211 3181 
Q 4442 3181 4688 3145 
Q 4934 3110 4995 3084 
Q 5056 3059 5056 3014 
Q 5056 2970 5001 2934 
Q 4947 2899 4931 2848 
Q 4915 2797 4909 2637 
Q 4870 1722 4809 1283 
Q 4749 845 4621 602 
Q 5395 493 5766 294 
Q 6138 96 6138 -250 
Q 6138 -442 6016 -563 
Q 5894 -685 5747 -685 
Q 5600 -685 5510 -627 
Q 5421 -570 5389 -474 
Q 5229 0 5053 182 
Q 4877 365 4576 512 
z
" transform="scale(0.015625)"/>
     </defs>
     <use xlink:href="#STSongti-SC-Black-7f8e"/>
     <use xlink:href="#STSongti-SC-Black-56fd" x="99.999985"/>
     <use xlink:href="#STSongti-SC-Black-603b" x="199.999969"/>
     <use xlink:href="#STSongti-SC-Black-7edf" x="299.999954"/>
     <use xlink:href="#STSongti-SC-Black-5c31" x="399.999939"/>
     <use xlink:href="#STSongti-SC-Black-804c" x="499.999924"/>
     <use xlink:href="#STSongti-SC-Black-6f14" x="599.999908"/>
     <use xlink:href="#STSongti-SC-Black-8bf4" x="699.999893"/>
     <use xlink:href="#STSongti-SC-Black-4e2d" x="799.999878"/>
     <use xlink:href="#STSongti-SC-Black-22" x="899.999863"/>
     <use xlink:href="#STSongti-SC-Black-6218" x="940.599854"/>
     <use xlink:href="#STSongti-SC-Black-4e89" x="1040.599838"/>
     <use xlink:href="#STSongti-SC-Black-22" x="1140.599823"/>
     <use xlink:href="#STSongti-SC-Black-8bcd" x="1181.199814"/>
     <use xlink:href="#STSongti-SC-Black-9891" x="1281.199799"/>
    </g>
   </g>
  </g>
 </g>
 <defs>
  <clipPath id="p0bb3758c1c">
   <rect x="23.58125" y="23.05125" width="558" height="221.76"/>
  </clipPath>
 </defs>
</svg>