<?xml version="1.0" encoding="utf-8" standalone="no"?>
<!DOCTYPE svg PUBLIC "-//W3C//DTD SVG 1.1//EN"
  "http://www.w3.org/Graphics/SVG/1.1/DTD/svg11.dtd">
<svg height="242.274875pt" version="1.1" viewBox="0 0 709.65375 242.274875" width="709.65375pt" xmlns="http://www.w3.org/2000/svg" xmlns:xlink="http://www.w3.org/1999/xlink">
 <metadata>
  <rdf:RDF xmlns:cc="http://creativecommons.org/ns#" xmlns:dc="http://purl.org/dc/elements/1.1/" xmlns:rdf="http://www.w3.org/1999/02/22-rdf-syntax-ns#">
   <cc:Work>
    <dc:type rdf:resource="http://purl.org/dc/dcmitype/StillImage"/>
    <dc:date>2021-10-26T10:02:50.883652</dc:date>
    <dc:format>image/svg+xml</dc:format>
    <dc:creator>
     <cc:Agent>
      <dc:title>Matplotlib v3.4.3, https://matplotlib.org/</dc:title>
     </cc:Agent>
    </dc:creator>
   </cc:Work>
  </rdf:RDF>
 </metadata>
 <defs>
  <style type="text/css">*{stroke-linecap:butt;stroke-linejoin:round;}</style>
 </defs>
 <g id="figure_1">
  <g id="patch_1">
   <path d="M 0 242.274875 
L 709.65375 242.274875 
L 709.65375 0 
L 0 0 
z
" style="fill:none;"/>
  </g>
  <g id="axes_1">
   <g id="patch_2">
    <path d="M 54.24875 201.8505 
L 370.12125 201.8505 
L 370.12125 23.7705 
L 54.24875 23.7705 
z
" style="fill:#ffffff;"/>
   </g>
   <g id="patch_3">
    <path clip-path="url(#p2dbc2aca47)" d="M 68.606591 201.8505 
L 82.964432 201.8505 
L 82.964432 73.317551 
L 68.606591 73.317551 
z
" style="fill:#0071bc;stroke:#0071bc;stroke-linejoin:miter;"/>
   </g>
   <g id="patch_4">
    <path clip-path="url(#p2dbc2aca47)" d="M 82.964432 201.8505 
L 97.322273 201.8505 
L 97.322273 32.2505 
L 82.964432 32.2505 
z
" style="fill:#0071bc;stroke:#0071bc;stroke-linejoin:miter;"/>
   </g>
   <g id="patch_5">
    <path clip-path="url(#p2dbc2aca47)" d="M 97.322273 201.8505 
L 111.680114 201.8505 
L 111.680114 88.214023 
L 97.322273 88.214023 
z
" style="fill:#0071bc;stroke:#0071bc;stroke-linejoin:miter;"/>
   </g>
   <g id="patch_6">
    <path clip-path="url(#p2dbc2aca47)" d="M 111.680114 201.8505 
L 126.037955 201.8505 
L 126.037955 123.379466 
L 111.680114 123.379466 
z
" style="fill:#0071bc;stroke:#0071bc;stroke-linejoin:miter;"/>
   </g>
   <g id="patch_7">
    <path clip-path="url(#p2dbc2aca47)" d="M 126.037955 201.8505 
L 140.395795 201.8505 
L 140.395795 155.166747 
L 126.037955 155.166747 
z
" style="fill:#0071bc;stroke:#0071bc;stroke-linejoin:miter;"/>
   </g>
   <g id="patch_8">
    <path clip-path="url(#p2dbc2aca47)" d="M 140.395795 201.8505 
L 154.753636 201.8505 
L 154.753636 174.743805 
L 140.395795 174.743805 
z
" style="fill:#0071bc;stroke:#0071bc;stroke-linejoin:miter;"/>
   </g>
   <g id="patch_9">
    <path clip-path="url(#p2dbc2aca47)" d="M 154.753636 201.8505 
L 169.111477 201.8505 
L 169.111477 185.407399 
L 154.753636 185.407399 
z
" style="fill:#0071bc;stroke:#0071bc;stroke-linejoin:miter;"/>
   </g>
   <g id="patch_10">
    <path clip-path="url(#p2dbc2aca47)" d="M 169.111477 201.8505 
L 183.469318 201.8505 
L 183.469318 193.303344 
L 169.111477 193.303344 
z
" style="fill:#0071bc;stroke:#0071bc;stroke-linejoin:miter;"/>
   </g>
   <g id="patch_11">
    <path clip-path="url(#p2dbc2aca47)" d="M 183.469318 201.8505 
L 197.827159 201.8505 
L 197.827159 197.658323 
L 183.469318 197.658323 
z
" style="fill:#0071bc;stroke:#0071bc;stroke-linejoin:miter;"/>
   </g>
   <g id="patch_12">
    <path clip-path="url(#p2dbc2aca47)" d="M 197.827159 201.8505 
L 212.185 201.8505 
L 212.185 198.838645 
L 197.827159 198.838645 
z
" style="fill:#0071bc;stroke:#0071bc;stroke-linejoin:miter;"/>
   </g>
   <g id="patch_13">
    <path clip-path="url(#p2dbc2aca47)" d="M 212.185 201.8505 
L 226.542841 201.8505 
L 226.542841 200.425974 
L 212.185 200.425974 
z
" style="fill:#0071bc;stroke:#0071bc;stroke-linejoin:miter;"/>
   </g>
   <g id="patch_14">
    <path clip-path="url(#p2dbc2aca47)" d="M 226.542841 201.8505 
L 240.900682 201.8505 
L 240.900682 200.873682 
L 226.542841 200.873682 
z
" style="fill:#0071bc;stroke:#0071bc;stroke-linejoin:miter;"/>
   </g>
   <g id="patch_15">
    <path clip-path="url(#p2dbc2aca47)" d="M 240.900682 201.8505 
L 255.258523 201.8505 
L 255.258523 201.443493 
L 240.900682 201.443493 
z
" style="fill:#0071bc;stroke:#0071bc;stroke-linejoin:miter;"/>
   </g>
   <g id="patch_16">
    <path clip-path="url(#p2dbc2aca47)" d="M 255.258523 201.8505 
L 269.616364 201.8505 
L 269.616364 201.565595 
L 255.258523 201.565595 
z
" style="fill:#0071bc;stroke:#0071bc;stroke-linejoin:miter;"/>
   </g>
   <g id="patch_17">
    <path clip-path="url(#p2dbc2aca47)" d="M 269.616364 201.8505 
L 283.974205 201.8505 
L 283.974205 201.769099 
L 269.616364 201.769099 
z
" style="fill:#0071bc;stroke:#0071bc;stroke-linejoin:miter;"/>
   </g>
   <g id="patch_18">
    <path clip-path="url(#p2dbc2aca47)" d="M 283.974205 201.8505 
L 298.332045 201.8505 
L 298.332045 201.769099 
L 283.974205 201.769099 
z
" style="fill:#0071bc;stroke:#0071bc;stroke-linejoin:miter;"/>
   </g>
   <g id="patch_19">
    <path clip-path="url(#p2dbc2aca47)" d="M 298.332045 201.8505 
L 312.689886 201.8505 
L 312.689886 201.809799 
L 298.332045 201.809799 
z
" style="fill:#0071bc;stroke:#0071bc;stroke-linejoin:miter;"/>
   </g>
   <g id="patch_20">
    <path clip-path="url(#p2dbc2aca47)" d="M 312.689886 201.8505 
L 327.047727 201.8505 
L 327.047727 201.809799 
L 312.689886 201.809799 
z
" style="fill:#0071bc;stroke:#0071bc;stroke-linejoin:miter;"/>
   </g>
   <g id="patch_21">
    <path clip-path="url(#p2dbc2aca47)" d="M 327.047727 201.8505 
L 341.405568 201.8505 
L 341.405568 201.8505 
L 327.047727 201.8505 
z
" style="fill:#0071bc;stroke:#0071bc;stroke-linejoin:miter;"/>
   </g>
   <g id="patch_22">
    <path clip-path="url(#p2dbc2aca47)" d="M 341.405568 201.8505 
L 355.763409 201.8505 
L 355.763409 201.809799 
L 341.405568 201.809799 
z
" style="fill:#0071bc;stroke:#0071bc;stroke-linejoin:miter;"/>
   </g>
   <g id="matplotlib.axis_1">
    <g id="xtick_1">
     <g id="line2d_1">
      <defs>
       <path d="M 0 0 
L 0 3.5 
" id="mccc0f7301f" style="stroke:#000000;stroke-width:0.8;"/>
      </defs>
      <g>
       <use style="stroke:#000000;stroke-width:0.8;" x="68.331273" xlink:href="#mccc0f7301f" y="201.8505"/>
      </g>
     </g>
     <g id="text_1">
      <!-- 0 -->
      <g transform="translate(65.121273 217.65925)scale(0.12 -0.12)">
       <defs>
        <path d="M 1722 -70 
C 2656 -70 3155 646 3155 2061 
L 3155 2406 
C 3155 3891 2598 4499 1715 4499 
C 819 4499 269 3834 269 2368 
L 269 2042 
C 269 499 845 -70 1722 -70 
z
M 1728 384 
C 1069 384 845 979 845 2016 
L 845 2490 
C 845 3494 1088 4051 1709 4051 
C 2336 4051 2592 3514 2592 2458 
L 2592 1978 
C 2592 934 2374 384 1728 384 
z
" id="GuardianSansCond-Regular-30" transform="scale(0.015625)"/>
       </defs>
       <use xlink:href="#GuardianSansCond-Regular-30"/>
      </g>
     </g>
    </g>
    <g id="xtick_2">
     <g id="line2d_2">
      <g>
       <use style="stroke:#000000;stroke-width:0.8;" x="123.3949" xlink:href="#mccc0f7301f" y="201.8505"/>
      </g>
     </g>
     <g id="text_2">
      <!-- 200 -->
      <g transform="translate(114.4249 217.65925)scale(0.12 -0.12)">
       <defs>
        <path d="M 173 0 
L 2470 0 
L 2470 461 
L 800 461 
L 800 480 
L 1574 1421 
C 2067 2035 2419 2528 2419 3264 
C 2419 4026 2029 4499 1222 4499 
C 806 4499 499 4410 269 4282 
L 269 3853 
C 467 3949 730 4032 1056 4032 
C 1619 4032 1850 3750 1850 3213 
C 1850 2630 1542 2189 1152 1670 
L 173 397 
L 173 0 
z
" id="GuardianSansCond-Regular-32" transform="scale(0.015625)"/>
       </defs>
       <use xlink:href="#GuardianSansCond-Regular-32"/>
       <use x="42.499985" xlink:href="#GuardianSansCond-Regular-30"/>
       <use x="95.999969" xlink:href="#GuardianSansCond-Regular-30"/>
      </g>
     </g>
    </g>
    <g id="xtick_3">
     <g id="line2d_3">
      <g>
       <use style="stroke:#000000;stroke-width:0.8;" x="178.458528" xlink:href="#mccc0f7301f" y="201.8505"/>
      </g>
     </g>
     <g id="text_3">
      <!-- 400 -->
      <g transform="translate(169.194153 217.65925)scale(0.12 -0.12)">
       <defs>
        <path d="M 1805 0 
L 2330 0 
L 2330 1107 
L 2957 1107 
L 2957 1562 
L 2330 1562 
L 2330 4435 
L 1869 4435 
L 70 1504 
L 70 1107 
L 1805 1107 
L 1805 0 
z
M 608 1562 
L 608 1581 
L 1779 3475 
L 1805 3475 
L 1805 1562 
L 608 1562 
z
" id="GuardianSansCond-Regular-34" transform="scale(0.015625)"/>
       </defs>
       <use xlink:href="#GuardianSansCond-Regular-34"/>
       <use x="47.399994" xlink:href="#GuardianSansCond-Regular-30"/>
       <use x="100.899979" xlink:href="#GuardianSansCond-Regular-30"/>
      </g>
     </g>
    </g>
    <g id="xtick_4">
     <g id="line2d_4">
      <g>
       <use style="stroke:#000000;stroke-width:0.8;" x="233.522156" xlink:href="#mccc0f7301f" y="201.8505"/>
      </g>
     </g>
     <g id="text_4">
      <!-- 600 -->
      <g transform="translate(224.167781 217.65925)scale(0.12 -0.12)">
       <defs>
        <path d="M 1632 384 
C 1082 384 845 915 845 1837 
L 845 2054 
C 992 2150 1254 2278 1594 2278 
C 2086 2278 2323 1984 2323 1357 
C 2323 742 2086 384 1632 384 
z
M 1632 -70 
C 2438 -70 2886 544 2886 1408 
C 2886 2234 2490 2746 1754 2746 
C 1363 2746 1056 2611 845 2445 
C 877 3853 1440 4038 2029 4038 
C 2291 4038 2554 3974 2688 3930 
L 2688 4352 
C 2547 4442 2272 4499 1958 4499 
C 1043 4499 275 3981 275 2208 
L 275 1843 
C 275 691 717 -70 1632 -70 
z
" id="GuardianSansCond-Regular-36" transform="scale(0.015625)"/>
       </defs>
       <use xlink:href="#GuardianSansCond-Regular-36"/>
       <use x="48.899994" xlink:href="#GuardianSansCond-Regular-30"/>
       <use x="102.399979" xlink:href="#GuardianSansCond-Regular-30"/>
      </g>
     </g>
    </g>
    <g id="xtick_5">
     <g id="line2d_5">
      <g>
       <use style="stroke:#000000;stroke-width:0.8;" x="288.585783" xlink:href="#mccc0f7301f" y="201.8505"/>
      </g>
     </g>
     <g id="text_5">
      <!-- 800 -->
      <g transform="translate(279.201408 217.65925)scale(0.12 -0.12)">
       <defs>
        <path d="M 1581 -64 
C 2445 -64 2931 467 2931 1139 
C 2931 1760 2592 2074 2106 2330 
C 2490 2541 2822 2899 2822 3424 
C 2822 4077 2394 4499 1606 4499 
C 819 4499 384 4013 384 3398 
C 384 2848 678 2509 1069 2285 
C 602 2054 230 1683 230 1082 
C 230 384 710 -64 1581 -64 
z
M 1587 390 
C 1082 390 768 678 768 1126 
C 768 1581 1037 1894 1414 2080 
C 2029 1792 2387 1574 2387 1082 
C 2387 614 2054 390 1587 390 
z
M 1754 2522 
C 1210 2778 928 3021 928 3430 
C 928 3821 1171 4051 1606 4051 
C 2067 4051 2285 3782 2285 3398 
C 2285 3008 2099 2765 1754 2522 
z
" id="GuardianSansCond-Regular-38" transform="scale(0.015625)"/>
       </defs>
       <use xlink:href="#GuardianSansCond-Regular-38"/>
       <use x="49.399994" xlink:href="#GuardianSansCond-Regular-30"/>
       <use x="102.899979" xlink:href="#GuardianSansCond-Regular-30"/>
      </g>
     </g>
    </g>
    <g id="xtick_6">
     <g id="line2d_6">
      <g>
       <use style="stroke:#000000;stroke-width:0.8;" x="343.649411" xlink:href="#mccc0f7301f" y="201.8505"/>
      </g>
     </g>
     <g id="text_6">
      <!-- 1000 -->
      <g transform="translate(332.291599 217.65925)scale(0.12 -0.12)">
       <defs>
        <path d="M 832 0 
L 1363 0 
L 1363 4474 
L 1171 4474 
L 141 4083 
L 141 3776 
L 832 3846 
L 832 0 
z
" id="GuardianSansCond-Regular-31" transform="scale(0.015625)"/>
       </defs>
       <use xlink:href="#GuardianSansCond-Regular-31"/>
       <use x="28.799988" xlink:href="#GuardianSansCond-Regular-30"/>
       <use x="82.299973" xlink:href="#GuardianSansCond-Regular-30"/>
       <use x="135.799957" xlink:href="#GuardianSansCond-Regular-30"/>
      </g>
     </g>
    </g>
    <g id="text_7">
     <!-- Length -->
     <g transform="translate(197.281562 232.75925)scale(0.12 -0.12)">
      <defs>
       <path d="M 416 0 
L 2541 0 
L 2541 461 
L 954 461 
L 954 4435 
L 416 4435 
L 416 0 
z
" id="GuardianSansCond-Regular-4c" transform="scale(0.015625)"/>
       <path d="M 1555 -51 
C 1984 -51 2317 102 2470 243 
L 2470 627 
C 2240 499 1965 397 1613 397 
C 1037 397 742 698 723 1466 
L 2554 1466 
L 2554 1798 
C 2554 2893 2176 3334 1402 3334 
C 659 3334 186 2810 186 1722 
L 186 1549 
C 186 499 634 -51 1555 -51 
z
M 1382 2906 
C 1830 2906 2010 2611 2010 1894 
L 723 1894 
C 736 2630 992 2906 1382 2906 
z
" id="GuardianSansCond-Regular-65" transform="scale(0.015625)"/>
       <path d="M 346 0 
L 870 0 
L 870 2688 
C 1037 2778 1306 2886 1587 2886 
C 1965 2886 2093 2765 2093 2458 
L 2093 0 
L 2611 0 
L 2611 2528 
C 2611 3085 2342 3334 1811 3334 
C 1440 3334 1107 3194 870 3021 
L 845 3021 
L 845 3283 
L 346 3283 
L 346 0 
z
" id="GuardianSansCond-Regular-6e" transform="scale(0.015625)"/>
       <path d="M 1325 -1235 
C 2240 -1235 2675 -787 2675 -179 
C 2675 416 2336 704 1696 704 
L 1069 704 
C 858 704 774 806 774 966 
C 774 1069 826 1178 890 1242 
C 1018 1197 1171 1178 1331 1178 
C 1939 1178 2413 1530 2413 2208 
L 2413 2304 
C 2413 2560 2336 2739 2234 2874 
L 2682 2874 
L 2682 3283 
L 1747 3283 
C 1626 3315 1485 3334 1325 3334 
C 704 3334 250 2944 250 2278 
L 250 2182 
C 250 1786 429 1510 634 1376 
C 422 1210 294 1024 294 787 
C 294 544 442 403 627 333 
L 627 307 
C 320 192 64 -38 64 -422 
C 64 -915 506 -1235 1325 -1235 
z
M 1312 -819 
C 832 -819 595 -640 595 -326 
C 595 -51 762 141 966 218 
L 1632 218 
C 2022 218 2150 45 2150 -237 
C 2150 -602 1926 -819 1312 -819 
z
M 1331 1581 
C 998 1581 762 1773 762 2189 
L 762 2323 
C 762 2726 973 2931 1331 2931 
C 1670 2931 1901 2746 1901 2310 
L 1901 2176 
C 1901 1779 1683 1581 1331 1581 
z
" id="GuardianSansCond-Regular-67" transform="scale(0.015625)"/>
       <path d="M 1222 -38 
C 1466 -38 1619 26 1722 90 
L 1722 442 
C 1632 416 1517 390 1382 390 
C 1107 390 1005 480 1005 781 
L 1005 2848 
L 1683 2848 
L 1683 3283 
L 1005 3283 
L 1005 4051 
L 486 4051 
L 486 3283 
L 96 3283 
L 96 2848 
L 486 2848 
L 486 710 
C 486 160 774 -38 1222 -38 
z
" id="GuardianSansCond-Regular-74" transform="scale(0.015625)"/>
       <path d="M 346 0 
L 870 0 
L 870 2688 
C 1037 2778 1306 2886 1587 2886 
C 1965 2886 2093 2765 2093 2458 
L 2093 0 
L 2611 0 
L 2611 2528 
C 2611 3085 2336 3334 1805 3334 
C 1440 3334 1126 3200 896 3034 
L 870 3034 
L 870 4698 
L 346 4698 
L 346 0 
z
" id="GuardianSansCond-Regular-68" transform="scale(0.015625)"/>
      </defs>
      <use xlink:href="#GuardianSansCond-Regular-4c"/>
      <use x="41.799988" xlink:href="#GuardianSansCond-Regular-65"/>
      <use x="84.499985" xlink:href="#GuardianSansCond-Regular-6e"/>
      <use x="130.599976" xlink:href="#GuardianSansCond-Regular-67"/>
      <use x="173.299973" xlink:href="#GuardianSansCond-Regular-74"/>
      <use x="202.299957" xlink:href="#GuardianSansCond-Regular-68"/>
     </g>
    </g>
   </g>
   <g id="matplotlib.axis_2">
    <g id="ytick_1">
     <g id="line2d_7">
      <defs>
       <path d="M 0 0 
L -3.5 0 
" id="m18c6db5eea" style="stroke:#000000;stroke-width:0.8;"/>
      </defs>
      <g>
       <use style="stroke:#000000;stroke-width:0.8;" x="54.24875" xlink:href="#m18c6db5eea" y="201.8505"/>
      </g>
     </g>
     <g id="text_8">
      <!-- 0 -->
      <g transform="translate(40.82875 206.254875)scale(0.12 -0.12)">
       <use xlink:href="#GuardianSansCond-Regular-30"/>
      </g>
     </g>
    </g>
    <g id="ytick_2">
     <g id="line2d_8">
      <g>
       <use style="stroke:#000000;stroke-width:0.8;" x="54.24875" xlink:href="#m18c6db5eea" y="161.149756"/>
      </g>
     </g>
     <g id="text_9">
      <!-- 1000 -->
      <g transform="translate(24.533125 165.554131)scale(0.12 -0.12)">
       <use xlink:href="#GuardianSansCond-Regular-31"/>
       <use x="28.799988" xlink:href="#GuardianSansCond-Regular-30"/>
       <use x="82.299973" xlink:href="#GuardianSansCond-Regular-30"/>
       <use x="135.799957" xlink:href="#GuardianSansCond-Regular-30"/>
      </g>
     </g>
    </g>
    <g id="ytick_3">
     <g id="line2d_9">
      <g>
       <use style="stroke:#000000;stroke-width:0.8;" x="54.24875" xlink:href="#m18c6db5eea" y="120.449012"/>
      </g>
     </g>
     <g id="text_10">
      <!-- 2000 -->
      <g transform="translate(22.88875 124.853387)scale(0.12 -0.12)">
       <use xlink:href="#GuardianSansCond-Regular-32"/>
       <use x="42.499985" xlink:href="#GuardianSansCond-Regular-30"/>
       <use x="95.999969" xlink:href="#GuardianSansCond-Regular-30"/>
       <use x="149.499954" xlink:href="#GuardianSansCond-Regular-30"/>
      </g>
     </g>
    </g>
    <g id="ytick_4">
     <g id="line2d_10">
      <g>
       <use style="stroke:#000000;stroke-width:0.8;" x="54.24875" xlink:href="#m18c6db5eea" y="79.748268"/>
      </g>
     </g>
     <g id="text_11">
      <!-- 3000 -->
      <g transform="translate(22.924375 84.152643)scale(0.12 -0.12)">
       <defs>
        <path d="M 1094 -64 
C 1920 -64 2432 416 2432 1248 
C 2432 1939 2112 2253 1606 2362 
L 1606 2381 
C 2042 2515 2310 2803 2310 3405 
C 2310 4096 1882 4499 1158 4499 
C 787 4499 486 4429 275 4320 
L 275 3891 
C 461 3968 678 4038 998 4038 
C 1478 4038 1754 3866 1754 3302 
C 1754 2797 1478 2547 1018 2547 
L 717 2547 
L 717 2086 
L 1056 2086 
C 1600 2086 1869 1837 1869 1267 
C 1869 646 1517 403 947 403 
C 646 403 358 493 147 608 
L 147 166 
C 358 32 640 -64 1094 -64 
z
" id="GuardianSansCond-Regular-33" transform="scale(0.015625)"/>
       </defs>
       <use xlink:href="#GuardianSansCond-Regular-33"/>
       <use x="42.199997" xlink:href="#GuardianSansCond-Regular-30"/>
       <use x="95.699982" xlink:href="#GuardianSansCond-Regular-30"/>
       <use x="149.199966" xlink:href="#GuardianSansCond-Regular-30"/>
      </g>
     </g>
    </g>
    <g id="ytick_5">
     <g id="line2d_11">
      <g>
       <use style="stroke:#000000;stroke-width:0.8;" x="54.24875" xlink:href="#m18c6db5eea" y="39.047524"/>
      </g>
     </g>
     <g id="text_12">
      <!-- 4000 -->
      <g transform="translate(22.3 43.451899)scale(0.12 -0.12)">
       <use xlink:href="#GuardianSansCond-Regular-34"/>
       <use x="47.399994" xlink:href="#GuardianSansCond-Regular-30"/>
       <use x="100.899979" xlink:href="#GuardianSansCond-Regular-30"/>
       <use x="154.399963" xlink:href="#GuardianSansCond-Regular-30"/>
      </g>
     </g>
    </g>
    <g id="text_13">
     <!-- Count -->
     <g transform="translate(16.00875 125.626125)rotate(-90)scale(0.12 -0.12)">
      <defs>
       <path d="M 1882 -64 
C 2304 -64 2637 38 2874 186 
L 2874 640 
C 2643 518 2342 397 1946 397 
C 1114 397 806 986 806 2042 
L 806 2445 
C 806 3648 1267 4038 1920 4038 
C 2278 4038 2541 3955 2822 3840 
L 2822 4288 
C 2618 4410 2336 4499 1952 4499 
C 1005 4499 237 3994 237 2387 
L 237 2042 
C 237 563 851 -64 1882 -64 
z
" id="GuardianSansCond-Regular-43" transform="scale(0.015625)"/>
       <path d="M 1459 -51 
C 2272 -51 2733 570 2733 1542 
L 2733 1747 
C 2733 2771 2291 3334 1459 3334 
C 659 3334 186 2714 186 1741 
L 186 1530 
C 186 531 614 -51 1459 -51 
z
M 1466 378 
C 992 378 723 762 723 1472 
L 723 1818 
C 723 2451 947 2906 1453 2906 
C 1920 2906 2195 2560 2195 1805 
L 2195 1466 
C 2195 826 1958 378 1466 378 
z
" id="GuardianSansCond-Regular-6f" transform="scale(0.015625)"/>
       <path d="M 1158 -51 
C 1523 -51 1824 109 2042 262 
L 2067 262 
L 2118 0 
L 2566 0 
L 2566 3283 
L 2042 3283 
L 2042 602 
C 1888 512 1626 397 1350 397 
C 947 397 858 557 858 838 
L 858 3283 
L 333 3283 
L 333 826 
C 333 301 576 -51 1158 -51 
z
" id="GuardianSansCond-Regular-75" transform="scale(0.015625)"/>
      </defs>
      <use xlink:href="#GuardianSansCond-Regular-43"/>
      <use x="47.399994" xlink:href="#GuardianSansCond-Regular-6f"/>
      <use x="92.999985" xlink:href="#GuardianSansCond-Regular-75"/>
      <use x="138.499969" xlink:href="#GuardianSansCond-Regular-6e"/>
      <use x="184.59996" xlink:href="#GuardianSansCond-Regular-74"/>
     </g>
    </g>
   </g>
   <g id="patch_23">
    <path d="M 54.24875 201.8505 
L 54.24875 23.7705 
" style="fill:none;stroke:#000000;stroke-linecap:square;stroke-linejoin:miter;stroke-width:0.8;"/>
   </g>
   <g id="patch_24">
    <path d="M 370.12125 201.8505 
L 370.12125 23.7705 
" style="fill:none;stroke:#000000;stroke-linecap:square;stroke-linejoin:miter;stroke-width:0.8;"/>
   </g>
   <g id="patch_25">
    <path d="M 54.24875 201.8505 
L 370.12125 201.8505 
" style="fill:none;stroke:#000000;stroke-linecap:square;stroke-linejoin:miter;stroke-width:0.8;"/>
   </g>
   <g id="patch_26">
    <path d="M 54.24875 23.7705 
L 370.12125 23.7705 
" style="fill:none;stroke:#000000;stroke-linecap:square;stroke-linejoin:miter;stroke-width:0.8;"/>
   </g>
   <g id="text_14">
    <!-- Dialogue Token Length -->
    <g transform="translate(153.79525 17.7705)scale(0.144 -0.144)">
     <defs>
      <path d="M 416 0 
L 1498 0 
C 2714 0 3270 813 3270 2163 
L 3270 2400 
C 3270 3802 2637 4435 1491 4435 
L 416 4435 
L 416 0 
z
M 954 461 
L 954 3974 
L 1446 3974 
C 2234 3974 2694 3603 2694 2400 
L 2694 2074 
C 2694 941 2323 461 1510 461 
L 954 461 
z
" id="GuardianSansCond-Regular-44" transform="scale(0.015625)"/>
      <path d="M 358 0 
L 883 0 
L 883 3283 
L 358 3283 
L 358 0 
z
M 352 3910 
L 883 3910 
L 883 4474 
L 352 4474 
L 352 3910 
z
" id="GuardianSansCond-Regular-69" transform="scale(0.015625)"/>
      <path d="M 1082 -51 
C 1395 -51 1638 77 1779 230 
L 1811 230 
L 1862 0 
L 2291 0 
L 2291 2413 
C 2291 3027 1958 3334 1293 3334 
C 915 3334 634 3258 410 3155 
L 410 2771 
C 576 2829 806 2886 1094 2886 
C 1600 2886 1766 2739 1766 2278 
L 1766 1958 
L 1088 1856 
C 480 1766 160 1466 160 883 
C 160 250 525 -51 1082 -51 
z
M 1222 358 
C 877 358 704 544 704 915 
C 704 1274 877 1440 1242 1485 
L 1766 1549 
L 1766 525 
C 1658 435 1459 358 1222 358 
z
" id="GuardianSansCond-Regular-61" transform="scale(0.015625)"/>
      <path d="M 358 0 
L 877 0 
L 877 4698 
L 358 4698 
L 358 0 
z
" id="GuardianSansCond-Regular-6c" transform="scale(0.015625)"/>
      <path id="GuardianSansCond-Regular-20" transform="scale(0.015625)"/>
      <path d="M 1152 0 
L 1690 0 
L 1690 3974 
L 2746 3974 
L 2746 4435 
L 90 4435 
L 90 3974 
L 1152 3974 
L 1152 0 
z
" id="GuardianSansCond-Regular-54" transform="scale(0.015625)"/>
      <path d="M 870 4698 
L 346 4698 
L 346 0 
L 870 0 
L 870 4698 
z
M 973 1696 
L 1984 0 
L 2592 0 
L 1549 1741 
L 2515 3283 
L 1939 3283 
L 973 1696 
z
" id="GuardianSansCond-Regular-6b" transform="scale(0.015625)"/>
     </defs>
     <use xlink:href="#GuardianSansCond-Regular-44"/>
     <use x="54.599991" xlink:href="#GuardianSansCond-Regular-69"/>
     <use x="73.899979" xlink:href="#GuardianSansCond-Regular-61"/>
     <use x="114.799973" xlink:href="#GuardianSansCond-Regular-6c"/>
     <use x="134.09996" xlink:href="#GuardianSansCond-Regular-6f"/>
     <use x="179.699951" xlink:href="#GuardianSansCond-Regular-67"/>
     <use x="222.399948" xlink:href="#GuardianSansCond-Regular-75"/>
     <use x="267.899933" xlink:href="#GuardianSansCond-Regular-65"/>
     <use x="310.59993" xlink:href="#GuardianSansCond-Regular-20"/>
     <use x="326.399918" xlink:href="#GuardianSansCond-Regular-54"/>
     <use x="370.899902" xlink:href="#GuardianSansCond-Regular-6f"/>
     <use x="416.499893" xlink:href="#GuardianSansCond-Regular-6b"/>
     <use x="457.999878" xlink:href="#GuardianSansCond-Regular-65"/>
     <use x="500.699875" xlink:href="#GuardianSansCond-Regular-6e"/>
     <use x="546.799866" xlink:href="#GuardianSansCond-Regular-20"/>
     <use x="562.599854" xlink:href="#GuardianSansCond-Regular-4c"/>
     <use x="604.399841" xlink:href="#GuardianSansCond-Regular-65"/>
     <use x="647.099838" xlink:href="#GuardianSansCond-Regular-6e"/>
     <use x="693.199829" xlink:href="#GuardianSansCond-Regular-67"/>
     <use x="735.899826" xlink:href="#GuardianSansCond-Regular-74"/>
     <use x="764.899811" xlink:href="#GuardianSansCond-Regular-68"/>
    </g>
   </g>
  </g>
  <g id="axes_2">
   <g id="patch_27">
    <path d="M 386.58125 201.8505 
L 702.45375 201.8505 
L 702.45375 23.7705 
L 386.58125 23.7705 
z
" style="fill:#ffffff;"/>
   </g>
   <g id="patch_28">
    <path clip-path="url(#p5ef0d16bad)" d="M 400.939091 201.8505 
L 415.296932 201.8505 
L 415.296932 200.670178 
L 400.939091 200.670178 
z
" style="fill:#0071bc;stroke:#0071bc;stroke-linejoin:miter;"/>
   </g>
   <g id="patch_29">
    <path clip-path="url(#p5ef0d16bad)" d="M 415.296932 201.8505 
L 429.654773 201.8505 
L 429.654773 169.981817 
L 415.296932 169.981817 
z
" style="fill:#0071bc;stroke:#0071bc;stroke-linejoin:miter;"/>
   </g>
   <g id="patch_30">
    <path clip-path="url(#p5ef0d16bad)" d="M 429.654773 201.8505 
L 444.012614 201.8505 
L 444.012614 125.414503 
L 429.654773 125.414503 
z
" style="fill:#0071bc;stroke:#0071bc;stroke-linejoin:miter;"/>
   </g>
   <g id="patch_31">
    <path clip-path="url(#p5ef0d16bad)" d="M 444.012614 201.8505 
L 458.370455 201.8505 
L 458.370455 114.547404 
L 444.012614 114.547404 
z
" style="fill:#0071bc;stroke:#0071bc;stroke-linejoin:miter;"/>
   </g>
   <g id="patch_32">
    <path clip-path="url(#p5ef0d16bad)" d="M 458.370455 201.8505 
L 472.728295 201.8505 
L 472.728295 119.675698 
L 458.370455 119.675698 
z
" style="fill:#0071bc;stroke:#0071bc;stroke-linejoin:miter;"/>
   </g>
   <g id="patch_33">
    <path clip-path="url(#p5ef0d16bad)" d="M 472.728295 201.8505 
L 487.086136 201.8505 
L 487.086136 132.781338 
L 472.728295 132.781338 
z
" style="fill:#0071bc;stroke:#0071bc;stroke-linejoin:miter;"/>
   </g>
   <g id="patch_34">
    <path clip-path="url(#p5ef0d16bad)" d="M 487.086136 201.8505 
L 501.443977 201.8505 
L 501.443977 143.567035 
L 487.086136 143.567035 
z
" style="fill:#0071bc;stroke:#0071bc;stroke-linejoin:miter;"/>
   </g>
   <g id="patch_35">
    <path clip-path="url(#p5ef0d16bad)" d="M 501.443977 201.8505 
L 515.801818 201.8505 
L 515.801818 153.498016 
L 501.443977 153.498016 
z
" style="fill:#0071bc;stroke:#0071bc;stroke-linejoin:miter;"/>
   </g>
   <g id="patch_36">
    <path clip-path="url(#p5ef0d16bad)" d="M 515.801818 201.8505 
L 530.159659 201.8505 
L 530.159659 165.341933 
L 515.801818 165.341933 
z
" style="fill:#0071bc;stroke:#0071bc;stroke-linejoin:miter;"/>
   </g>
   <g id="patch_37">
    <path clip-path="url(#p5ef0d16bad)" d="M 530.159659 201.8505 
L 544.5175 201.8505 
L 544.5175 178.732477 
L 530.159659 178.732477 
z
" style="fill:#0071bc;stroke:#0071bc;stroke-linejoin:miter;"/>
   </g>
   <g id="patch_38">
    <path clip-path="url(#p5ef0d16bad)" d="M 544.5175 201.8505 
L 558.875341 201.8505 
L 558.875341 179.261587 
L 544.5175 179.261587 
z
" style="fill:#0071bc;stroke:#0071bc;stroke-linejoin:miter;"/>
   </g>
   <g id="patch_39">
    <path clip-path="url(#p5ef0d16bad)" d="M 558.875341 201.8505 
L 573.233182 201.8505 
L 573.233182 184.186377 
L 558.875341 184.186377 
z
" style="fill:#0071bc;stroke:#0071bc;stroke-linejoin:miter;"/>
   </g>
   <g id="patch_40">
    <path clip-path="url(#p5ef0d16bad)" d="M 573.233182 201.8505 
L 587.591023 201.8505 
L 587.591023 188.74486 
L 573.233182 188.74486 
z
" style="fill:#0071bc;stroke:#0071bc;stroke-linejoin:miter;"/>
   </g>
   <g id="patch_41">
    <path clip-path="url(#p5ef0d16bad)" d="M 587.591023 201.8505 
L 601.948864 201.8505 
L 601.948864 190.779898 
L 587.591023 190.779898 
z
" style="fill:#0071bc;stroke:#0071bc;stroke-linejoin:miter;"/>
   </g>
   <g id="patch_42">
    <path clip-path="url(#p5ef0d16bad)" d="M 601.948864 201.8505 
L 616.306705 201.8505 
L 616.306705 194.035957 
L 601.948864 194.035957 
z
" style="fill:#0071bc;stroke:#0071bc;stroke-linejoin:miter;"/>
   </g>
   <g id="patch_43">
    <path clip-path="url(#p5ef0d16bad)" d="M 616.306705 201.8505 
L 630.664545 201.8505 
L 630.664545 195.786089 
L 616.306705 195.786089 
z
" style="fill:#0071bc;stroke:#0071bc;stroke-linejoin:miter;"/>
   </g>
   <g id="patch_44">
    <path clip-path="url(#p5ef0d16bad)" d="M 630.664545 201.8505 
L 645.022386 201.8505 
L 645.022386 197.780426 
L 630.664545 197.780426 
z
" style="fill:#0071bc;stroke:#0071bc;stroke-linejoin:miter;"/>
   </g>
   <g id="patch_45">
    <path clip-path="url(#p5ef0d16bad)" d="M 645.022386 201.8505 
L 659.380227 201.8505 
L 659.380227 199.65266 
L 645.022386 199.65266 
z
" style="fill:#0071bc;stroke:#0071bc;stroke-linejoin:miter;"/>
   </g>
   <g id="patch_46">
    <path clip-path="url(#p5ef0d16bad)" d="M 659.380227 201.8505 
L 673.738068 201.8505 
L 673.738068 201.158587 
L 659.380227 201.158587 
z
" style="fill:#0071bc;stroke:#0071bc;stroke-linejoin:miter;"/>
   </g>
   <g id="patch_47">
    <path clip-path="url(#p5ef0d16bad)" d="M 673.738068 201.8505 
L 688.095909 201.8505 
L 688.095909 201.809799 
L 673.738068 201.809799 
z
" style="fill:#0071bc;stroke:#0071bc;stroke-linejoin:miter;"/>
   </g>
   <g id="matplotlib.axis_3">
    <g id="xtick_7">
     <g id="line2d_12">
      <g>
       <use style="stroke:#000000;stroke-width:0.8;" x="393.576096" xlink:href="#mccc0f7301f" y="201.8505"/>
      </g>
     </g>
     <g id="text_15">
      <!-- 0 -->
      <g transform="translate(390.366096 217.65925)scale(0.12 -0.12)">
       <use xlink:href="#GuardianSansCond-Regular-30"/>
      </g>
     </g>
    </g>
    <g id="xtick_8">
     <g id="line2d_13">
      <g>
       <use style="stroke:#000000;stroke-width:0.8;" x="467.206049" xlink:href="#mccc0f7301f" y="201.8505"/>
      </g>
     </g>
     <g id="text_16">
      <!-- 20 -->
      <g transform="translate(461.446049 217.65925)scale(0.12 -0.12)">
       <use xlink:href="#GuardianSansCond-Regular-32"/>
       <use x="42.499985" xlink:href="#GuardianSansCond-Regular-30"/>
      </g>
     </g>
    </g>
    <g id="xtick_9">
     <g id="line2d_14">
      <g>
       <use style="stroke:#000000;stroke-width:0.8;" x="540.836002" xlink:href="#mccc0f7301f" y="201.8505"/>
      </g>
     </g>
     <g id="text_17">
      <!-- 40 -->
      <g transform="translate(534.781627 217.65925)scale(0.12 -0.12)">
       <use xlink:href="#GuardianSansCond-Regular-34"/>
       <use x="47.399994" xlink:href="#GuardianSansCond-Regular-30"/>
      </g>
     </g>
    </g>
    <g id="xtick_10">
     <g id="line2d_15">
      <g>
       <use style="stroke:#000000;stroke-width:0.8;" x="614.465956" xlink:href="#mccc0f7301f" y="201.8505"/>
      </g>
     </g>
     <g id="text_18">
      <!-- 60 -->
      <g transform="translate(608.321581 217.65925)scale(0.12 -0.12)">
       <use xlink:href="#GuardianSansCond-Regular-36"/>
       <use x="48.899994" xlink:href="#GuardianSansCond-Regular-30"/>
      </g>
     </g>
    </g>
    <g id="xtick_11">
     <g id="line2d_16">
      <g>
       <use style="stroke:#000000;stroke-width:0.8;" x="688.095909" xlink:href="#mccc0f7301f" y="201.8505"/>
      </g>
     </g>
     <g id="text_19">
      <!-- 80 -->
      <g transform="translate(681.921534 217.65925)scale(0.12 -0.12)">
       <use xlink:href="#GuardianSansCond-Regular-38"/>
       <use x="49.399994" xlink:href="#GuardianSansCond-Regular-30"/>
      </g>
     </g>
    </g>
    <g id="text_20">
     <!-- Length -->
     <g transform="translate(529.614062 232.75925)scale(0.12 -0.12)">
      <use xlink:href="#GuardianSansCond-Regular-4c"/>
      <use x="41.799988" xlink:href="#GuardianSansCond-Regular-65"/>
      <use x="84.499985" xlink:href="#GuardianSansCond-Regular-6e"/>
      <use x="130.599976" xlink:href="#GuardianSansCond-Regular-67"/>
      <use x="173.299973" xlink:href="#GuardianSansCond-Regular-74"/>
      <use x="202.299957" xlink:href="#GuardianSansCond-Regular-68"/>
     </g>
    </g>
   </g>
   <g id="matplotlib.axis_4">
    <g id="ytick_6">
     <g id="line2d_17">
      <g>
       <use style="stroke:#000000;stroke-width:0.8;" x="386.58125" xlink:href="#m18c6db5eea" y="201.8505"/>
      </g>
     </g>
    </g>
    <g id="ytick_7">
     <g id="line2d_18">
      <g>
       <use style="stroke:#000000;stroke-width:0.8;" x="386.58125" xlink:href="#m18c6db5eea" y="161.149756"/>
      </g>
     </g>
    </g>
    <g id="ytick_8">
     <g id="line2d_19">
      <g>
       <use style="stroke:#000000;stroke-width:0.8;" x="386.58125" xlink:href="#m18c6db5eea" y="120.449012"/>
      </g>
     </g>
    </g>
    <g id="ytick_9">
     <g id="line2d_20">
      <g>
       <use style="stroke:#000000;stroke-width:0.8;" x="386.58125" xlink:href="#m18c6db5eea" y="79.748268"/>
      </g>
     </g>
    </g>
    <g id="ytick_10">
     <g id="line2d_21">
      <g>
       <use style="stroke:#000000;stroke-width:0.8;" x="386.58125" xlink:href="#m18c6db5eea" y="39.047524"/>
      </g>
     </g>
    </g>
   </g>
   <g id="patch_48">
    <path d="M 386.58125 201.8505 
L 386.58125 23.7705 
" style="fill:none;stroke:#000000;stroke-linecap:square;stroke-linejoin:miter;stroke-width:0.8;"/>
   </g>
   <g id="patch_49">
    <path d="M 702.45375 201.8505 
L 702.45375 23.7705 
" style="fill:none;stroke:#000000;stroke-linecap:square;stroke-linejoin:miter;stroke-width:0.8;"/>
   </g>
   <g id="patch_50">
    <path d="M 386.58125 201.8505 
L 702.45375 201.8505 
" style="fill:none;stroke:#000000;stroke-linecap:square;stroke-linejoin:miter;stroke-width:0.8;"/>
   </g>
   <g id="patch_51">
    <path d="M 386.58125 23.7705 
L 702.45375 23.7705 
" style="fill:none;stroke:#000000;stroke-linecap:square;stroke-linejoin:miter;stroke-width:0.8;"/>
   </g>
   <g id="text_21">
    <!-- Summary Token Length -->
    <g transform="translate(484.168 17.7705)scale(0.144 -0.144)">
     <defs>
      <path d="M 1184 -70 
C 2138 -70 2509 499 2509 1248 
C 2509 2029 2112 2259 1562 2502 
L 1242 2643 
C 858 2810 730 2970 730 3360 
C 730 3808 986 4038 1459 4038 
C 1843 4038 2144 3936 2336 3840 
L 2336 4301 
C 2157 4397 1914 4499 1466 4499 
C 653 4499 198 4058 198 3322 
C 198 2637 544 2349 1024 2138 
L 1344 1997 
C 1760 1811 1958 1677 1958 1197 
C 1958 659 1702 397 1146 397 
C 794 397 442 512 166 646 
L 166 186 
C 390 51 723 -70 1184 -70 
z
" id="GuardianSansCond-Regular-53" transform="scale(0.015625)"/>
      <path d="M 346 0 
L 870 0 
L 870 2688 
C 1050 2790 1267 2886 1523 2886 
C 1856 2886 1971 2758 1971 2464 
L 1971 0 
L 2490 0 
L 2490 2688 
C 2682 2797 2912 2886 3136 2886 
C 3488 2886 3590 2746 3590 2464 
L 3590 0 
L 4115 0 
L 4115 2528 
C 4115 3104 3821 3334 3347 3334 
C 2995 3334 2688 3187 2419 2995 
L 2394 2995 
C 2266 3226 2061 3334 1722 3334 
C 1395 3334 1088 3181 870 3021 
L 845 3021 
L 845 3283 
L 346 3283 
L 346 0 
z
" id="GuardianSansCond-Regular-6d" transform="scale(0.015625)"/>
      <path d="M 346 0 
L 870 0 
L 870 2605 
C 1062 2752 1306 2842 1587 2842 
C 1638 2842 1728 2835 1786 2829 
L 1786 3302 
C 1747 3315 1677 3328 1606 3328 
C 1306 3328 1030 3142 870 2938 
L 845 2938 
L 845 3283 
L 346 3283 
L 346 0 
z
" id="GuardianSansCond-Regular-72" transform="scale(0.015625)"/>
      <path d="M 570 -1261 
C 1082 -1261 1306 -960 1485 -365 
L 2592 3283 
L 2067 3283 
L 1485 1197 
C 1421 992 1376 787 1376 787 
L 1363 787 
C 1363 787 1331 928 1248 1203 
L 621 3283 
L 51 3283 
L 1120 13 
L 1018 -294 
C 896 -698 749 -826 480 -826 
C 384 -826 262 -813 186 -800 
L 186 -1171 
C 282 -1222 435 -1261 570 -1261 
z
" id="GuardianSansCond-Regular-79" transform="scale(0.015625)"/>
     </defs>
     <use xlink:href="#GuardianSansCond-Regular-53"/>
     <use x="42.199997" xlink:href="#GuardianSansCond-Regular-75"/>
     <use x="87.699982" xlink:href="#GuardianSansCond-Regular-6d"/>
     <use x="157.199966" xlink:href="#GuardianSansCond-Regular-6d"/>
     <use x="226.699951" xlink:href="#GuardianSansCond-Regular-61"/>
     <use x="267.599945" xlink:href="#GuardianSansCond-Regular-72"/>
     <use x="296.399933" xlink:href="#GuardianSansCond-Regular-79"/>
     <use x="337.799927" xlink:href="#GuardianSansCond-Regular-20"/>
     <use x="353.599915" xlink:href="#GuardianSansCond-Regular-54"/>
     <use x="398.099899" xlink:href="#GuardianSansCond-Regular-6f"/>
     <use x="443.69989" xlink:href="#GuardianSansCond-Regular-6b"/>
     <use x="485.199875" xlink:href="#GuardianSansCond-Regular-65"/>
     <use x="527.899872" xlink:href="#GuardianSansCond-Regular-6e"/>
     <use x="573.999863" xlink:href="#GuardianSansCond-Regular-20"/>
     <use x="589.79985" xlink:href="#GuardianSansCond-Regular-4c"/>
     <use x="631.599838" xlink:href="#GuardianSansCond-Regular-65"/>
     <use x="674.299835" xlink:href="#GuardianSansCond-Regular-6e"/>
     <use x="720.399826" xlink:href="#GuardianSansCond-Regular-67"/>
     <use x="763.099823" xlink:href="#GuardianSansCond-Regular-74"/>
     <use x="792.099808" xlink:href="#GuardianSansCond-Regular-68"/>
    </g>
   </g>
  </g>
 </g>
 <defs>
  <clipPath id="p2dbc2aca47">
   <rect height="178.08" width="315.8725" x="54.24875" y="23.7705"/>
  </clipPath>
  <clipPath id="p5ef0d16bad">
   <rect height="178.08" width="315.8725" x="386.58125" y="23.7705"/>
  </clipPath>
 </defs>
</svg>